<?xml version="1.0" standalone="no"?>
<!DOCTYPE svg PUBLIC "-//W3C//DTD SVG 20010904//EN"
 "http://www.w3.org/TR/2001/REC-SVG-20010904/DTD/svg10.dtd">
<svg version="1.0" xmlns="http://www.w3.org/2000/svg"
 width="3404.000000pt" height="899.000000pt" viewBox="0 0 3404.000000 899.000000"
 preserveAspectRatio="xMidYMid meet">
<metadata>
Created by potrace 1.15, written by Peter Selinger 2001-2017
</metadata>
<g transform="translate(0.000000,899.000000) scale(0.100000,-0.100000)"
fill="#000000" stroke="none">
<path d="M753 8230 c-242 -122 -426 -319 -582 -620 -72 -140 -171 -368 -171
-395 0 -13 215 -15 1962 -15 l1962 0 -107 -65 c-247 -148 -432 -291 -628 -485
-80 -80 -184 -192 -229 -250 -364 -459 -579 -993 -657 -1630 -22 -180 -24
-673 -5 -850 94 -834 358 -1574 797 -2235 360 -541 807 -949 1234 -1125 l74
-30 1841 0 c1174 -1 1857 -4 1886 -11 25 -5 129 -12 231 -16 150 -5 206 -2
290 11 378 63 678 272 921 646 133 203 233 423 340 743 132 399 236 861 358
1602 38 231 99 600 135 820 192 1164 360 1736 626 2135 105 157 276 321 392
376 45 22 30 37 121 -126 172 -308 337 -715 451 -1111 302 -1052 278 -2109
-70 -2999 -50 -128 -180 -397 -251 -517 -357 -609 -877 -1101 -1554 -1469
l-144 -79 3591 -3 3591 -2 67 30 c212 95 408 278 558 520 74 120 237 475 237
517 0 11 -358 13 -1962 15 l-1963 3 70 39 c105 60 319 205 424 290 522 419
876 971 1041 1626 133 526 144 1117 34 1720 -211 1154 -861 2258 -1634 2775
-113 75 -261 157 -364 199 -35 14 -215 16 -1915 15 l-1876 0 110 -38 c102 -36
187 -70 175 -71 -3 0 -50 9 -105 21 -127 26 -430 37 -558 20 -168 -23 -382
-102 -515 -193 -384 -260 -662 -748 -872 -1533 -99 -368 -177 -762 -290 -1460
-195 -1206 -260 -1539 -380 -1955 -180 -623 -422 -1009 -745 -1186 -80 -44
-63 -57 -166 123 -89 155 -242 470 -309 638 -370 917 -492 1892 -345 2763 206
1220 888 2161 2020 2789 l150 83 -3597 0 -3596 0 -99 -50z m9658 -198 c293
-192 601 -506 863 -881 47 -68 86 -127 86 -131 0 -5 -27 2 -60 16 -128 52
-208 68 -335 68 -139 0 -197 -14 -320 -77 -104 -53 -262 -209 -353 -347 -191
-289 -353 -712 -516 -1350 -72 -279 -135 -560 -252 -1120 -247 -1183 -310
-1457 -439 -1900 -297 -1019 -652 -1547 -1118 -1662 l-83 -20 -89 45 c-316
159 -655 461 -939 837 -73 96 -156 215 -156 224 0 2 40 -13 89 -35 140 -62
227 -82 366 -83 89 0 135 4 179 18 435 132 739 666 1024 1801 74 294 139 586
277 1250 125 601 176 834 245 1125 264 1115 554 1770 920 2077 147 123 301
189 496 212 5 0 57 -30 115 -67z"/>
<path d="M21305 5774 c-576 -37 -1037 -177 -1416 -430 -558 -373 -899 -947
-1008 -1699 -64 -436 -47 -960 44 -1370 155 -699 586 -1283 1167 -1581 173
-88 419 -177 437 -158 5 5 90 291 190 635 l181 626 -98 99 c-173 176 -264 388
-318 739 -23 151 -27 694 -6 840 56 386 152 616 333 795 124 123 261 200 439
248 84 23 115 26 270 26 l176 1 173 598 c95 329 171 600 169 602 -17 18 -569
39 -733 29z"/>
<path d="M24684 4566 c-246 -657 -450 -1194 -451 -1192 -2 2 -8 52 -13 112
-25 268 -67 475 -142 699 -218 658 -672 1137 -1315 1389 -51 20 -99 36 -106
36 -9 0 -76 -216 -206 -666 l-192 -666 53 -56 c143 -151 237 -383 285 -700 24
-160 24 -636 0 -830 -68 -542 -229 -824 -562 -983 -147 -70 -322 -108 -502
-109 -29 0 -53 -2 -53 -3 0 -2 -76 -269 -170 -592 -93 -324 -168 -590 -166
-592 2 -2 103 -9 225 -15 171 -9 272 -9 434 0 593 33 1018 161 1409 424 l88
58 -29 -77 c-16 -43 -56 -151 -90 -241 -34 -89 -61 -165 -61 -167 0 -3 382 -5
850 -5 l849 0 19 62 c11 35 70 234 132 443 63 209 117 382 120 385 7 4 1300
4456 1300 4473 0 4 -283 7 -629 7 l-628 0 -449 -1194z"/>
<path d="M30278 5709 c-381 -26 -759 -126 -1038 -276 -687 -368 -1101 -1028
-1214 -1933 -13 -101 -34 -383 -36 -475 -1 -11 -169 473 -375 1075 -206 602
-412 1202 -456 1333 -50 144 -85 233 -90 225 -4 -7 -170 -519 -369 -1138
l-362 -1125 118 -430 c64 -236 119 -438 122 -449 5 -18 -4 -18 -259 -11 l-264
7 -184 -572 c-120 -375 -180 -575 -173 -579 6 -4 277 -14 603 -23 325 -10 593
-19 595 -21 2 -2 57 -201 122 -443 l119 -439 59 -7 c81 -9 1673 -52 1680 -45
5 4 -173 542 -212 642 -4 10 42 -26 103 -80 135 -122 240 -198 385 -281 100
-57 326 -161 332 -152 2 1 92 292 200 645 l197 642 -62 73 c-73 87 -157 253
-193 383 -99 350 -111 907 -30 1315 99 495 354 795 762 897 51 13 105 17 227
15 88 -1 176 -3 195 -4 l34 -3 182 590 c100 325 178 593 175 596 -10 10 -245
38 -406 49 -170 11 -317 11 -487 -1z"/>
<path d="M31535 5628 c-2 -7 -81 -295 -176 -639 l-171 -627 75 -73 c160 -159
254 -360 307 -664 53 -301 54 -728 3 -1072 l-16 -113 -617 0 -617 0 219 -332
c121 -182 238 -355 259 -384 21 -29 39 -55 39 -57 0 -2 -16 -4 -36 -5 -20 -1
-69 -13 -109 -27 -82 -28 -177 -33 -296 -14 -39 6 -72 9 -74 7 -6 -6 -325
-1169 -325 -1184 0 -15 128 -32 363 -46 315 -20 637 11 965 92 170 43 412 122
519 170 l62 28 133 -128 133 -128 710 -2 c974 -4 1155 -2 1155 11 0 5 -49 65
-108 132 -311 351 -739 863 -915 1095 l-86 113 26 67 c128 332 189 682 200
1142 11 473 -39 861 -157 1220 -222 675 -660 1139 -1307 1384 -130 49 -151 53
-158 34z"/>
</g>
</svg>
