<?xml version="1.0" standalone="no"?>
<!DOCTYPE svg PUBLIC "-//W3C//DTD SVG 20010904//EN"
 "http://www.w3.org/TR/2001/REC-SVG-20010904/DTD/svg10.dtd">
<svg version="1.0" xmlns="http://www.w3.org/2000/svg"
 width="828.000000pt" height="241.000000pt" viewBox="0 0 828.000000 241.000000"
 preserveAspectRatio="xMidYMid meet">
<metadata>
Created by potrace 1.15, written by Peter Selinger 2001-2017
</metadata>
<g transform="translate(0.000000,241.000000) scale(0.100000,-0.100000)"
fill="#000000" stroke="none">
<path d="M420 2353 l-284 -3 -34 -33 c-42 -40 -102 -138 -102 -166 l0 -21 423
0 422 0 -65 -35 c-186 -101 -290 -298 -290 -550 0 -329 183 -693 415 -826 l50
-29 413 0 c226 0 412 3 412 8 0 4 -31 26 -68 49 -37 23 -89 62 -115 85 l-49
43 75 1 c66 0 82 4 124 30 97 59 119 117 213 549 109 497 196 742 301 847 27
27 49 51 49 53 0 3 -36 5 -80 5 -132 0 -221 -50 -277 -157 -59 -110 -125 -355
-183 -675 -44 -244 -134 -492 -220 -605 l-17 -22 -21 22 c-75 82 -150 246
-182 401 -35 162 -20 396 31 523 60 147 107 219 217 331 66 67 93 87 170 124
51 23 92 46 92 51 0 6 -726 6 -1420 0z"/>
<path d="M2360 2343 c0 -5 24 -21 53 -36 28 -15 72 -45 97 -67 l45 -39 -58 -1
c-136 0 -217 -80 -267 -262 -11 -40 -44 -192 -74 -338 -119 -580 -175 -755
-276 -861 -22 -23 -40 -44 -40 -45 0 -2 16 -6 35 -10 100 -18 225 33 281 117
43 65 76 184 151 539 38 184 106 447 139 541 50 143 120 279 144 279 14 0 94
-109 133 -183 21 -37 51 -113 69 -170 30 -98 31 -109 32 -282 1 -193 -11 -259
-70 -393 -66 -150 -221 -322 -346 -384 -41 -21 -82 -38 -91 -38 -10 0 -17 -4
-17 -10 0 -7 291 -10 854 -10 l854 0 45 51 c42 48 97 144 97 169 0 7 -123 10
-428 8 l-429 -3 61 30 c133 64 247 219 281 380 73 348 -103 808 -376 985 l-62
40 -419 0 c-230 0 -418 -3 -418 -7z"/>
<path d="M5462 1318 l3 -613 188 -3 187 -2 0 608 0 609 -97 6 c-54 4 -140 7
-191 7 l-92 0 2 -612z"/>
<path d="M5888 1924 c-5 -4 -8 -74 -8 -155 l0 -147 58 -11 c119 -22 123 -24
185 -87 71 -73 97 -203 61 -308 -22 -63 -101 -148 -161 -173 -56 -24 -123 -36
-123 -22 0 5 -5 9 -10 9 -7 0 -10 -55 -8 -157 l3 -158 65 3 c227 12 452 187
523 407 54 167 35 352 -51 499 -75 128 -207 233 -347 276 -78 23 -176 36 -187
24z"/>
<path d="M4250 1765 l0 -155 195 0 195 0 0 -455 0 -455 185 0 185 0 0 455 0
455 198 2 197 3 3 153 3 152 -581 0 -580 0 0 -155z"/>
<path d="M7095 1914 c-210 -33 -400 -190 -477 -394 -29 -79 -31 -94 -31 -210
0 -109 3 -134 25 -192 74 -198 232 -343 431 -395 119 -31 284 -16 402 36 l43
19 43 -44 43 -44 228 0 c125 0 228 2 228 4 0 2 -15 19 -32 38 -35 35 -191 201
-240 254 l-30 32 20 43 c40 91 46 123 47 249 0 104 -4 136 -23 190 -67 194
-203 326 -407 395 -50 17 -211 28 -270 19z m221 -323 c62 -28 118 -82 152
-146 21 -42 26 -64 26 -130 0 -54 -5 -92 -16 -117 l-17 -38 -155 0 c-86 0
-156 -4 -156 -8 0 -4 27 -34 60 -67 33 -33 60 -63 60 -67 0 -4 -35 -8 -77 -8
-129 1 -220 57 -276 169 -126 256 137 527 399 412z"/>
<path d="M2512 548 c-25 -25 -13 -38 36 -38 l48 0 -28 -137 c-20 -104 -24
-139 -15 -145 34 -22 47 3 74 145 l26 137 49 0 c45 0 48 2 48 25 l0 25 -113 0
c-75 0 -117 -4 -125 -12z"/>
<path d="M2834 552 c-7 -4 -37 -53 -67 -109 -31 -56 -67 -120 -81 -142 -27
-43 -32 -66 -16 -76 16 -10 45 12 65 49 19 35 21 36 80 36 l61 0 2 -32 c3 -40
22 -61 46 -52 20 8 20 7 -9 194 -8 58 -18 113 -21 123 -5 17 -39 23 -60 9z"/>
<path d="M3053 552 c-6 -4 -26 -77 -43 -161 -26 -125 -29 -155 -18 -162 7 -5
16 -9 19 -9 15 0 30 31 38 77 5 26 14 79 22 117 l13 69 13 -74 c8 -41 17 -96
22 -123 9 -54 27 -71 54 -53 9 7 49 64 88 127 39 63 69 107 65 97 -3 -10 -9
-37 -12 -60 -3 -23 -13 -69 -21 -101 -12 -49 -12 -60 -1 -67 35 -23 45 -1 78
160 26 125 29 155 18 162 -40 26 -66 4 -144 -120 -37 -61 -69 -109 -71 -108
-1 2 -12 50 -24 107 -12 61 -28 110 -37 118 -18 14 -41 15 -59 4z"/>
<path d="M3472 548 c-10 -14 -62 -259 -62 -296 0 -22 3 -23 93 -20 84 3 92 5
92 23 0 18 -8 20 -62 23 l-62 3 5 32 c10 56 11 57 68 57 40 0 55 4 60 16 12
30 6 34 -50 34 -54 0 -56 1 -50 23 3 12 6 32 6 45 0 21 4 22 70 22 68 0 70 1
70 25 0 25 -1 25 -84 25 -55 0 -87 -4 -94 -12z"/>
<path d="M3694 546 c-3 -9 6 -45 21 -81 l28 -65 -63 -81 c-49 -63 -59 -83 -49
-90 8 -5 18 -9 22 -9 10 0 53 43 89 90 l26 35 26 -58 c27 -60 49 -78 69 -58 9
9 7 23 -6 59 -45 115 -46 102 17 179 31 39 56 75 56 82 0 6 -10 11 -23 11 -24
0 -61 -33 -92 -82 -9 -16 -20 -28 -24 -28 -3 0 -15 24 -26 53 -15 38 -26 53
-43 55 -13 2 -25 -3 -28 -12z"/>
<path d="M4092 548 c-10 -13 -62 -264 -62 -299 0 -17 8 -19 72 -19 114 0 181
45 208 141 35 121 -24 188 -166 189 -23 0 -46 -6 -52 -12z m151 -69 c20 -25
21 -48 6 -103 -16 -60 -61 -96 -116 -96 -32 0 -44 4 -40 13 2 6 13 59 23 116
l19 103 45 -6 c28 -4 52 -14 63 -27z"/>
<path d="M4404 552 c-12 -7 -64 -249 -64 -295 l0 -27 89 0 c72 0 90 3 95 16
10 27 -3 34 -66 34 l-60 0 6 31 c3 17 6 38 6 45 0 10 15 14 53 14 52 0 77 12
77 37 0 9 -17 13 -55 13 -59 0 -60 1 -49 59 l7 31 68 0 c67 0 69 1 69 25 0 25
-1 25 -82 25 -46 0 -88 -4 -94 -8z"/>
<path d="M4793 535 c-75 -45 -118 -180 -82 -259 20 -44 99 -68 154 -47 14 6
31 -1 61 -22 46 -32 74 -31 74 3 0 11 -3 20 -7 20 -5 0 -19 9 -33 19 -23 18
-23 21 -9 38 47 54 65 188 31 229 -41 51 -121 59 -189 19z m132 -45 c38 -42
-4 -189 -58 -206 -32 -10 -76 -7 -93 7 -35 29 -3 168 47 203 32 22 82 20 104
-4z"/>
<path d="M5085 549 c-12 -19 -45 -191 -45 -234 0 -61 34 -90 105 -90 96 0 132
44 165 203 23 111 22 132 -9 132 -23 0 -23 -2 -51 -134 -11 -55 -27 -110 -34
-122 -17 -25 -60 -36 -93 -23 -29 11 -30 49 -4 174 11 49 17 93 14 97 -6 12
-41 10 -48 -3z"/>
<path d="M5413 552 c-9 -6 -73 -281 -73 -314 0 -5 43 -8 95 -8 95 0 95 0 95
25 0 24 -3 25 -60 25 -64 0 -65 1 -54 58 6 30 9 31 63 34 49 3 56 6 59 25 3
20 -2 22 -50 25 l-54 3 9 42 8 42 67 3 c61 3 67 5 70 26 3 21 1 22 -80 22 -46
0 -88 -4 -95 -8z"/>
<path d="M5654 553 c-6 -4 -14 -21 -17 -38 -3 -16 -18 -83 -32 -149 -30 -139
-29 -132 -10 -140 31 -11 44 6 56 75 9 52 16 69 29 69 30 0 48 -25 60 -82 6
-31 17 -59 26 -62 15 -6 44 2 44 13 -1 18 -29 133 -33 137 -3 3 8 18 24 32 41
38 47 81 17 116 -20 24 -33 29 -88 32 -36 3 -70 1 -76 -3z"/>
<path d="M5924 552 c-6 -4 -14 -20 -17 -37 -43 -203 -55 -270 -51 -277 3 -4
45 -8 94 -8 71 0 89 3 94 16 10 27 -3 34 -65 34 -64 0 -64 1 -53 59 6 30 8 31
58 31 52 0 76 12 76 37 0 9 -17 13 -59 13 l-58 0 10 45 10 44 66 3 c60 3 66 5
69 26 3 21 1 22 -80 22 -46 0 -88 -4 -94 -8z"/>
<path d="M6126 544 c-11 -29 -6 -34 40 -34 53 0 52 19 14 -164 -18 -84 -20
-110 -10 -116 20 -12 50 1 50 22 0 10 7 47 15 81 8 34 19 88 25 120 l11 57 50
0 c46 0 49 2 49 25 l0 25 -119 0 c-99 0 -120 -3 -125 -16z"/>
<path d="M6437 538 c-18 -30 -57 -98 -98 -173 -18 -33 -41 -73 -51 -90 -22
-36 -22 -41 -3 -49 25 -9 45 4 66 45 19 39 20 39 78 39 l59 0 7 -39 c7 -41 23
-55 51 -44 11 4 14 14 11 37 -3 17 -13 81 -22 141 -22 139 -28 155 -60 155
-15 0 -30 -9 -38 -22z"/>
<path d="M6668 548 c-21 -17 -76 -304 -61 -319 23 -23 49 8 62 75 10 51 17 66
31 66 22 0 50 -31 50 -57 0 -67 21 -100 55 -87 19 8 19 35 1 104 -15 54 -15
55 9 73 29 21 42 78 27 112 -18 39 -138 61 -174 33z"/>
<path d="M6969 537 c-58 -31 -99 -106 -99 -183 0 -68 15 -99 55 -119 118 -55
245 53 245 208 -1 106 -94 150 -201 94z m127 -52 c30 -46 0 -170 -47 -196 -28
-15 -86 -14 -104 1 -36 30 -4 168 46 204 36 25 85 21 105 -9z"/>
<path d="M7482 548 c-10 -13 -62 -263 -62 -300 0 -17 7 -19 88 -16 82 3 87 4
90 26 3 21 0 22 -58 22 -54 0 -61 2 -56 18 8 27 46 231 46 248 0 17 -34 19
-48 2z"/>
<path d="M7693 548 c-9 -12 -63 -276 -63 -306 0 -10 21 -12 88 -10 82 3 87 4
90 26 3 21 0 22 -58 22 -54 0 -61 2 -56 18 12 39 46 217 46 239 0 26 -30 32
-47 11z"/>
<path d="M7950 549 c-123 -49 -162 -270 -56 -314 45 -19 66 -19 116 1 31 13
40 21 40 40 0 24 -23 33 -35 14 -10 -17 -91 -12 -106 7 -18 21 -15 101 5 141
20 38 62 72 90 72 11 0 34 -7 50 -15 30 -16 45 -8 46 22 0 33 -96 53 -150 32z"/>
</g>
</svg>
