<?xml version="1.0" standalone="no"?>
<!DOCTYPE svg PUBLIC "-//W3C//DTD SVG 1.1//EN" "http://www.w3.org/Graphics/SVG/1.1/DTD/svg11.dtd" >
<svg xmlns="http://www.w3.org/2000/svg">
<metadata></metadata>
<defs>
<font id="AvenirLightOblique" horiz-adv-x="1064" >
<font-face units-per-em="2048" ascent="1638" descent="-410" />
<missing-glyph horiz-adv-x="532" />
<glyph horiz-adv-x="0" />
<glyph horiz-adv-x="2048" />
<glyph unicode=" "  horiz-adv-x="532" />
<glyph unicode="&#x09;" horiz-adv-x="532" />
<glyph unicode="&#xa0;" horiz-adv-x="532" />
<glyph unicode="!" horiz-adv-x="757" d="M293 86q6 41 37.5 69.5t73.5 28.5t67 -28.5t18.5 -69.5t-39 -69.5t-73.5 -28.5t-65.5 28.5t-18.5 69.5zM371 381l151 1069h123l-151 -1069h-123z" />
<glyph unicode="&#x22;" d="M467 983l68 467h122l-67 -467h-123zM750 983l67 467h123l-68 -467h-122z" />
<glyph unicode="#" d="M92 469l14 98h236l90 320h-221l14 98h236l127 465h106l-129 -465h285l129 465h106l-129 -465h222l-15 -98h-235l-88 -320h221l-14 -98h-236l-127 -469h-106l127 469h-285l-127 -469h-107l127 469h-221zM451 567h282l88 320h-282z" />
<glyph unicode="$" d="M94 190l129 80q37 -82 107.5 -131t158.5 -53l84 594l-139 53q-68 27 -111.5 73t-58 93t-20.5 96t4 82q23 162 155 272.5t281 125.5l21 137h98l-21 -137q117 0 206 -39t149 -144l-125 -82q-37 72 -103.5 113t-140.5 41l-82 -578l137 -49q102 -39 167 -129t42 -237 q-23 -168 -158 -276.5t-303 -119.5l-18 -137h-98l18 137q-115 0 -219 56.5t-160 158.5zM383 1085q-12 -100 33 -158.5t143 -95.5l33 -12l78 545q-106 -18 -188.5 -93t-98.5 -186zM588 86q117 4 206 87t105 206q23 164 -149 231l-84 33z" />
<glyph unicode="%" horiz-adv-x="1669" d="M235.5 1122.5q20.5 145.5 138.5 249t263 103.5t234.5 -103.5t69 -249t-138.5 -249t-263.5 -103.5t-234.5 103.5t-68.5 249zM322 -12l1148 1532l86 -58l-1150 -1532zM346 1122.5q-14 -102.5 46.5 -172t161.5 -69.5t181 69.5t94.5 172t-46 172t-161 69.5t-181.5 -69.5 t-95 -172zM932.5 327.5q21.5 145.5 138.5 249t263.5 103.5t235.5 -103.5t67.5 -249t-138.5 -249t-263 -103.5t-235.5 103.5t-68 249zM1042.5 327.5q-14.5 -102.5 47 -172t162 -69.5t180 69.5t94 172t-46 172t-160.5 69.5t-181 -69.5t-95.5 -172z" />
<glyph unicode="&#x26;" horiz-adv-x="1441" d="M174 385q10 66 39 123t59.5 95t89 81t95.5 65.5t110 63.5q-47 68 -70.5 106.5t-45 107.5t-13.5 130q23 152 141.5 241t270.5 89q133 0 218 -86t67 -221q-8 -59 -36 -112.5t-57.5 -87.5t-87 -73t-92 -58t-104.5 -54l299 -373l262 377h139l-328 -463l281 -346h-182 l-185 233q-113 -127 -227.5 -193.5t-259.5 -66.5q-188 0 -299 117t-84 305zM311 389q-20 -135 63 -219t222 -84q199 0 379 223l-342 418q-57 -31 -87 -49.5t-78 -53t-74.5 -65.5t-51.5 -76t-31 -94zM575 1159q-8 -47 13.5 -105.5t43 -90t58.5 -84.5q51 25 79 39t75 43.5 t73.5 56t50 66.5t29.5 85q12 86 -37 140.5t-137 54.5q-92 0 -163.5 -57.5t-84.5 -147.5z" />
<glyph unicode="'" horiz-adv-x="532" d="M342 983l68 467h122l-67 -467h-123z" />
<glyph unicode="(" horiz-adv-x="532" d="M201 590q35 244 143 482.5t270 426.5l95 -65q-150 -162 -251.5 -391.5t-133.5 -452.5q-31 -229 7 -434t140 -414l-104 -61q-113 195 -156 434t-10 475z" />
<glyph unicode=")" horiz-adv-x="532" d="M-10 -254q150 162 251 391.5t132 452.5q33 229 -5 434t-141 414l105 61q113 -195 155.5 -434.5t8.5 -474.5q-33 -244 -141.5 -482.5t-270.5 -426.5z" />
<glyph unicode="*" horiz-adv-x="909" d="M240 1145l41 92l286 -98l45 311h99l-45 -311l309 98l16 -98l-307 -97l150 -249l-84 -60l-156 256l-219 -256l-74 60l223 249z" />
<glyph unicode="+" horiz-adv-x="1363" d="M240 571l14 99h473l66 473h98l-66 -473h473l-14 -99h-473l-66 -473h-98l66 473h-473z" />
<glyph unicode="," horiz-adv-x="532" d="M63 -283l201 467h144l-224 -467h-121z" />
<glyph unicode="-" horiz-adv-x="681" d="M150 430l14 111h506l-15 -111h-505z" />
<glyph unicode="." horiz-adv-x="532" d="M180 86q6 41 38 69.5t74 28.5t66.5 -28.5t18.5 -69.5t-39 -69.5t-74 -28.5t-65.5 28.5t-18.5 69.5z" />
<glyph unicode="/" horiz-adv-x="757" d="M12 -37l844 1561l100 -37l-839 -1561z" />
<glyph unicode="0" d="M139.5 559q4.5 80 16.5 166q14 106 37.5 200.5t69.5 199t107.5 178t157 123t211.5 49.5q98 0 172 -33t117 -92.5t68.5 -131t31 -159.5t2 -168t-15.5 -166q-16 -106 -38.5 -200.5t-68.5 -199t-107.5 -178t-158 -123t-213.5 -49.5q-98 0 -171.5 33t-115.5 92.5t-68 131 t-32 159.5t-1.5 168zM273 460q1 -77 17.5 -139.5t44 -118t82 -86t128.5 -30.5q88 0 159.5 46t116.5 112.5t79 160t50.5 167t28.5 153.5q8 66 12 127t3 138t-16 139.5t-44 118t-82 86t-127 30.5q-88 0 -160.5 -46t-117 -112.5t-79 -160t-51 -167t-26.5 -153.5 q-10 -66 -14.5 -127t-3.5 -138z" />
<glyph unicode="1" d="M356 1157l402 293h104l-205 -1450h-122l180 1278h-2l-293 -215z" />
<glyph unicode="2" d="M84 0l20 143l625 576q55 49 87 82t75 83t66.5 102t31.5 108q18 123 -52.5 196.5t-197.5 73.5q-113 0 -199.5 -65.5t-125.5 -172.5l-142 15q57 164 186.5 249t301.5 85q174 0 281.5 -100.5t84.5 -270.5q-10 -66 -37.5 -129.5t-57.5 -109.5t-85 -105.5t-90 -91t-104 -93.5 l-516 -464h761l-16 -111h-897z" />
<glyph unicode="3" d="M121 260l139 43q27 -109 91.5 -163t183.5 -54q156 0 252 89t116 226q10 78 -15.5 137.5t-76.5 93.5t-114.5 51t-135.5 17h-53l16 123h62q84 0 157.5 25.5t133 90.5t71.5 159q16 117 -47 191.5t-182 74.5q-88 0 -167 -45t-132 -125l-109 66q145 215 422 215 q176 0 276.5 -96.5t75.5 -276.5q-18 -121 -98 -212t-207 -124l-2 -4q135 -25 206 -128.5t52 -242.5q-27 -180 -160 -298t-348 -118q-337 0 -407 285z" />
<glyph unicode="4" d="M96 356l21 146l714 948h170l-139 -983h221l-16 -111h-221l-49 -356h-123l49 356h-627zM223 467h516l119 848h-4z" />
<glyph unicode="5" d="M115 221l137 64q25 -84 103.5 -141.5t174.5 -57.5q72 0 150 37t144.5 119t82.5 190q20 158 -68.5 267.5t-242.5 109.5q-147 0 -301 -98l117 739h716l-16 -111h-598l-72 -460q86 41 217 41q203 0 307.5 -139.5t75.5 -340.5q-16 -113 -70 -204t-130 -146t-160 -85t-168 -30 q-303 0 -399 246z" />
<glyph unicode="6" d="M117 426q10 70 46 146.5t61.5 114.5t78.5 110l485 653h156l-485 -639h4q39 29 102.5 45t120.5 16q193 0 300.5 -129t80.5 -317q-27 -197 -179.5 -324t-358 -127t-322.5 127t-90 324zM252 426q-20 -152 60.5 -246t231 -94t259 95t129.5 245q20 141 -65 240.5t-226 99.5 t-255 -99.5t-134 -240.5z" />
<glyph unicode="7" d="M193 0l776 1339h-697l17 111h823l-16 -111l-766 -1339h-137z" />
<glyph unicode="8" d="M141 403q18 135 107.5 240t226.5 133l2 4l-2 -2q-98 29 -149 122.5t-37 197.5q25 168 152.5 272.5t298.5 104.5t269.5 -104.5t73.5 -272.5q-14 -104 -91 -197.5t-185 -122.5l2 2l-2 -4q131 -29 190.5 -133t40.5 -240q-29 -193 -171 -310.5t-337.5 -117.5t-306 118 t-82.5 310zM276 403q-20 -133 55 -225t214 -92t238.5 92t119.5 225q18 141 -59.5 229.5t-209.5 88.5t-236 -88.5t-122 -229.5zM424 1098q-14 -111 48.5 -189t177 -78t199.5 78t99 189q16 119 -47 192.5t-177 73.5t-199 -73.5t-101 -192.5z" />
<glyph unicode="9" d="M201 1024q29 197 181.5 324t358 127t322.5 -127t88 -324q-10 -70 -45 -146.5t-61.5 -114.5t-77.5 -110l-486 -653h-155l485 639h-4q-39 -29 -103.5 -45t-119.5 -16q-193 0 -301.5 129t-81.5 317zM336 1024q-18 -141 66.5 -240.5t226 -99.5t255 99.5t132.5 240.5 q23 150 -59.5 245t-233 95t-258 -94t-129.5 -246z" />
<glyph unicode=":" horiz-adv-x="532" d="M180 86q6 41 38 69.5t74 28.5t66.5 -28.5t18.5 -69.5t-39 -69.5t-74 -28.5t-65.5 28.5t-18.5 69.5zM289 860q6 41 38.5 69.5t73.5 28.5t66 -28.5t18.5 -69.5t-38 -69.5t-73.5 -28.5t-66.5 28.5t-18.5 69.5z" />
<glyph unicode=";" horiz-adv-x="532" d="M63 -283l201 467h144l-224 -467h-121zM289 860q6 41 38.5 69.5t73.5 28.5t66 -28.5t18.5 -69.5t-38 -69.5t-73.5 -28.5t-66.5 28.5t-18.5 69.5z" />
<glyph unicode="&#x3c;" horiz-adv-x="1363" d="M248 571l14 99l1096 479l-15 -102l-976 -426l856 -426l-15 -103z" />
<glyph unicode="=" horiz-adv-x="1363" d="M219 424l14 98h1045l-14 -98h-1045zM260 719l14 98h1045l-14 -98h-1045z" />
<glyph unicode="&#x3e;" horiz-adv-x="1363" d="M180 92l15 103l979 426l-859 426l15 102l960 -479l-14 -99z" />
<glyph unicode="?" horiz-adv-x="948" d="M258 1155q49 154 171 243t276 89q166 0 258 -94.5t69 -257.5q-14 -94 -58 -167t-99.5 -120t-110.5 -90t-97 -105.5t-55 -140.5l-18 -131h-123l25 172q10 76 52 137.5t95 106.5t106.5 90t94.5 106.5t51 134.5q16 111 -39 179.5t-166 68.5q-104 0 -184 -64.5t-117 -172.5z M395 86q6 41 38 69.5t74 28.5t66.5 -28.5t18.5 -69.5t-39 -69.5t-74 -28.5t-65.5 28.5t-18.5 69.5z" />
<glyph unicode="@" horiz-adv-x="1638" d="M193 727q29 209 154.5 384t314 275.5t395.5 100.5q299 0 475 -176t139 -439q-18 -123 -76.5 -236.5t-137.5 -193.5t-172 -127t-179 -47q-55 0 -86 36t-21 102h-4q-53 -55 -131 -96.5t-153 -41.5q-131 0 -191.5 86t-42.5 215q20 145 96 279.5t202 224.5t269 90 q74 0 127.5 -41t65.5 -129h4l68 131h123l-283 -594q-31 -68 -35 -98q-8 -53 45 -53q70 0 158 74.5t157.5 191.5t86.5 227q20 147 -45.5 267.5t-190.5 185t-278 64.5q-180 0 -344 -92.5t-269.5 -244t-130.5 -325.5q-25 -180 41 -332.5t204 -243t316 -90.5q152 0 306.5 76 t252.5 195h119q-117 -168 -306 -268.5t-386 -100.5q-217 0 -379 102.5t-235.5 276.5t-42.5 385zM600 573q-12 -86 28 -140t117 -54q90 0 184.5 80t155 186.5t72.5 198.5q29 209 -137 209q-96 0 -191.5 -80t-155 -190t-73.5 -210z" />
<glyph unicode="A" horiz-adv-x="1402" d="M10 0l838 1450h139l406 -1450h-152l-104 385h-768l-217 -385h-142zM440 508h666l-217 795z" />
<glyph unicode="B" horiz-adv-x="1290" d="M199 0l204 1450h418q72 0 132.5 -8t121 -33t98 -65.5t55.5 -111.5q11 -40 11 -88q0 -36 -6 -77q-16 -115 -94 -195.5t-207 -105.5l-2 -4q143 -10 219 -108q60 -76 59 -185q0 -30 -4 -63q-14 -96 -56 -170t-97.5 -118t-127 -72t-134 -37t-127.5 -9h-463zM350 123h309 q113 0 195 27.5t125 73.5t62.5 89t27.5 88q3 25 3 48q0 49 -14 89q-22 60 -68 94t-103.5 51t-124.5 17h-330zM449 823h280q100 0 174 24.5t113 64.5t58.5 78t23.5 77q4 29 4 54q0 99 -62 147q-78 60 -221 59h-299z" />
<glyph unicode="C" horiz-adv-x="1441" d="M207 725q47 334 286.5 548t569.5 214q322 0 467 -227l-123 -93q-51 96 -148.5 146.5t-211.5 50.5q-279 0 -472.5 -181.5t-232.5 -457.5q-8 -59 -9 -114q1 -201 113 -343q142 -182 420 -182q119 0 245 57t214 168l100 -84q-229 -264 -577 -264q-330 0 -509 214 q-142 169 -142 414q0 65 10 134z" />
<glyph unicode="D" horiz-adv-x="1517" d="M180 0l205 1450h449q154 0 274.5 -36t192 -89t120.5 -128t69 -141q22 -68 28 -142q5 -57 4 -93v-21q-2 -40 -7.5 -75t-13.5 -75t-36.5 -114.5t-66.5 -141t-108.5 -141.5t-158 -128t-218.5 -89t-284 -36h-449zM332 123h278q199 0 358.5 62.5t271.5 200.5t140 339 q7 55 7 105q-1 90 -23 164q-36 116 -118.5 188.5t-200 108.5t-265.5 36h-278z" />
<glyph unicode="E" horiz-adv-x="1214" d="M199 0l204 1450h887l-18 -123h-752l-71 -516h704l-18 -123h-705l-80 -565h785l-17 -123h-919z" />
<glyph unicode="F" horiz-adv-x="1138" d="M199 0l204 1450h869l-19 -123h-733l-71 -516h681l-18 -123h-682l-96 -688h-135z" />
<glyph unicode="G" horiz-adv-x="1593" d="M207 725q47 334 286.5 548t569.5 214q326 0 493 -201l-112 -102q-53 80 -166 130t-231 50q-279 0 -472.5 -181.5t-232.5 -457.5q-8 -59 -8 -114q0 -201 112 -343q142 -182 420 -182q260 0 418 86l68 487h-348l18 123h483l-98 -688q-246 -131 -559 -131q-330 0 -509 214 q-142 169 -142 414q0 65 10 134z" />
<glyph unicode="H" horiz-adv-x="1478" d="M199 0l204 1450h136l-90 -639h811l90 639h135l-205 -1450h-135l96 688h-811l-96 -688h-135z" />
<glyph unicode="I" horiz-adv-x="532" d="M199 0l204 1450h136l-205 -1450h-135z" />
<glyph unicode="J" horiz-adv-x="987" d="M51 260l139 25q18 -199 213 -199q137 0 211 83t95 224l149 1057h135l-145 -1024q-8 -66 -20.5 -117t-45 -120.5t-79 -114.5t-128 -78t-190.5 -33q-154 0 -238 79t-96 218z" />
<glyph unicode="K" horiz-adv-x="1251" d="M199 0l204 1450h136l-90 -639h12l792 639h187l-828 -664l664 -786h-195l-630 750h-13l-104 -750h-135z" />
<glyph unicode="L" horiz-adv-x="1024" d="M199 0l204 1450h136l-189 -1327h676l-16 -123h-811z" />
<glyph unicode="M" horiz-adv-x="1820" d="M184 0l205 1450h203l356 -1217l701 1217h192l-205 -1450h-135l180 1278h-4l-733 -1278h-59l-381 1278h-4l-181 -1278h-135z" />
<glyph unicode="N" horiz-adv-x="1593" d="M199 0l204 1450h175l702 -1270h4l180 1270h135l-204 -1450h-174l-705 1270h-4l-178 -1270h-135z" />
<glyph unicode="O" horiz-adv-x="1708" d="M207 725q47 334 286.5 548t569.5 214t510 -214q143 -170 142 -415q0 -64 -9 -133q-47 -334 -286.5 -548t-570.5 -214t-510 214q-142 169 -142 414q0 65 10 134zM342 725q-8 -59 -9 -114q1 -201 113 -343q142 -182 420.5 -182t472 181.5t232.5 457.5q8 59 8 114 q1 201 -111 343q-142 182 -421 182t-472.5 -181.5t-232.5 -457.5z" />
<glyph unicode="P" horiz-adv-x="1175" d="M199 0l204 1450h418q66 0 125.5 -10t118.5 -38t100 -69t61 -109q12 -42 11 -93q0 -31 -4 -64q-16 -125 -92 -213t-177.5 -127t-220.5 -39h-313l-96 -688h-135zM449 811h307q129 0 226 61.5t116 194.5q3 23 3 45q0 98 -68 150q-83 64 -214 65h-299z" />
<glyph unicode="Q" horiz-adv-x="1708" d="M209 743q45 322 277.5 533t562.5 211q219 0 373.5 -98.5t219.5 -267.5q46 -117 46 -253q0 -61 -9 -125q-29 -199 -152.5 -377t-295.5 -239l-2 -4h452l-16 -123h-799q-152 0 -281.5 54.5t-222 149.5t-134.5 236q-27 90 -27 190q0 55 8 113zM344 743q-7 -50 -7 -98 q0 -114 41 -213q60 -141 191 -225t310 -84q137 0 254.5 51t201.5 138t138.5 198t70.5 233q9 60 9 115q0 194 -107 330q-137 176 -413.5 176t-463 -175.5t-225.5 -445.5z" />
<glyph unicode="R" horiz-adv-x="1214" d="M199 0l204 1450h381q37 0 65 -1t85 -8t98 -20.5t90 -42t77 -67.5t43 -101q8 -35 9 -75q0 -32 -6 -66q-10 -80 -43 -143.5t-75 -102.5t-97 -66.5t-104 -41t-103 -19.5l324 -696h-154l-311 688h-252l-96 -688h-135zM449 811h286q100 0 175 25.5t115 67.5t59.5 82t25.5 83 q3 18 3 36q0 24 -5 47q-8 40 -36 82t-96.5 67.5t-168.5 25.5h-287z" />
<glyph unicode="S" horiz-adv-x="1138" d="M135 182l139 86q84 -182 308 -182q139 0 243.5 78t120.5 207q3 21 3 40q1 47 -17 85q-24 53 -72.5 80.5t-112 54t-131 45t-130 51.5t-109.5 75t-69 116q-13 45 -13 98q0 35 6 74q25 184 176.5 290.5t343.5 106.5q256 0 371 -182l-129 -84q-84 143 -262 143 q-139 0 -242.5 -71.5t-122.5 -202.5q-4 -26 -4 -49q0 -47 16 -85q24 -56 72.5 -86t112 -56t131 -43t131 -49t111.5 -71q46 -39 68 -111q13 -42 13 -93q0 -36 -6 -76q-25 -188 -172 -298t-336 -110q-313 0 -438 219z" />
<glyph unicode="T" horiz-adv-x="1175" d="M211 1327l18 123h1127l-19 -123h-495l-187 -1327h-135l187 1327h-496z" />
<glyph unicode="U" horiz-adv-x="1400" d="M242 375v29q0 73 8 151l127 895h135l-123 -860q-8 -70 -9 -132v-8q0 -60 14 -126q16 -70 50.5 -120t103 -84t165 -34t174.5 34t127 84t84 120.5t52 133t26 132.5l122 860h136l-127 -895q-16 -121 -59.5 -223.5t-114 -187.5t-183 -133t-256.5 -48q-115 0 -201.5 32 t-137 87t-81 131t-32.5 162z" />
<glyph unicode="V" horiz-adv-x="1214" d="M199 1450h145l287 -1272l651 1272h143l-755 -1450h-135z" />
<glyph unicode="W" horiz-adv-x="1933" d="M215 1450h139l178 -1284h5l548 1284h172l185 -1284h4l543 1284h139l-627 -1450h-166l-184 1290h-4l-549 -1290h-166z" />
<glyph unicode="X" horiz-adv-x="1251" d="M2 0l651 762l-397 688h160l334 -590l495 590h162l-590 -688l432 -762h-168l-366 655l-551 -655h-162z" />
<glyph unicode="Y" horiz-adv-x="1175" d="M193 1450h161l340 -688l547 688h152l-650 -825l-88 -625h-135l88 625z" />
<glyph unicode="Z" horiz-adv-x="1138" d="M47 0l14 106l1020 1221h-835l18 123h1010l-17 -111l-1026 -1216h877l-16 -123h-1045z" />
<glyph unicode="[" horiz-adv-x="532" d="M106 -319l256 1818h308l-15 -98h-184l-227 -1622h184l-14 -98h-308z" />
<glyph unicode="\" horiz-adv-x="757" d="M219 1487l113 37l401 -1561l-112 -37z" />
<glyph unicode="]" horiz-adv-x="532" d="M29 -319l14 98h184l228 1622h-185l15 98h307l-256 -1818h-307z" />
<glyph unicode="^" horiz-adv-x="1363" d="M242 524l598 926h94l336 -926h-115l-285 815l-512 -815h-116z" />
<glyph unicode="_" horiz-adv-x="1024" d="M-37 -256l14 102h1024l-14 -102h-1024z" />
<glyph unicode="`" horiz-adv-x="491" d="M193 1450h163l170 -295h-102z" />
<glyph unicode="a" horiz-adv-x="1062" d="M158 256q43 317 567 317h143l9 58q3 23 3 44q0 84 -52 129q-64 56 -185 56q-164 0 -303 -106l-61 84q76 61 180 97t200 36q177 0 265 -84q68 -65 68 -185q0 -34 -5 -73l-33 -232q-35 -258 -36 -397h-115v20q0 62 10 134h-4q-129 -178 -358 -179q-63 0 -119 16.5 t-100 48.5t-64 88q-13 36 -14 80q0 23 4 48zM281 262q-2 -14 -2 -27q0 -63 49 -102q59 -47 143 -47q94 0 165 27.5t113 77t65.5 103.5t31.5 118l10 63h-135q-82 0 -153.5 -11t-135 -34.5t-103.5 -67t-48 -100.5z" />
<glyph unicode="b" horiz-adv-x="1251" d="M137 0l217 1548h123l-106 -768h4q66 92 178.5 141.5t226.5 49.5q217 -1 337 -141q96 -113 96 -274q1 -40 -5 -83q-30 -217 -190 -357.5t-379 -140.5q-113 0 -212 49.5t-140 141.5h-4l-23 -166h-123zM314 473q-4 -30 -5 -58q0 -123 81 -215q99 -114 265 -114 q170 0 288 112q117 111 141 275q5 35 5 67q0 120 -68 208q-87 112 -257 112q-166 0 -297 -113.5t-153 -273.5z" />
<glyph unicode="c" horiz-adv-x="985" d="M177 473q30 217 189.5 357.5t378.5 140.5q207 0 328 -164l-108 -74q-98 127 -236 127q-170 0 -287.5 -111.5t-141.5 -275.5q-5 -35 -5 -68q1 -119 69 -207q88 -112 257 -112q147 0 272 131l84 -78q-160 -164 -373 -164q-217 1 -337 141q-96 112 -96 273q0 41 6 84z" />
<glyph unicode="d" horiz-adv-x="1251" d="M177 473q30 217 189.5 357.5t378.5 140.5q113 0 212.5 -49.5t140.5 -141.5h4l106 768h123l-217 -1548h-123l23 166h-4q-66 -92 -178.5 -141.5t-227.5 -49.5q-217 1 -337 141q-96 112 -96 273q0 41 6 84zM300 473q-5 -35 -5 -68q1 -119 69 -207q88 -112 257 -112 q166 0 296 114q131 113 153 273q4 30 4 58q0 123 -80 215q-98 114 -265 114q-170 0 -287.5 -111.5t-141.5 -275.5z" />
<glyph unicode="e" horiz-adv-x="1138" d="M178 475q29 213 182.5 354.5t360.5 141.5q137 0 233 -65q96 -66 130 -166q24 -68 23 -142q0 -34 -5 -70l-12 -86h-795q-6 -25 -1 -61.5t12 -76.5t30.5 -79t56.5 -69.5t87.5 -50t123.5 -19.5q94 0 189.5 46t150.5 122l80 -76q-164 -203 -438 -203q-215 -1 -328 139 q-87 108 -87 265q0 46 7 96zM311 553h672q3 23 3 44q0 99 -68 173q-82 90 -220 90q-76 0 -142.5 -27.5t-108 -66.5t-73.5 -84t-46.5 -78t-16.5 -51z" />
<glyph unicode="f" horiz-adv-x="606" d="M154 836l16 110h197l43 309q12 86 48 152t84 99.5t97 50t98 16.5q86 0 137 -25l-38 -106q-39 20 -109 20q-166 0 -201 -252l-37 -264h222l-17 -110h-221l-117 -836h-123l117 836h-196z" />
<glyph unicode="g" horiz-adv-x="1251" d="M100 -293l109 90q51 -88 142 -133t206 -45q78 0 141.5 19.5t106.5 47t78 71.5t54 80t33.5 84t18.5 73.5t10 58.5l19 131h-4q-68 -86 -167 -135t-218 -49q-209 0 -337 142q-105 118 -105 274q0 34 5 70q27 200 196 342.5t378 142.5q119 0 204 -49.5t128 -135.5h4l22 160 h123l-125 -885q-18 -135 -67 -237.5t-109.5 -160.5t-136.5 -95t-139.5 -48.5t-128.5 -11.5q-143 0 -263 53.5t-178 145.5zM314 486q-4 -29 -4 -57q0 -119 77 -209q94 -109 249 -109t280.5 109.5t147.5 265.5q4 28 4 56q0 119 -77 208q-94 110 -249.5 110t-280.5 -109.5 t-147 -264.5z" />
<glyph unicode="h" horiz-adv-x="1138" d="M164 0l217 1548h123l-107 -768h4q49 82 143.5 136.5t207.5 54.5q311 0 311 -304q0 -48 -8 -104l-80 -563h-123l78 557q7 46 7 86q0 217 -202 217q-143 0 -249.5 -100.5t-133.5 -286.5l-65 -473h-123z" />
<glyph unicode="i" horiz-adv-x="491" d="M184 0l133 946h123l-133 -946h-123zM339 1321q5 39 36 65.5t69 26.5q40 -1 62 -27q18 -22 18 -51q0 -7 -1 -14q-5 -39 -35.5 -65.5t-68.5 -26.5q-37 1 -61 27q-19 22 -20 52q0 6 1 13z" />
<glyph unicode="j" horiz-adv-x="491" d="M-127 -473l33 108q41 -16 76 -16q90 0 126.5 54.5t51.5 150.5l157 1122h123l-155 -1112q-23 -160 -93.5 -243t-224.5 -83q-49 0 -94 19zM339 1321q5 39 36 65.5t69.5 26.5t61.5 -27q18 -21 18 -51q0 -7 -1 -14q-5 -39 -35.5 -65.5t-68.5 -26.5t-61 27q-20 21 -20 52 q0 6 1 13z" />
<glyph unicode="k" horiz-adv-x="985" d="M164 0l217 1548h123l-146 -1032l529 428h180l-549 -432l473 -512h-186l-449 500l-69 -500h-123z" />
<glyph unicode="l" horiz-adv-x="491" d="M184 0l217 1548h123l-217 -1548h-123z" />
<glyph unicode="m" horiz-adv-x="1744" d="M164 0l96 680q4 37 13.5 140.5t13.5 125.5h123q-16 -150 -15 -166h6q49 82 143.5 136.5t207.5 54.5q98 0 167.5 -51.5t88.5 -153.5q55 100 150 152.5t200 52.5q311 0 311 -304q0 -48 -8 -104l-80 -563h-123l78 557q7 46 7 86q0 217 -202 217q-80 0 -144 -31.5t-101 -83 t-58.5 -104.5t-27.5 -109l-76 -532h-123l80 569q6 43 6 80q0 80 -27 133q-39 78 -135 78q-143 0 -249.5 -100.5t-133.5 -286.5l-65 -473h-123z" />
<glyph unicode="n" horiz-adv-x="1138" d="M164 0l96 680q4 37 13.5 140.5t13.5 125.5h123q-16 -150 -15 -166h6q49 82 143.5 136.5t207.5 54.5q311 0 311 -304q0 -48 -8 -104l-80 -563h-123l78 557q7 46 7 86q0 217 -202 217q-143 0 -249.5 -100.5t-133.5 -286.5l-65 -473h-123z" />
<glyph unicode="o" horiz-adv-x="1216" d="M177 473q30 217 189.5 357.5t377.5 140.5q218 -1 338 -141q96 -113 96 -274q0 -40 -6 -83q-30 -217 -189.5 -357.5t-377.5 -140.5q-218 1 -338 141q-96 112 -96 273q0 41 6 84zM300 473q-5 -35 -5 -68q1 -119 69 -207q88 -112 257.5 -112t287 111.5t141.5 275.5 q5 35 4 67q0 120 -68 208q-87 112 -257 112t-287.5 -111.5t-141.5 -275.5z" />
<glyph unicode="p" horiz-adv-x="1251" d="M72 -467l198 1413h123l-22 -166h4q66 92 178.5 141.5t226.5 49.5q217 0 337 -141q96 -112 96 -274q0 -40 -5 -83q-30 -217 -190 -357.5t-379 -140.5q-113 0 -212 49.5t-140 141.5h-4l-88 -633h-123zM314 473q-5 -30 -5 -58q0 -123 81 -215q99 -114 265 -114 q170 0 288 111.5t141 275.5q5 35 5 67q0 121 -68 208q-87 112 -257 112q-166 0 -297 -113.5t-153 -273.5z" />
<glyph unicode="q" horiz-adv-x="1251" d="M177 473q30 217 189.5 357.5t378.5 140.5q113 0 212.5 -49.5t140.5 -141.5h4l22 166h123l-198 -1413h-123l88 633h-4q-66 -92 -178.5 -141.5t-227.5 -49.5q-217 0 -337 141q-96 112 -96 273q0 41 6 84zM300 473q-5 -35 -5 -68q0 -120 69 -207q87 -112 257 -112 q166 0 296 113.5t153 273.5q4 30 4 58q0 123 -80 215q-99 114 -265 114q-170 0 -287.5 -111.5t-141.5 -275.5z" />
<glyph unicode="r" horiz-adv-x="681" d="M164 0l96 680q4 37 13.5 140.5t13.5 125.5h123q-16 -150 -15 -166q131 190 328 191q31 0 70 -10l-31 -121q-25 8 -47 8q-152 0 -244 -92t-113 -240l-71 -516h-123z" />
<glyph unicode="s" horiz-adv-x="872" d="M82 168l119 74q27 -74 96.5 -115t155.5 -41q84 0 157.5 48t83.5 126q1 10 1 20q-1 40 -21 67q-26 34 -72.5 51.5t-105 29.5t-115.5 28.5t-103 41.5q-46 26 -70 76q-16 34 -17 80q0 21 4 44q18 129 125.5 201t236.5 72q242 0 307 -178l-119 -66q-55 133 -204 133 q-74 0 -143.5 -41t-78.5 -110q-2 -12 -2 -22q0 -36 21 -62q27 -33 74 -48.5t105 -27.5t115.5 -27.5t103.5 -41.5t70 -80q16 -35 15 -82q0 -24 -4 -50q-18 -139 -127.5 -216t-255.5 -77q-125 0 -219 48.5t-133 144.5z" />
<glyph unicode="t" horiz-adv-x="681" d="M145 836l17 110h205l39 273h122l-39 -273h271l-17 -110h-270l-86 -617q-2 -13 -2 -26q-1 -45 23 -72q30 -35 92 -35q63 0 143 33l-4 -111q-96 -33 -166 -33q-125 0 -174 68q-38 53 -38 130q0 22 3 46l86 617h-205z" />
<glyph unicode="u" horiz-adv-x="1138" d="M207 383l80 563h123l-78 -557q-7 -47 -7 -86q0 -217 201 -217q143 0 250 100.5t131 286.5l68 473h123l-97 -680q-4 -37 -13 -140t-13 -126h-123q14 133 14 161v5h-6q-49 -82 -144 -136.5t-206 -54.5q-311 0 -311 304q0 48 8 104z" />
<glyph unicode="v" horiz-adv-x="948" d="M164 946h139l201 -813l422 813h125l-506 -946h-127z" />
<glyph unicode="w" horiz-adv-x="1441" d="M164 946h135l119 -792h4l375 792h116l170 -792h4l334 792h123l-411 -946h-127l-175 774h-4l-372 -774h-127z" />
<glyph unicode="x" horiz-adv-x="985" d="M12 0l465 512l-276 434h157l211 -358l312 358h153l-395 -434l334 -512h-160l-270 428l-383 -428h-148z" />
<glyph unicode="y" horiz-adv-x="948" d="M-16 -473l26 115q74 -23 109 -23q59 0 100 43t80 115l117 219l-252 950h137l201 -796l418 796h131l-662 -1239q-106 -199 -289 -199q-51 0 -116 19z" />
<glyph unicode="z" horiz-adv-x="872" d="M55 0l11 74l673 762h-538l16 110h709l-11 -74l-671 -761h590l-17 -111h-762z" />
<glyph unicode="{" horiz-adv-x="681" d="M211 541l14 98q143 0 187 315l43 297q16 117 72.5 182.5t142.5 65.5h102l-14 -98h-47q-57 0 -93 -57.5t-49 -143.5l-39 -289q-10 -74 -36.5 -137t-58.5 -100t-55.5 -56.5t-37.5 -25.5l-2 -4q14 -8 30.5 -26.5t40 -59.5t29.5 -96.5t-2 -137.5l-41 -291q-10 -84 8.5 -141 t77.5 -57h47l-14 -98h-102q-86 0 -124 66.5t-22 180.5l43 299q43 313 -100 314z" />
<glyph unicode="|" horiz-adv-x="454" d="M172 -37l223 1585h99l-224 -1585h-98z" />
<glyph unicode="}" horiz-adv-x="681" d="M76 -319l14 98h47q57 0 93 57.5t49 143.5l38 288q10 74 37 137.5t58.5 100.5t55.5 56.5t38 25.5l2 4q-14 8 -30.5 26.5t-40 59.5t-30 96t2.5 137l39 291q12 84 -6.5 141.5t-77.5 57.5h-48l15 98h102q84 0 123 -66.5t23 -181.5l-43 -299q-43 -313 100 -313l-14 -98 q-143 0 -189 -316l-41 -297q-16 -117 -72.5 -182t-142.5 -65h-102z" />
<glyph unicode="~" horiz-adv-x="1363" d="M291 561q121 184 280 184q16 0 31.5 -2t34 -7t32 -9t35 -13t30.5 -13.5t33 -15.5t30 -13q137 -66 192 -66t100.5 35.5t98.5 103.5l61 -65q-115 -184 -282 -184q-16 0 -31.5 2t-34 7t-32 9t-35 13.5t-29.5 13.5t-32.5 15t-31.5 13q-137 66 -190 66q-55 0 -101.5 -36 t-99.5 -103z" />
<glyph unicode="&#xa1;" horiz-adv-x="757" d="M254 -455l149 1069h123l-149 -1069h-123zM408.5 909q5.5 41 38 70t73.5 29t65.5 -29t19.5 -70t-37.5 -69.5t-74.5 -28.5t-66 28.5t-18.5 69.5z" />
<glyph unicode="&#xa2;" d="M174 477q27 190 162 325.5t323 162.5l21 147h98l-20 -145q197 -2 313 -160l-108 -74q-87 113 -220 123l-108 -770q137 6 256 131l84 -78q-154 -158 -357 -164l-18 -141h-98l20 148q-184 27 -279.5 165t-68.5 330zM297 477q-20 -137 46.5 -245.5t195.5 -135.5l106 758 q-139 -20 -234.5 -128t-113.5 -249z" />
<glyph unicode="&#xa3;" d="M119 0l16 111h215l82 589h-194l16 111h195l32 240q10 74 44 144.5t91.5 135t149.5 104.5t205 40q164 0 276 -115l-94 -98q-88 102 -203 102q-74 0 -136 -28.5t-101 -75t-63.5 -96.5t-31.5 -99l-34 -254h338l-17 -111h-338l-82 -589h502l-16 -111h-852z" />
<glyph unicode="&#xa4;" d="M70 291l133 112q-104 133 -77.5 321.5t167.5 322.5l-100 112l79 76l101 -115q156 109 333 109t302 -109l133 115l59 -76l-133 -112q104 -133 77.5 -321.5t-167.5 -322.5l100 -112l-80 -76l-100 115q-156 -109 -333 -109t-302 109l-133 -115zM248 725 q-23 -162 74.5 -277.5t256 -115.5t289.5 115.5t154 277.5q23 164 -75.5 278.5t-257.5 114.5t-288.5 -114.5t-152.5 -278.5z" />
<glyph unicode="&#xa5;" d="M168 369l14 98h348l23 158l-14 32h-330l14 99h275l-293 694h139l293 -705l500 705h133l-490 -694h275l-15 -99h-329l-23 -32l-22 -158h348l-15 -98h-348l-51 -369h-135l51 369h-348z" />
<glyph unicode="&#xa6;" horiz-adv-x="454" d="M172 -37l84 592h98l-84 -592h-98zM313 956l82 592h99l-82 -592h-99z" />
<glyph unicode="&#xa7;" d="M125 -49l133 61q20 -90 81.5 -137t158.5 -47q100 0 181 53t95 146q8 55 -19.5 100t-76.5 77t-110.5 60.5t-122 62t-108.5 73.5t-72.5 101.5t-14.5 139.5q25 172 254 264q-154 102 -131 260q20 150 146 236t280 86q111 0 193.5 -47t107.5 -146l-129 -69q-39 139 -195 139 q-100 0 -178 -52t-90 -147q-8 -53 18.5 -96t74.5 -73.5t106.5 -59.5t117 -61.5t105.5 -72.5t70.5 -99.5t13.5 -133.5q-25 -170 -219 -270q63 -41 96 -106.5t20 -145.5q-23 -158 -147.5 -250t-280.5 -92q-135 0 -232 61.5t-126 184.5zM385 645q-6 -49 10.5 -85t39 -53 t65.5 -42l194 -107q66 33 120 85.5t63 111.5q16 121 -123 201l-142 84q-209 -66 -227 -195z" />
<glyph unicode="&#xa8;" horiz-adv-x="491" d="M140 1335q5 41 38 70t75 29t65.5 -29t18.5 -70t-38 -69.5t-74 -28.5t-65.5 28.5t-19.5 69.5zM529.5 1335q5.5 41 38 70t74.5 29t65.5 -29t18.5 -70t-38 -69.5t-74 -28.5t-65.5 28.5t-19 69.5z" />
<glyph unicode="&#xa9;" horiz-adv-x="1638" d="M159.5 725q28.5 207 155.5 382t316.5 277.5t396.5 102.5t367.5 -102.5t238.5 -277.5t49.5 -382t-155.5 -382t-317.5 -277.5t-396.5 -102.5t-367.5 102.5t-238.5 277.5t-48.5 382zM270 725q-25 -178 41 -327.5t203 -236.5t315 -87q270 0 487.5 190.5t256.5 460.5 q25 178 -41 327.5t-204 236.5t-316 87q-270 0 -487.5 -190.5t-254.5 -460.5zM500.5 725q29.5 207 165 338t340.5 131q150 0 242.5 -82t92.5 -229h-110q-8 88 -69.5 149.5t-168.5 63.5q-152 0 -255 -106.5t-125.5 -264.5t51 -264.5t225.5 -106.5q109 0 188.5 61.5 t108.5 151.5h110q-41 -147 -157.5 -229t-264.5 -82q-205 0 -304 131t-69.5 338z" />
<glyph unicode="&#xaa;" horiz-adv-x="690" d="M215 1034q8 57 41 98.5t83 61.5t102.5 29.5t113.5 9.5h131l2 18q6 70 -25.5 104t-125.5 34q-104 0 -203 -72l-41 78q109 80 278 80q125 0 178.5 -51.5t36.5 -172.5l-22 -164q-20 -141 -21 -206h-100q0 12 6 94h-4q-82 -106 -227 -107q-96 0 -155.5 41t-47.5 125z M313 1038q-4 -35 37 -59.5t99 -24.5q98 0 155.5 56.5t67.5 122.5l2 14h-78q-266 0 -283 -109z" />
<glyph unicode="&#xab;" horiz-adv-x="985" d="M197 485l340 416l77 -59l-288 -357l192 -360l-98 -55zM537 485l340 416l77 -59l-288 -357l192 -360l-98 -55z" />
<glyph unicode="&#xac;" horiz-adv-x="1363" d="M260 719l14 98h1045l-76 -543h-98l61 445h-946z" />
<glyph unicode="&#xad;" horiz-adv-x="681" d="M150 430l14 111h506l-15 -111h-505z" />
<glyph unicode="&#xae;" horiz-adv-x="1638" d="M159.5 725q28.5 207 155.5 382t316.5 277.5t396.5 102.5t367.5 -102.5t238.5 -277.5t49.5 -382t-155.5 -382t-317.5 -277.5t-396.5 -102.5t-367.5 102.5t-238.5 277.5t-48.5 382zM270 725q-25 -178 41 -327.5t203 -236.5t315 -87q270 0 487.5 190.5t256.5 460.5 q25 178 -41 327.5t-204 236.5t-316 87q-270 0 -487.5 -190.5t-254.5 -460.5zM584 289l123 878h337q145 0 203 -61.5t39 -181.5q-29 -211 -256 -250l209 -385h-125l-209 385h-157l-54 -385h-110zM762 772h141q45 0 74 2t67.5 10.5t62 23.5t44 45t25.5 71q12 78 -40.5 111.5 t-136.5 33.5h-196z" />
<glyph unicode="&#xaf;" horiz-adv-x="491" d="M150 1241l14 98h541l-15 -98h-540z" />
<glyph unicode="&#xb0;" horiz-adv-x="819" d="M281 1182q18 123 115.5 208t220 85t197.5 -85t56 -208q-16 -125 -114.5 -211t-221 -86t-196.5 86t-57 211zM379 1180q-12 -82 38 -139.5t131 -57.5t146.5 57.5t77.5 139.5t-38 139t-131 57t-146.5 -57t-77.5 -139z" />
<glyph unicode="&#xb1;" horiz-adv-x="1363" d="M182 98l13 99h1028l-13 -99h-1028zM254 670l14 98h467l51 375h99l-51 -375h479l-15 -98h-479l-53 -375h-98l53 375h-467z" />
<glyph unicode="&#xb2;" horiz-adv-x="692" d="M131 592l12 88l400 344q55 47 80.5 71.5t52 65.5t33.5 86q8 57 -33 93t-123 36q-135 0 -193 -121l-102 9q39 109 130 160t183 51q123 0 193 -60.5t55 -163.5q-6 -47 -26.5 -90t-58.5 -85t-65.5 -67.5t-82.5 -70.5l-295 -248h450l-12 -98h-598z" />
<glyph unicode="&#xb3;" horiz-adv-x="692" d="M162 762l102 37q29 -121 172 -121q70 0 134.5 47t72.5 109q12 90 -46 127.5t-161 37.5h-35l13 99h47q76 0 140.5 38t76.5 115q8 53 -31 89t-110 36q-119 0 -195 -102l-72 51q115 150 281 150q115 0 183.5 -61.5t53.5 -160.5q-10 -70 -65 -124t-131 -78v-4q86 -12 130 -74 t32 -146q-16 -113 -109.5 -180t-222.5 -67q-215 0 -260 182z" />
<glyph unicode="&#xb4;" horiz-adv-x="491" d="M289 1155l256 295h164l-318 -295h-102z" />
<glyph unicode="&#xb6;" horiz-adv-x="1228" d="M270 1049q27 193 162 297t352 104h465l-241 -1708h-123l227 1610h-252l-227 -1610h-123l129 920q-178 0 -284.5 113.5t-84.5 273.5z" />
<glyph unicode="&#xb7;" horiz-adv-x="532" d="M260 651q6 41 38 70t74 29t66.5 -29t18.5 -70t-39 -69.5t-74 -28.5t-65.5 28.5t-18.5 69.5z" />
<glyph unicode="&#xb8;" horiz-adv-x="491" d="M12 -399l37 65q61 -35 152 -35q47 0 91 22.5t50 65.5t-25.5 64.5t-76.5 21.5q-49 0 -93 -16l-28 31l153 180h78l-114 -131l4 -4q27 14 65 14q70 0 114 -39t36 -108q-12 -86 -88 -130t-166 -44q-102 0 -189 43z" />
<glyph unicode="&#xb9;" horiz-adv-x="692" d="M317 1286l250 176h111l-121 -870h-111l107 760l-195 -135z" />
<glyph unicode="&#xba;" horiz-adv-x="790" d="M234.5 1171.5q19.5 135.5 120 219.5t245.5 84q143 0 224 -83t61 -221q-18 -133 -123 -218t-246 -85q-147 0 -224 84t-57.5 219.5zM331.5 1171.5q-12.5 -88.5 43 -153t153 -64.5t172 63.5t86.5 153.5q14 94 -41 156t-157 62q-96 0 -170 -64.5t-86.5 -153z" />
<glyph unicode="&#xbb;" horiz-adv-x="985" d="M168 129l287 356l-191 361l98 55l222 -416l-338 -415zM508 129l287 356l-191 361l98 55l222 -416l-338 -415z" />
<glyph unicode="&#xbc;" horiz-adv-x="1593" d="M233 -12l1149 1532l86 -58l-1151 -1532zM254 1286l250 176h110l-120 -870h-111l106 760l-194 -135zM918 209l14 92l459 567h120l-79 -561h131l-15 -98h-131l-28 -209h-111l29 209h-389zM1042 307h279l57 414h-4z" />
<glyph unicode="&#xbd;" horiz-adv-x="1593" d="M215 -12l1149 1532l86 -58l-1151 -1532zM238 1286l249 176h111l-121 -870h-110l106 760l-194 -135zM938 0l12 88l402 344q53 47 78.5 71.5t52 65.5t33.5 86q8 57 -33 93t-121 36q-137 0 -193 -120l-104 8q41 109 131 160t184 51q121 0 190.5 -60.5t55.5 -163.5 q-6 -47 -25.5 -90t-58.5 -85t-66.5 -67.5t-80.5 -70.5l-295 -248h450l-14 -98h-598z" />
<glyph unicode="&#xbe;" horiz-adv-x="1593" d="M147 762l105 37q29 -121 172 -121q70 0 134.5 47t72.5 109q12 90 -46.5 127.5t-160.5 37.5h-35l12 99h48q80 6 143 41t74 112q8 53 -31 89t-111 36q-119 0 -194 -102l-72 51q115 150 281 150q115 0 183.5 -61.5t53.5 -160.5q-10 -70 -65.5 -124t-130.5 -78v-4 q86 -12 130 -74t31 -146q-16 -113 -109 -180t-222 -67q-215 0 -263 182zM338 -12l1149 1532l86 -58l-1151 -1532zM950 209l15 92l458 567h121l-80 -561h131l-14 -98h-131l-29 -209h-110l28 209h-389zM1071 307h279l57 414h-4z" />
<glyph unicode="&#xbf;" horiz-adv-x="948" d="M55 -139q14 94 58.5 166.5t99.5 120t110.5 90.5t98.5 105.5t53 139.5l19 131h122l-24 -172q-10 -76 -51 -137t-94.5 -106t-106.5 -90.5t-95 -106.5t-52 -135q-16 -111 39 -179.5t165 -68.5q104 0 184.5 64.5t116.5 173.5l131 -17q-49 -154 -169.5 -243t-276.5 -89 q-166 0 -258 94.5t-70 258.5zM497 909q5 41 37.5 70t73.5 29t65.5 -29t19.5 -70t-37.5 -69.5t-74.5 -28.5t-65.5 28.5t-18.5 69.5z" />
<glyph unicode="&#xc0;" horiz-adv-x="1402" d="M10 0l838 1450h139l406 -1450h-152l-104 385h-768l-217 -385h-142zM440 508h666l-217 795zM702 1835h164l170 -295h-102z" />
<glyph unicode="&#xc1;" horiz-adv-x="1402" d="M10 0l838 1450h139l406 -1450h-152l-104 385h-768l-217 -385h-142zM440 508h666l-217 795zM799 1540l256 295h164l-318 -295h-102z" />
<glyph unicode="&#xc2;" horiz-adv-x="1402" d="M10 0l838 1450h139l406 -1450h-152l-104 385h-768l-217 -385h-142zM440 508h666l-217 795zM625 1540l264 295h143l178 -295h-133l-135 221l-197 -221h-120z" />
<glyph unicode="&#xc3;" horiz-adv-x="1402" d="M10 0l838 1450h139l406 -1450h-152l-104 385h-768l-217 -385h-142zM440 508h666l-217 795zM604 1575q23 82 74 139q61 70 139 70q55 0 146 -51q88 -47 122 -47q78 0 113 98h74q-23 -86 -75 -148q-52 -61 -126 -61q-47 0 -147 49q-8 4 -33 16t-35 18q-10 5 -29 10 q-18 5 -32 5q-80 0 -117 -98h-74z" />
<glyph unicode="&#xc4;" horiz-adv-x="1402" d="M10 0l838 1450h139l406 -1450h-152l-104 385h-768l-217 -385h-142zM440 508h666l-217 795zM650 1720q5 41 38 70t75 29t65 -29q24 -29 19 -70t-38 -69q-33 -29 -74 -29t-65 29q-25 28 -20 69zM1039 1720q5 41 38 70t75 29t66 -29t18 -70q-5 -41 -38 -69q-33 -29 -74 -29 t-65 29q-25 28 -20 69z" />
<glyph unicode="&#xc5;" horiz-adv-x="1402" d="M10 0l838 1450h139l406 -1450h-152l-104 385h-768l-217 -385h-142zM440 508h666l-217 795zM753 1714q11 80 75 137q65 57 145 58q78 0 124 -60q46 -59 36 -137q-10 -76 -74 -134q-63 -58 -141 -58q-80 0 -128 57t-37 137zM825 1712q-6 -51 23 -85t78 -34t88 35t46 86 t-22 86t-79 35t-88 -36t-46 -87z" />
<glyph unicode="&#xc6;" horiz-adv-x="1896" d="M-10 0l1149 1450h825l-18 -123h-600l-72 -516h565l-18 -123h-566l-79 -565h616l-16 -123h-752l53 385h-639l-305 -385h-143zM537 508h559l114 819h-24z" />
<glyph unicode="&#xc7;" horiz-adv-x="1441" d="M207 725q47 334 287 548t569 214q322 0 467 -227l-123 -93q-51 96 -149 147q-97 50 -211 50q-279 0 -473 -181t-232 -458q-39 -276 103 -458q142 -181 421 -181q119 0 245 57t214 168l100 -84q-229 -264 -577 -264q-330 0 -509 214t-132 548zM487 -399l37 65 q61 -35 152 -35q47 0 91 23t50 65q6 43 -25 65q-32 22 -77 21q-49 0 -92 -16l-29 31l154 180h77l-114 -131l4 -4q27 14 65 14q70 0 114 -39t36 -108q-12 -86 -88 -130t-166 -44q-102 0 -189 43z" />
<glyph unicode="&#xc8;" horiz-adv-x="1214" d="M199 0l204 1450h887l-18 -123h-752l-71 -516h704l-18 -123h-705l-80 -565h785l-17 -123h-919zM608 1835h164l170 -295h-102z" />
<glyph unicode="&#xc9;" horiz-adv-x="1214" d="M199 0l204 1450h887l-18 -123h-752l-71 -516h704l-18 -123h-705l-80 -565h785l-17 -123h-919zM705 1540l256 295h163l-317 -295h-102z" />
<glyph unicode="&#xca;" horiz-adv-x="1214" d="M199 0l204 1450h887l-18 -123h-752l-71 -516h704l-18 -123h-705l-80 -565h785l-17 -123h-919zM530 1540l265 295h143l178 -295h-133l-135 221l-197 -221h-121z" />
<glyph unicode="&#xcb;" horiz-adv-x="1214" d="M199 0l204 1450h887l-18 -123h-752l-71 -516h704l-18 -123h-705l-80 -565h785l-17 -123h-919zM556 1720q5 41 38 70t75 29t65 -29q24 -29 19 -70t-38 -69q-33 -29 -74 -29t-66 29q-24 28 -19 69zM945 1720q5 41 38 70t75 29t65 -29q24 -29 19 -70t-38 -69 q-33 -29 -74 -29t-65 29q-25 28 -20 69z" />
<glyph unicode="&#xcc;" horiz-adv-x="532" d="M199 0l204 1450h136l-205 -1450h-135zM266 1835h164l170 -295h-102z" />
<glyph unicode="&#xcd;" horiz-adv-x="532" d="M199 0l204 1450h136l-205 -1450h-135zM362 1540l256 295h164l-317 -295h-103z" />
<glyph unicode="&#xce;" horiz-adv-x="532" d="M188 1540l265 295h143l178 -295h-133l-135 221l-197 -221h-121zM199 0l204 1450h136l-205 -1450h-135z" />
<glyph unicode="&#xcf;" horiz-adv-x="532" d="M199 0l204 1450h136l-205 -1450h-135zM214 1720q5 41 38 70t75 29t65 -29q24 -29 19 -70t-38 -69q-33 -29 -74 -29t-66 29q-24 28 -19 69zM603 1720q5 41 38 70t75 29t65 -29q24 -29 19 -70t-38 -69q-33 -29 -74 -29t-65 29q-25 28 -20 69z" />
<glyph unicode="&#xd0;" horiz-adv-x="1517" d="M119 700l16 111h160l90 639h449q154 0 274.5 -36t192 -89t120.5 -128t69.5 -141.5t27 -141t4.5 -114.5t-7.5 -75t-13.5 -75t-36.5 -114.5t-66.5 -141t-108.5 -141.5t-158 -128t-218.5 -89t-284 -36h-449l99 700h-160zM332 123h278q199 0 358.5 62.5t271.5 200.5t140 339 q20 152 -15.5 268.5t-118.5 189t-200.5 108.5t-265.5 36h-278l-72 -516h528l-16 -111h-528z" />
<glyph unicode="&#xd1;" horiz-adv-x="1593" d="M199 0l204 1450h175l702 -1270h4l180 1270h135l-204 -1450h-174l-705 1270h-4l-178 -1270h-135zM698 1575q23 82 74 139q61 70 139 70q55 0 146 -51q88 -47 123 -47q78 0 112 98h74q-23 -86 -75 -148q-52 -61 -126 -61q-47 0 -147 49q-8 4 -33 16t-35 18q-10 5 -28 10 t-33 5q-80 0 -117 -98h-74z" />
<glyph unicode="&#xd2;" horiz-adv-x="1708" d="M207 725q47 334 287 548t569 214q330 0 510 -214t133 -548t-287 -548t-570 -214q-331 0 -510 214t-132 548zM342 725q-39 -276 103 -458q142 -181 421 -181t472 181q194 181 233 458q39 276 -104 458q-142 181 -420 181q-279 0 -473 -181q-193 -182 -232 -458zM854 1835 h164l170 -295h-103z" />
<glyph unicode="&#xd3;" horiz-adv-x="1708" d="M207 725q47 334 287 548t569 214q330 0 510 -214t133 -548t-287 -548t-570 -214q-331 0 -510 214t-132 548zM342 725q-39 -276 103 -458q142 -181 421 -181t472 181q194 181 233 458q39 276 -104 458q-142 181 -420 181q-279 0 -473 -181q-193 -182 -232 -458zM950 1540 l256 295h164l-317 -295h-103z" />
<glyph unicode="&#xd4;" horiz-adv-x="1708" d="M207 725q47 334 287 548t569 214q330 0 510 -214t133 -548t-287 -548t-570 -214q-331 0 -510 214t-132 548zM342 725q-39 -276 103 -458q142 -181 421 -181t472 181q194 181 233 458q39 276 -104 458q-142 181 -420 181q-279 0 -473 -181q-193 -182 -232 -458zM776 1540 l264 295h144l178 -295h-133l-135 221l-197 -221h-121z" />
<glyph unicode="&#xd5;" horiz-adv-x="1708" d="M207 725q47 334 287 548t569 214q330 0 510 -214t133 -548t-287 -548t-570 -214q-331 0 -510 214t-132 548zM342 725q-39 -276 103 -458q142 -181 421 -181t472 181q194 181 233 458q39 276 -104 458q-142 181 -420 181q-279 0 -473 -181q-193 -182 -232 -458zM756 1575 q23 82 73 139q61 70 140 70q55 0 145 -51q88 -47 123 -47q78 0 113 98h73q-23 -86 -74 -148q-52 -61 -126 -61q-47 0 -148 49q-8 4 -33 16t-34 18q-10 5 -29 10q-18 5 -33 5q-80 0 -117 -98h-73z" />
<glyph unicode="&#xd6;" horiz-adv-x="1708" d="M207 725q47 334 287 548t569 214q330 0 510 -214t133 -548t-287 -548t-570 -214q-331 0 -510 214t-132 548zM342 725q-39 -276 103 -458q142 -181 421 -181t472 181q194 181 233 458q39 276 -104 458q-142 181 -420 181q-279 0 -473 -181q-193 -182 -232 -458zM802 1720 q5 41 38 70t74 29q42 0 66 -29t18 -70q-5 -41 -37 -69q-33 -29 -74 -29t-66 29q-24 28 -19 69zM1191 1720q5 41 38 70t75 29t65 -29q24 -29 19 -70t-38 -69q-33 -29 -74 -29t-66 29q-24 28 -19 69z" />
<glyph unicode="&#xd7;" horiz-adv-x="1363" d="M236 215l466 406l-350 405l80 70l348 -406l465 406l58 -70l-463 -405l348 -406l-80 -70l-346 408l-465 -408z" />
<glyph unicode="&#xd8;" horiz-adv-x="1708" d="M143 31l181 168q-162 209 -117 526q47 334 286.5 548t569.5 214q281 0 459 -162l174 166l61 -64l-176 -165q170 -211 125 -537q-47 -334 -286.5 -548t-571.5 -214q-289 0 -465 170l-176 -166zM342 725q-37 -260 84 -430l993 936q-143 133 -372 133q-279 0 -472.5 -181.5 t-232.5 -457.5zM483 227q139 -141 383 -141q279 0 472.5 181.5t232.5 457.5q37 268 -92 440z" />
<glyph unicode="&#xd9;" horiz-adv-x="1400" d="M242 375q-2 86 8 180l127 895h135l-123 -860q-8 -70 -9 -132t14 -133t50 -121t104 -84t165 -34t174 34t127 84t84 121t52 133t26 132l122 860h136l-127 -895q-16 -121 -60 -223q-43 -102 -113 -188q-71 -85 -184 -133t-256 -48q-115 0 -201 32q-87 32 -138 87 q-50 55 -81 131t-32 162zM700 1835h164l170 -295h-102z" />
<glyph unicode="&#xda;" horiz-adv-x="1400" d="M242 375q-2 86 8 180l127 895h135l-123 -860q-8 -70 -9 -132t14 -133t50 -121t104 -84t165 -34t174 34t127 84t84 121t52 133t26 132l122 860h136l-127 -895q-16 -121 -60 -223q-43 -102 -113 -188q-71 -85 -184 -133t-256 -48q-115 0 -201 32q-87 32 -138 87 q-50 55 -81 131t-32 162zM797 1540l256 295h164l-318 -295h-102z" />
<glyph unicode="&#xdb;" horiz-adv-x="1400" d="M242 375q-2 86 8 180l127 895h135l-123 -860q-8 -70 -9 -132t14 -133t50 -121t104 -84t165 -34t174 34t127 84t84 121t52 133t26 132l122 860h136l-127 -895q-16 -121 -60 -223q-43 -102 -113 -188q-71 -85 -184 -133t-256 -48q-115 0 -201 32q-87 32 -138 87 q-50 55 -81 131t-32 162zM623 1540l264 295h143l178 -295h-133l-135 221l-197 -221h-120z" />
<glyph unicode="&#xdc;" horiz-adv-x="1400" d="M242 375q-2 86 8 180l127 895h135l-123 -860q-8 -70 -9 -132t14 -133t50 -121t104 -84t165 -34t174 34t127 84t84 121t52 133t26 132l122 860h136l-127 -895q-16 -121 -60 -223q-43 -102 -113 -188q-71 -85 -184 -133t-256 -48q-115 0 -201 32q-87 32 -138 87 q-50 55 -81 131t-32 162zM648 1720q5 41 38 70t75 29t65 -29q24 -29 19 -70t-38 -69q-33 -29 -74 -29t-65 29q-25 28 -20 69zM1037 1720q5 41 38 70t75 29t65 -29q24 -29 19 -70t-38 -69q-33 -29 -74 -29t-65 29q-25 28 -20 69z" />
<glyph unicode="&#xdd;" horiz-adv-x="1175" d="M193 1450h161l340 -688l547 688h152l-650 -825l-88 -625h-135l88 625zM684 1540l256 295h164l-318 -295h-102z" />
<glyph unicode="&#xde;" horiz-adv-x="1175" d="M199 0l204 1450h134l-45 -320h284q66 0 126.5 -10t119.5 -37.5t99 -68.5t59.5 -109.5t7.5 -156.5q-16 -125 -92 -213.5t-177.5 -127t-220.5 -38.5h-313l-51 -369h-135zM403 492h308q129 0 226 61t116 195q18 131 -65 195.5t-214 64.5h-299z" />
<glyph unicode="&#xdf;" horiz-adv-x="1214" d="M164 0l153 1094q31 215 163 347t337 132q166 0 259 -97.5t69 -269.5q-16 -119 -84 -202.5t-164 -112.5v-4q317 -61 264 -434q-31 -217 -188.5 -341t-382.5 -124q-55 0 -94 10l16 119q43 -18 106 -19q166 0 282 96.5t138 256.5q25 182 -72.5 279t-260.5 97h-43l14 111h31 q125 0 211 71.5t102 192.5q18 125 -46.5 192.5t-182.5 67.5q-156 0 -242 -107.5t-111 -279.5l-151 -1075h-123z" />
<glyph unicode="&#xe0;" horiz-adv-x="1062" d="M158 256q43 317 567 317h143l9 58q16 117 -49 173t-185 56q-164 0 -303 -106l-61 84q76 61 180 97t200 36q178 0 266 -84q87 -84 62 -258l-33 -232q-35 -258 -36 -397h-115q-2 70 10 154h-4q-129 -178 -358 -179q-63 0 -119 17q-55 16 -100 48q-44 32 -64 88t-10 128z M281 262q-12 -82 47 -129t143 -47q94 0 165 28t113 76q42 49 65 104q24 54 32 118l10 63h-135q-82 0 -154 -11t-135 -35t-103 -67t-48 -100zM479 1450h164l170 -295h-102z" />
<glyph unicode="&#xe1;" horiz-adv-x="1062" d="M158 256q43 317 567 317h143l9 58q16 117 -49 173t-185 56q-164 0 -303 -106l-61 84q76 61 180 97t200 36q178 0 266 -84q87 -84 62 -258l-33 -232q-35 -258 -36 -397h-115q-2 70 10 154h-4q-129 -178 -358 -179q-63 0 -119 17q-55 16 -100 48q-44 32 -64 88t-10 128z M281 262q-12 -82 47 -129t143 -47q94 0 165 28t113 76q42 49 65 104q24 54 32 118l10 63h-135q-82 0 -154 -11t-135 -35t-103 -67t-48 -100zM575 1155l256 295h164l-317 -295h-103z" />
<glyph unicode="&#xe2;" horiz-adv-x="1062" d="M158 256q43 317 567 317h143l9 58q16 117 -49 173t-185 56q-164 0 -303 -106l-61 84q76 61 180 97t200 36q178 0 266 -84q87 -84 62 -258l-33 -232q-35 -258 -36 -397h-115q-2 70 10 154h-4q-129 -178 -358 -179q-63 0 -119 17q-55 16 -100 48q-44 32 -64 88t-10 128z M281 262q-12 -82 47 -129t143 -47q94 0 165 28t113 76q42 49 65 104q24 54 32 118l10 63h-135q-82 0 -154 -11t-135 -35t-103 -67t-48 -100zM401 1155l265 295h143l178 -295h-133l-135 221l-197 -221h-121z" />
<glyph unicode="&#xe3;" horiz-adv-x="1062" d="M158 256q43 317 567 317h143l9 58q16 117 -49 173t-185 56q-164 0 -303 -106l-61 84q76 61 180 97t200 36q178 0 266 -84q87 -84 62 -258l-33 -232q-35 -258 -36 -397h-115q-2 70 10 154h-4q-129 -178 -358 -179q-63 0 -119 17q-55 16 -100 48q-44 32 -64 88t-10 128z M281 262q-12 -82 47 -129t143 -47q94 0 165 28t113 76q42 49 65 104q24 54 32 118l10 63h-135q-82 0 -154 -11t-135 -35t-103 -67t-48 -100zM381 1190q23 82 74 139q61 70 139 70q55 0 145 -51q88 -47 123 -48q78 0 113 99h74q-23 -86 -75 -148q-52 -61 -126 -61 q-47 0 -148 49l-32 16q-25 12 -35 18q-10 5 -29 10q-18 5 -33 5q-79 0 -116 -98h-74z" />
<glyph unicode="&#xe4;" horiz-adv-x="1062" d="M158 256q43 317 567 317h143l9 58q16 117 -49 173t-185 56q-164 0 -303 -106l-61 84q76 61 180 97t200 36q178 0 266 -84q87 -84 62 -258l-33 -232q-35 -258 -36 -397h-115q-2 70 10 154h-4q-129 -178 -358 -179q-63 0 -119 17q-55 16 -100 48q-44 32 -64 88t-10 128z M281 262q-12 -82 47 -129t143 -47q94 0 165 28t113 76q42 49 65 104q24 54 32 118l10 63h-135q-82 0 -154 -11t-135 -35t-103 -67t-48 -100zM427 1335q5 41 38 70t75 29t65 -29q24 -29 19 -70t-38 -69q-33 -29 -74 -29t-66 29q-24 28 -19 69zM816 1335q5 41 38 70t75 29 t65 -29q24 -29 19 -70t-38 -69q-33 -29 -74 -29t-65 29q-25 28 -20 69z" />
<glyph unicode="&#xe5;" horiz-adv-x="1062" d="M158 256q43 317 567 317h143l9 58q16 117 -49 173t-185 56q-164 0 -303 -106l-61 84q76 61 180 97t200 36q178 0 266 -84q87 -84 62 -258l-33 -232q-35 -258 -36 -397h-115q-2 70 10 154h-4q-129 -178 -358 -179q-63 0 -119 17q-55 16 -100 48q-44 32 -64 88t-10 128z M281 262q-12 -82 47 -129t143 -47q94 0 165 28t113 76q42 49 65 104q24 54 32 118l10 63h-135q-82 0 -154 -11t-135 -35t-103 -67t-48 -100zM529 1329q11 80 76 137t145 58q78 0 123 -60q46 -59 36 -137q-10 -76 -73 -134t-142 -58q-80 0 -128 57t-37 137zM602 1327 q-6 -51 23 -85t77 -34q49 0 89 35q39 35 46 86t-22 86t-79 35t-88 -36t-46 -87z" />
<glyph unicode="&#xe6;" horiz-adv-x="1744" d="M147 256q4 41 19.5 78t51.5 79t88 71.5t140.5 49t198.5 19.5h236l2 18q41 289 -250 289q-164 0 -303 -106l-62 84q76 61 180.5 97t200.5 36q135 0 219 -45t121 -152q63 92 167 144.5t208 52.5q186 0 290.5 -114t71.5 -343l-10 -72h-729q-27 -152 46 -254t233 -102 q176 0 293 152l88 -70q-96 -104 -191.5 -148.5t-226.5 -44.5q-129 0 -218 57.5t-122 176.5q-143 -233 -449 -234q-63 0 -118.5 16.5t-99.5 48.5t-64.5 88t-10.5 128zM270 262q-12 -82 47.5 -129t143.5 -47q180 0 281.5 99t121.5 257h-239q-100 0 -174 -19.5t-110 -50 t-51.5 -57t-19.5 -53.5zM1004 553h606q16 137 -46.5 222t-211.5 85q-137 0 -233.5 -89t-114.5 -218z" />
<glyph unicode="&#xe7;" horiz-adv-x="985" d="M177 473q30 217 190 357t378 141q207 0 328 -164l-108 -74q-98 127 -236 127q-170 0 -288 -111q-118 -112 -141 -276q-24 -164 64 -275q87 -112 257 -112q147 0 272 131l84 -78q-160 -164 -373 -164q-217 0 -337 141q-120 140 -90 357zM260 -399l37 65q61 -35 152 -35 q47 0 91 23t50 65q6 43 -26 65t-77 21q-49 0 -92 -16l-28 31l153 180h78l-115 -131l4 -4q27 14 66 14q70 0 114 -39t35 -108q-12 -86 -88 -130t-165 -44q-102 0 -189 43z" />
<glyph unicode="&#xe8;" horiz-adv-x="1138" d="M178 475q29 213 182 354q154 141 361 142q137 0 232 -66t130 -165t19 -212l-12 -86h-795q-6 -25 -1 -61q5 -37 12 -77t31 -79t56 -69q33 -31 87 -51q54 -19 124 -19q94 0 190 46q95 46 150 122l80 -76q-164 -203 -438 -203q-215 0 -328 140q-113 139 -80 360zM311 553 h672q18 127 -64 217q-83 90 -221 90q-76 0 -142 -27q-67 -28 -109 -67t-73 -84q-32 -45 -46 -78q-15 -33 -17 -51zM516 1450h164l170 -295h-102z" />
<glyph unicode="&#xe9;" horiz-adv-x="1138" d="M178 475q29 213 182 354q154 141 361 142q137 0 232 -66t130 -165t19 -212l-12 -86h-795q-6 -25 -1 -61q5 -37 12 -77t31 -79t56 -69q33 -31 87 -51q54 -19 124 -19q94 0 190 46q95 46 150 122l80 -76q-164 -203 -438 -203q-215 0 -328 140q-113 139 -80 360zM311 553 h672q18 127 -64 217q-83 90 -221 90q-76 0 -142 -27q-67 -28 -109 -67t-73 -84q-32 -45 -46 -78q-15 -33 -17 -51zM612 1155l256 295h164l-317 -295h-103z" />
<glyph unicode="&#xea;" horiz-adv-x="1138" d="M178 475q29 213 182 354q154 141 361 142q137 0 232 -66t130 -165t19 -212l-12 -86h-795q-6 -25 -1 -61q5 -37 12 -77t31 -79t56 -69q33 -31 87 -51q54 -19 124 -19q94 0 190 46q95 46 150 122l80 -76q-164 -203 -438 -203q-215 0 -328 140q-113 139 -80 360zM311 553 h672q18 127 -64 217q-83 90 -221 90q-76 0 -142 -27q-67 -28 -109 -67t-73 -84q-32 -45 -46 -78q-15 -33 -17 -51zM438 1155l264 295h144l178 -295h-133l-135 221l-197 -221h-121z" />
<glyph unicode="&#xeb;" horiz-adv-x="1138" d="M178 475q29 213 182 354q154 141 361 142q137 0 232 -66t130 -165t19 -212l-12 -86h-795q-6 -25 -1 -61q5 -37 12 -77t31 -79t56 -69q33 -31 87 -51q54 -19 124 -19q94 0 190 46q95 46 150 122l80 -76q-164 -203 -438 -203q-215 0 -328 140q-113 139 -80 360zM311 553 h672q18 127 -64 217q-83 90 -221 90q-76 0 -142 -27q-67 -28 -109 -67t-73 -84q-32 -45 -46 -78q-15 -33 -17 -51zM464 1335q5 41 38 70t75 29t65 -29q24 -29 18 -70q-5 -41 -37 -69q-33 -29 -74 -29t-66 29q-24 28 -19 69zM853 1335q5 41 38 70t75 29t65 -29q24 -29 19 -70 t-38 -69q-33 -29 -74 -29t-66 29q-24 28 -19 69z" />
<glyph unicode="&#xec;" horiz-adv-x="491" d="M184 0l133 946h123l-133 -946h-123zM193 1450h163l170 -295h-102z" />
<glyph unicode="&#xed;" horiz-adv-x="491" d="M184 0l133 946h123l-133 -946h-123zM289 1155l256 295h164l-318 -295h-102z" />
<glyph unicode="&#xee;" horiz-adv-x="491" d="M115 1155l264 295h143l178 -295h-133l-135 221l-196 -221h-121zM184 0l133 946h123l-133 -946h-123z" />
<glyph unicode="&#xef;" horiz-adv-x="491" d="M140 1335q5 41 38 70t75 29t65 -29q24 -29 19 -70t-38 -69q-33 -29 -74 -29t-65 29q-25 28 -20 69zM184 0l133 946h123l-133 -946h-123zM529 1335q5 41 38 70t75 29t66 -29t18 -70q-5 -41 -38 -69q-33 -29 -74 -29t-65 29q-25 28 -20 69z" />
<glyph unicode="&#xf0;" horiz-adv-x="1216" d="M177 473q30 217 189.5 357.5t378.5 140.5q180 0 289 -113l4 4q-109 258 -270 424l-236 -117l-53 68l230 115q-100 104 -170 159l114 62q102 -84 172 -164l230 115l63 -62l-233 -116q358 -375 295 -822q-35 -252 -195 -400.5t-381 -148.5q-217 0 -337 140.5t-90 357.5z M300 473q-24 -164 63.5 -275.5t257.5 -111.5t287.5 111.5t141 275.5t-63.5 275.5t-257 111.5t-287.5 -111.5t-141.5 -275.5z" />
<glyph unicode="&#xf1;" horiz-adv-x="1138" d="M164 0l96 680q4 37 13 140t14 126h123q-16 -150 -15 -166h6q49 82 144 136q94 54 207 55q360 0 303 -408l-80 -563h-123l78 557q43 303 -195 303q-143 0 -250 -100q-106 -100 -133 -287l-65 -473h-123zM418 1190q23 82 74 139q61 70 139 70q55 0 145 -51q88 -47 123 -48 q78 0 113 99h73q-23 -86 -74 -148q-52 -61 -126 -61q-47 0 -148 49l-32 16q-25 12 -35 18q-10 5 -29 10q-18 5 -33 5q-79 0 -116 -98h-74z" />
<glyph unicode="&#xf2;" horiz-adv-x="1216" d="M177 473q30 217 190 357t377 141q218 0 338 -141q120 -140 90 -357t-189 -357q-160 -140 -378 -141q-218 0 -338 141q-120 140 -90 357zM300 473q-24 -164 64 -275q87 -112 257 -112t287 112q118 112 142 275q24 164 -64 276q-87 112 -257 111q-170 0 -288 -111 q-117 -112 -141 -276zM555 1450h164l170 -295h-103z" />
<glyph unicode="&#xf3;" horiz-adv-x="1216" d="M177 473q30 217 190 357t377 141q218 0 338 -141q120 -140 90 -357t-189 -357q-160 -140 -378 -141q-218 0 -338 141q-120 140 -90 357zM300 473q-24 -164 64 -275q87 -112 257 -112t287 112q118 112 142 275q24 164 -64 276q-87 112 -257 111q-170 0 -288 -111 q-117 -112 -141 -276zM651 1155l256 295h164l-317 -295h-103z" />
<glyph unicode="&#xf4;" horiz-adv-x="1216" d="M177 473q30 217 190 357t377 141q218 0 338 -141q120 -140 90 -357t-189 -357q-160 -140 -378 -141q-218 0 -338 141q-120 140 -90 357zM300 473q-24 -164 64 -275q87 -112 257 -112t287 112q118 112 142 275q24 164 -64 276q-87 112 -257 111q-170 0 -288 -111 q-117 -112 -141 -276zM477 1155l264 295h144l178 -295h-133l-135 221l-197 -221h-121z" />
<glyph unicode="&#xf5;" horiz-adv-x="1216" d="M177 473q30 217 190 357t377 141q218 0 338 -141q120 -140 90 -357t-189 -357q-160 -140 -378 -141q-218 0 -338 141q-120 140 -90 357zM300 473q-24 -164 64 -275q87 -112 257 -112t287 112q118 112 142 275q24 164 -64 276q-87 112 -257 111q-170 0 -288 -111 q-117 -112 -141 -276zM457 1190q23 82 73 139q61 70 140 70q55 0 145 -51q88 -47 123 -48q78 0 113 99h73q-23 -86 -74 -148q-52 -61 -126 -61q-47 0 -148 49q-8 4 -33 16t-34 18q-10 5 -29 10q-18 5 -33 5q-80 0 -117 -98h-73z" />
<glyph unicode="&#xf6;" horiz-adv-x="1216" d="M177 473q30 217 190 357t377 141q218 0 338 -141q120 -140 90 -357t-189 -357q-160 -140 -378 -141q-218 0 -338 141q-120 140 -90 357zM300 473q-24 -164 64 -275q87 -112 257 -112t287 112q118 112 142 275q24 164 -64 276q-87 112 -257 111q-170 0 -288 -111 q-117 -112 -141 -276zM503 1335q5 41 38 70t74 29q42 0 66 -29t18 -70q-5 -41 -37 -69q-33 -29 -74 -29t-66 29q-24 28 -19 69zM892 1335q5 41 38 70t75 29t65 -29q24 -29 19 -70t-38 -69q-33 -29 -74 -29t-66 29q-24 28 -19 69z" />
<glyph unicode="&#xf7;" horiz-adv-x="1363" d="M240 571l14 99h1044l-14 -99h-1044zM621 305q6 43 40.5 73t77.5 32q43 0 70 -31t20.5 -74t-41 -73.5t-77.5 -30.5t-69.5 30.5t-20.5 73.5zM708.5 936q6.5 43 41 73.5t77.5 30.5t70 -30.5t20.5 -73.5t-41 -74t-77.5 -31t-70 31t-20.5 74z" />
<glyph unicode="&#xf8;" horiz-adv-x="1216" d="M80 4l164 146q-94 131 -68 323q31 217 190.5 357.5t378.5 140.5q186 0 306 -109l161 144l58 -60l-166 -145q96 -131 67 -328q-29 -217 -188.5 -357.5t-378.5 -140.5q-193 0 -307 111l-160 -141zM299 473q-18 -143 41 -237l614 542q-86 82 -225 82q-170 0 -287.5 -111.5 t-142.5 -275.5zM393 170q82 -84 228 -84q170 0 287.5 111.5t140.5 275.5q22 148 -41 242z" />
<glyph unicode="&#xf9;" horiz-adv-x="1138" d="M207 383l80 563h123l-78 -557q-43 -303 194 -303q143 0 250 100q106 100 131 287l68 473h123l-97 -680q-4 -37 -13 -140t-13 -126h-123q16 150 14 166h-6q-49 -82 -144 -136t-206 -55q-360 0 -303 408zM516 1450h164l170 -295h-102z" />
<glyph unicode="&#xfa;" horiz-adv-x="1138" d="M207 383l80 563h123l-78 -557q-43 -303 194 -303q143 0 250 100q106 100 131 287l68 473h123l-97 -680q-4 -37 -13 -140t-13 -126h-123q16 150 14 166h-6q-49 -82 -144 -136t-206 -55q-360 0 -303 408zM612 1155l256 295h164l-317 -295h-103z" />
<glyph unicode="&#xfb;" horiz-adv-x="1138" d="M207 383l80 563h123l-78 -557q-43 -303 194 -303q143 0 250 100q106 100 131 287l68 473h123l-97 -680q-4 -37 -13 -140t-13 -126h-123q16 150 14 166h-6q-49 -82 -144 -136t-206 -55q-360 0 -303 408zM438 1155l264 295h144l178 -295h-133l-135 221l-197 -221h-121z" />
<glyph unicode="&#xfc;" horiz-adv-x="1138" d="M207 383l80 563h123l-78 -557q-43 -303 194 -303q143 0 250 100q106 100 131 287l68 473h123l-97 -680q-4 -37 -13 -140t-13 -126h-123q16 150 14 166h-6q-49 -82 -144 -136t-206 -55q-360 0 -303 408zM464 1335q5 41 38 70t75 29t65 -29q24 -29 18 -70q-5 -41 -37 -69 q-33 -29 -74 -29t-66 29q-24 28 -19 69zM853 1335q5 41 38 70t75 29t65 -29q24 -29 19 -70t-38 -69q-33 -29 -74 -29t-66 29q-24 28 -19 69z" />
<glyph unicode="&#xfd;" horiz-adv-x="948" d="M-16 -473l26 115q74 -23 109 -23q59 0 100 43t80 115l117 219l-252 950h137l201 -796l418 796h131l-662 -1239q-106 -199 -289 -199q-51 0 -116 19zM518 1155l256 295h164l-317 -295h-103z" />
<glyph unicode="&#xfe;" horiz-adv-x="1251" d="M72 -467l282 2015h123l-106 -768h4q66 92 178.5 141.5t226.5 49.5q217 0 337 -140.5t90.5 -357.5t-189.5 -357.5t-379 -140.5q-113 0 -212 49.5t-140 141.5h-4l-88 -633h-123zM313.5 473q-22.5 -160 76.5 -273.5t265 -113.5q170 0 288 111.5t141.5 275.5t-63.5 275.5 t-257 111.5q-166 0 -297 -113.5t-153.5 -273.5z" />
<glyph unicode="&#xff;" horiz-adv-x="948" d="M-16 -473l26 115q74 -23 109 -23q59 0 100 43t80 115l117 219l-252 950h137l201 -796l418 796h131l-662 -1239q-106 -199 -289 -199q-51 0 -116 19zM370 1335q5 41 38 70t74 29q42 0 66 -29t18 -70q-5 -41 -38 -69q-33 -29 -73 -29q-41 0 -66 29q-24 28 -19 69zM759 1335 q5 41 38 70t74 29q42 0 66 -29t18 -70q-5 -41 -37 -69q-33 -29 -74 -29t-66 29q-24 28 -19 69z" />
<glyph unicode="&#x152;" horiz-adv-x="1933" d="M223 725q25 174 111 314.5t209 228.5t270.5 135t302.5 47h885l-19 -123h-606l-71 -516h571l-18 -123h-572l-80 -565h623l-17 -123h-966q-145 0 -270 52t-211 145.5t-125 230.5t-17 297zM358 725q-18 -129 9.5 -234.5t85 -172t136.5 -112.5t156.5 -64.5t153.5 -18.5h172 l170 1204h-160q-88 0 -179 -21.5t-182 -69.5t-165 -116.5t-127 -170t-70 -224.5z" />
<glyph unicode="&#x153;" horiz-adv-x="1857" d="M156.5 473q29.5 215 183.5 356.5t358 141.5q283 0 373 -236q55 98 158.5 167t247.5 69q186 0 290.5 -114t71.5 -343l-10 -72h-729q-27 -152 46 -254t232 -102q176 0 293 152l88 -70q-96 -104 -191 -148.5t-227 -44.5q-129 0 -218 57.5t-122 176.5h-4 q-74 -113 -188.5 -173.5t-251.5 -60.5q-203 0 -316.5 141.5t-84 356.5zM279.5 473q-21.5 -158 59.5 -272.5t239 -114.5t269 111.5t135 275.5t-57 275.5t-239 111.5t-271.5 -114.5t-135 -272.5zM1116 553h606q16 137 -46 222t-212 85q-137 0 -233.5 -89t-114.5 -218z" />
<glyph unicode="&#x178;" horiz-adv-x="1175" d="M193 1450h161l340 -688l547 688h152l-650 -825l-88 -625h-135l88 625zM536 1720q5 41 37 70q33 29 75 29t66 -29t18 -70q-5 -41 -38 -69q-33 -29 -73 -29q-41 0 -66 29q-24 28 -19 69zM925 1720q5 41 38 70t74 29q42 0 66 -29t18 -70q-5 -41 -38 -69q-33 -29 -73 -29 q-41 0 -66 29q-24 28 -19 69z" />
<glyph unicode="&#x2c6;" horiz-adv-x="491" d="M115 1155l264 295h143l178 -295h-133l-135 221l-196 -221h-121z" />
<glyph unicode="&#x2dc;" horiz-adv-x="491" d="M94 1190q23 82 74 139q61 70 139 70q55 0 146 -51q88 -47 122 -48q78 0 113 99h74q-23 -86 -75 -147.5t-126 -61.5q-47 0 -147 49l-33 16.5l-35 17.5t-28.5 10t-32.5 5q-80 0 -117 -98h-74z" />
<glyph unicode="&#x2000;" horiz-adv-x="954" />
<glyph unicode="&#x2001;" horiz-adv-x="1909" />
<glyph unicode="&#x2002;" horiz-adv-x="954" />
<glyph unicode="&#x2003;" horiz-adv-x="1909" />
<glyph unicode="&#x2004;" horiz-adv-x="636" />
<glyph unicode="&#x2005;" horiz-adv-x="477" />
<glyph unicode="&#x2006;" horiz-adv-x="318" />
<glyph unicode="&#x2007;" horiz-adv-x="318" />
<glyph unicode="&#x2008;" horiz-adv-x="238" />
<glyph unicode="&#x2009;" horiz-adv-x="381" />
<glyph unicode="&#x200a;" horiz-adv-x="106" />
<glyph unicode="&#x2010;" horiz-adv-x="681" d="M150 430l14 111h506l-15 -111h-505z" />
<glyph unicode="&#x2011;" horiz-adv-x="681" d="M150 430l14 111h506l-15 -111h-505z" />
<glyph unicode="&#x2012;" horiz-adv-x="681" d="M150 430l14 111h506l-15 -111h-505z" />
<glyph unicode="&#x2013;" horiz-adv-x="1024" d="M61 430l15 111h1024l-15 -111h-1024z" />
<glyph unicode="&#x2014;" horiz-adv-x="2048" d="M61 430l15 111h2048l-15 -111h-2048z" />
<glyph unicode="&#x2018;" horiz-adv-x="532" d="M264 983l223 467h123l-198 -467h-148z" />
<glyph unicode="&#x2019;" horiz-adv-x="532" d="M264 983l197 467h149l-225 -467h-121z" />
<glyph unicode="&#x201a;" horiz-adv-x="532" d="M88 -283l195 467h149l-223 -467h-121z" />
<glyph unicode="&#x201c;" d="M352 983l226 467h120l-196 -467h-150zM709 983l225 467h121l-197 -467h-149z" />
<glyph unicode="&#x201d;" d="M352 983l197 467h149l-225 -467h-121zM709 983l196 467h150l-226 -467h-120z" />
<glyph unicode="&#x201e;" d="M176 -283l195 467h149l-223 -467h-121zM532 -283l195 467h150l-224 -467h-121z" />
<glyph unicode="&#x2022;" horiz-adv-x="1024" d="M250.5 724.5q21.5 149.5 142.5 256t271.5 106.5t241.5 -105t69.5 -257t-142 -257.5t-271 -105.5t-242 106.5t-70 256z" />
<glyph unicode="&#x2026;" horiz-adv-x="2048" d="M256 86q6 41 38 69.5t74 28.5t66.5 -28.5t18 -69.5t-39 -69.5t-73.5 -28.5t-65.5 28.5t-18.5 69.5zM938 86q6 41 38 69.5t74 28.5t66.5 -28.5t18 -69.5t-39 -69.5t-73.5 -28.5t-65.5 28.5t-18.5 69.5zM1620 86q6 41 38 69.5t74 28.5t66.5 -28.5t18 -69.5t-39 -69.5 t-73.5 -28.5t-65.5 28.5t-18.5 69.5z" />
<glyph unicode="&#x202f;" horiz-adv-x="381" />
<glyph unicode="&#x2039;" horiz-adv-x="645" d="M197 485l340 416l77 -59l-288 -357l192 -360l-98 -55z" />
<glyph unicode="&#x203a;" horiz-adv-x="645" d="M168 129l287 356l-191 361l98 55l222 -416l-338 -415z" />
<glyph unicode="&#x205f;" horiz-adv-x="477" />
<glyph unicode="&#x2122;" horiz-adv-x="2027" d="M362 1352l15 98h655l-14 -98h-273l-104 -746h-111l105 746h-273zM1065 606l119 844h176l170 -672l360 672h170l-118 -844h-111l102 740h-4l-393 -740h-66l-188 740h-4l-102 -740h-111z" />
<glyph unicode="&#xe000;" horiz-adv-x="942" d="M0 0v942h942v-942h-942z" />
<glyph unicode="&#xfb01;" horiz-adv-x="1062" d="M154 836l16 110h197l43 309q12 86 48 152t84 99.5t97 50t98 16.5q86 0 137 -25l-38 -106q-39 20 -109 20q-166 0 -201 -252l-37 -264h222l-17 -110h-221l-117 -836h-123l117 836h-196zM756 0l133 946h123l-133 -946h-123zM910 1321q5 39 36 65.5t70 26.5t61.5 -26.5 t17.5 -65.5t-36 -65.5t-69 -26.5t-61.5 26.5t-18.5 65.5z" />
<glyph unicode="&#xfb02;" horiz-adv-x="1062" d="M154 836l16 110h197l43 309q12 86 48 152t84 99.5t97 50t98 16.5q86 0 137 -25l-38 -106q-39 20 -109 20q-166 0 -201 -252l-37 -264h222l-17 -110h-221l-117 -836h-123l117 836h-196zM756 0l217 1548h123l-217 -1548h-123z" />
</font>
</defs>
</svg>
