<?xml version="1.0" standalone="no"?>
<!DOCTYPE svg PUBLIC "-//W3C//DTD SVG 1.1//EN" "http://www.w3.org/Graphics/SVG/1.1/DTD/svg11.dtd" >
<svg xmlns="http://www.w3.org/2000/svg">
<metadata></metadata>
<defs>
<font id="AvenirMediumOblique" horiz-adv-x="1138" >
<font-face units-per-em="2048" ascent="1638" descent="-410" />
<missing-glyph horiz-adv-x="569" />
<glyph horiz-adv-x="0" />
<glyph horiz-adv-x="2048" />
<glyph unicode=" "  horiz-adv-x="569" />
<glyph unicode="&#x09;" horiz-adv-x="569" />
<glyph unicode="&#xa0;" horiz-adv-x="569" />
<glyph unicode="!" horiz-adv-x="569" d="M167 123q7 55 53 95t101.5 40t89 -40t26.5 -95t-53 -95t-101.5 -40t-89 40t-26.5 95zM242 418l145 1032h197l-146 -1032h-196z" />
<glyph unicode="&#x22;" horiz-adv-x="1062" d="M432 946l72 504h160l-72 -504h-160zM737 946l72 504h160l-72 -504h-160z" />
<glyph unicode="#" d="M111 418l22 160h217l82 294h-194l22 160h217l117 418h162l-117 -418h238l116 418h162l-117 -418h195l-23 -160h-217l-82 -294h195l-23 -160h-217l-116 -418h-162l117 418h-238l-117 -418h-162l117 418h-194zM512 578h238l81 294h-237z" />
<glyph unicode="$" d="M78 172l178 141q33 -76 106.5 -118.5t161.5 -47.5l72 504q-88 25 -152.5 54.5t-120 77.5t-78 121t-7.5 167q23 168 161 278.5t312 125.5l20 147h111l-21 -147q117 0 218.5 -40t164.5 -118l-166 -143q-80 125 -241 129l-68 -484l-4 -2q82 -23 134 -42t111.5 -53t90.5 -75 t47 -105.5t4 -144.5q-25 -180 -169 -295.5t-333 -126.5l-20 -147h-111l21 147q-299 0 -422 197zM434 1071q-22 -160 189 -223l63 455q-100 -16 -170 -77t-82 -155zM635 147q109 12 187.5 77t92.5 165q6 51 -8 90t-49 65.5t-70 44.5t-86 34z" />
<glyph unicode="%" horiz-adv-x="1744" d="M233.5 1124.5q20.5 149.5 142.5 256t272.5 106.5t240.5 -105.5t69.5 -257t-141.5 -257t-271.5 -105.5t-241.5 106.5t-70.5 256zM358 0l1125 1516l114 -64l-1124 -1515zM393.5 1124q-12.5 -84 38.5 -143t135 -59t151.5 59t80 143t-38.5 143.5t-135 59.5t-151.5 -59.5 t-80 -143.5zM990.5 325.5q21.5 151.5 142 257t271 105.5t242 -106.5t70 -256t-142.5 -256t-271.5 -106.5t-241.5 105.5t-69.5 257zM1150 326q-11 -84 39 -143.5t135 -59.5t152.5 59.5t79 143.5t-39 143t-135.5 59t-152.5 -59t-78.5 -143z" />
<glyph unicode="&#x26;" horiz-adv-x="1478" d="M150 383q37 258 389 416q-72 90 -105 164.5t-18 171.5q23 160 146.5 250t287.5 90q162 0 256 -85t74 -243q-31 -215 -355 -373l246 -299l223 297h224l-342 -434l282 -338h-264l-152 193q-113 -117 -224 -173.5t-253 -56.5q-117 0 -206 36t-136 95.5t-65.5 133t-7.5 155.5 zM360 389q-14 -104 57.5 -179t178.5 -75q168 0 348 184l-299 365q-61 -33 -97 -55.5t-82 -59.5t-72.5 -82t-33.5 -98zM612 1133q-6 -45 12.5 -93.5t39 -77t57.5 -71.5q55 29 87 47t76 51t68.5 72t30.5 86q10 72 -34 114t-122 42q-82 0 -143 -46.5t-72 -123.5z" />
<glyph unicode="'" horiz-adv-x="569" d="M338 946l72 504h159l-71 -504h-160z" />
<glyph unicode="(" horiz-adv-x="569" d="M180 590q35 238 144.5 473t283.5 436l113 -78q-170 -217 -258 -405.5t-123 -425.5q-66 -467 147 -828l-135 -81q-117 195 -162 428t-10 481z" />
<glyph unicode=")" horiz-adv-x="569" d="M14 -242q170 217 258 405.5t121 426.5q66 467 -145 827l135 82q117 -195 162 -428t8 -481q-33 -238 -143.5 -473t-282.5 -436z" />
<glyph unicode="*" horiz-adv-x="950" d="M227 1114l64 133l274 -98l43 301h148l-43 -301l297 96l24 -137l-297 -92l146 -244l-125 -84l-152 250l-215 -246l-102 84l217 240z" />
<glyph unicode="+" horiz-adv-x="1363" d="M211 541l22 159h467l66 467h160l-66 -467h467l-22 -159h-467l-66 -467h-160l66 467h-467z" />
<glyph unicode="," horiz-adv-x="569" d="M59 -270l213 503h199l-244 -503h-168z" />
<glyph unicode="-" horiz-adv-x="647" d="M129 410l25 172h503l-24 -172h-504z" />
<glyph unicode="." horiz-adv-x="569" d="M167 123q7 55 53 95t101.5 40t89 -40t26.5 -95t-53 -95t-101.5 -40t-89 40t-26.5 95z" />
<glyph unicode="/" horiz-adv-x="796" d="M-6 -37l878 1577l134 -53l-875 -1577z" />
<glyph unicode="0" d="M158 563q2 80 14 162q14 104 40 200.5t74 200t112.5 178t161.5 123t216 48.5q100 0 176 -33t120 -91.5t71.5 -131t36 -159.5t6.5 -168t-15 -167q-14 -100 -39.5 -195.5t-73.5 -199t-112.5 -180t-163 -126t-217.5 -49.5q-98 0 -174 34t-120 93.5t-72.5 132t-35.5 160.5 t-5 168zM352 492.5q0 -70.5 14.5 -128t38 -108.5t71.5 -80t113.5 -29t122 29t95.5 80t68.5 108.5t49 128t31 124t19.5 108.5q8 59 12 113.5t4 125t-14 127t-39 106.5t-72 78t-113.5 28t-122 -28t-94 -78t-68.5 -106.5t-49.5 -127t-30.5 -125t-19 -113.5q-8 -55 -12.5 -108.5 t-4.5 -124z" />
<glyph unicode="1" d="M330 1116l450 334h174l-204 -1450h-197l172 1225l-301 -246z" />
<glyph unicode="2" d="M94 0l29 209l663 577q182 156 201 297q16 104 -47 168t-170 64q-104 0 -183 -59.5t-112 -163.5l-211 18q55 186 196.5 281.5t336.5 95.5q197 0 312.5 -104.5t86.5 -297.5q-16 -129 -97 -232t-218 -220l-541 -461h729l-25 -172h-950z" />
<glyph unicode="3" d="M135 291l215 63q23 -109 75 -158t163 -49q117 0 209 74t108 189q10 70 -8 121t-53 78.5t-90.5 44t-104.5 21.5t-112 5l22 172q145 0 233.5 28.5t124 76t46.5 122.5q16 113 -43.5 174.5t-167.5 61.5q-78 0 -150 -46t-115 -122l-192 67q74 133 201 203t276 70 q190 0 303 -101.5t86 -293.5q-16 -115 -97 -205t-198 -123v-4q129 -23 191.5 -125.5t42.5 -239.5q-29 -199 -183.5 -309.5t-359.5 -110.5q-172 0 -284.5 79t-137.5 237z" />
<glyph unicode="4" d="M115 319l28 201l709 930h238l-136 -958h205l-24 -173h-205l-45 -319h-197l45 319h-618zM311 492h447l100 725h-4z" />
<glyph unicode="5" d="M106 268l209 68q47 -188 242 -189q121 0 213 81t111 216q23 154 -61.5 236t-244.5 82q-59 0 -146 -20.5t-163 -55.5l125 764h778l-26 -184h-588l-57 -363q31 12 94 21.5t104 9.5q203 0 308.5 -133t74.5 -346q-29 -213 -194.5 -346.5t-382.5 -133.5q-150 0 -257.5 77 t-138.5 216z" />
<glyph unicode="6" d="M133 442q18 123 66.5 216.5t140.5 211.5l448 580h232l-445 -561h9q74 33 164 33q82 0 155.5 -28t132 -82t86 -144t11.5 -205q-33 -231 -193 -359.5t-375 -128.5q-209 0 -335 130.5t-97 336.5zM331.5 448.5q-18.5 -133.5 52.5 -217.5t206 -84t230 84t113.5 217.5 t-53 217.5t-205.5 84t-229.5 -84t-114 -217.5z" />
<glyph unicode="7" d="M199 0l768 1278h-701l25 172h911l-24 -168l-758 -1282h-221z" />
<glyph unicode="8" d="M156 416q18 131 108 226t217 128v6q-88 25 -143 112t-37 226q23 160 161 260.5t314 100.5t285.5 -100.5t87.5 -260.5q-18 -139 -98 -226t-177 -112v-6q117 -33 181.5 -128t46.5 -226q-29 -201 -180.5 -321t-355.5 -120t-321.5 120t-88.5 321zM352 416q-18 -123 51.5 -196 t186.5 -73q123 0 210 75t105 194q16 127 -51.5 196.5t-187.5 71.5q-121 -2 -210 -78t-104 -190zM494 1085q-12 -90 40 -159.5t156 -69.5q106 0 176 66.5t82 162.5q14 100 -40 165t-154 65q-94 0 -170 -65t-90 -165z" />
<glyph unicode="9" d="M211 987q33 231 192.5 359.5t372.5 128.5q209 0 335 -130.5t97 -336.5q-16 -123 -64 -216.5t-140 -211.5l-449 -580h-231l444 561h-8q-74 -33 -166 -33q-80 0 -153.5 28t-132 82t-86 144t-11.5 205zM409.5 1001.5q-18.5 -133.5 52 -217.5t206 -84t230.5 84t113.5 217.5 t-53 217.5t-206 84t-229.5 -84t-113.5 -217.5z" />
<glyph unicode=":" horiz-adv-x="569" d="M167 123q7 55 53 95t101.5 40t89 -40t26.5 -95t-53 -95t-101.5 -40t-89 40t-26.5 95zM268 848q8 55 53.5 95t100.5 40t90 -40t26.5 -95t-53.5 -95t-100 -40t-90 40t-27 95z" />
<glyph unicode=";" horiz-adv-x="569" d="M59 -270l213 503h199l-244 -503h-168zM268 846q8 55 53.5 95t100.5 40t90 -40t26.5 -95t-53.5 -95t-100 -40t-90 40t-27 95z" />
<glyph unicode="&#x3c;" horiz-adv-x="1363" d="M211 537l22 168l1158 450l-23 -162l-977 -372l873 -373l-23 -160z" />
<glyph unicode="=" horiz-adv-x="1363" d="M188 379l23 160h1094l-23 -160h-1094zM233 700l23 160h1094l-23 -160h-1094z" />
<glyph unicode="&#x3e;" horiz-adv-x="1363" d="M147 86l23 162l979 373l-875 372l23 160l1030 -448l-22 -168z" />
<glyph unicode="?" horiz-adv-x="1024" d="M254 1106q51 176 187.5 278.5t316.5 102.5q178 0 279.5 -101.5t76.5 -277.5q-18 -137 -121 -246l-141 -127l-23 -18q-74 -61 -96 -98t-37 -123l-12 -90h-197l17 124q6 45 18.5 79t20.5 54.5t37.5 51t44 43t65.5 55.5q6 6 47 40t52.5 45t42 42t42 50.5t24.5 49t17 58.5 q14 92 -40 154.5t-146 62.5q-98 0 -170 -63.5t-100 -166.5zM408.5 123q7.5 55 53.5 95t101 40t89 -40t27 -95t-53 -95t-101.5 -40t-89.5 40t-26.5 95z" />
<glyph unicode="@" horiz-adv-x="1638" d="M193 729q29 207 155.5 381t316 275.5t394.5 101.5q188 0 336.5 -80t223.5 -223.5t50 -319.5q-16 -125 -79.5 -236.5t-146.5 -184t-172 -114.5t-163 -42q-55 0 -87 34.5t-24 96.5h-8q-141 -131 -272 -131q-129 0 -192.5 92t-43.5 229q18 135 91 259t192 205t252 81 q76 0 129 -38t67 -118h5l49 117h149l-250 -567q-16 -35 -18 -51q-4 -27 9 -38.5t44 -11.5q88 0 186.5 122t120.5 280q33 233 -103 368.5t-362 135.5q-260 0 -456.5 -181.5t-235.5 -449.5q-37 -270 114.5 -446.5t412.5 -176.5q147 0 283 54.5t222 152.5h162 q-106 -154 -298.5 -248t-393.5 -94q-211 0 -374 101.5t-238.5 277.5t-46.5 387zM653 610q-23 -164 123 -164q117 0 215.5 120t116.5 247q10 76 -16.5 128t-87.5 52q-137 0 -232.5 -112.5t-118.5 -270.5z" />
<glyph unicode="A" horiz-adv-x="1441" d="M2 0l844 1450h178l416 -1450h-230l-94 358h-690l-195 -358h-229zM518 530h549l-176 666h-4z" />
<glyph unicode="B" horiz-adv-x="1290" d="M186 0l205 1450h504q197 0 305 -92q88 -75 88 -207q0 -30 -4 -64q-18 -119 -96 -199.5t-199 -119.5l-2 -4q131 -10 208 -112q60 -81 61 -188q0 -29 -5 -61q-27 -188 -186.5 -295.5t-380.5 -107.5h-498zM408 172h288q51 0 101.5 10.5t104.5 35t93 76.5t49 124q3 23 3 44 q1 94 -59 148q-72 66 -220 66h-291zM502 848h268q121 0 203 52t98 165q2 18 2 35q0 70 -39 118q-49 60 -162 60h-309z" />
<glyph unicode="C" horiz-adv-x="1441" d="M197 713q47 340 288.5 557t575.5 217q150 0 278.5 -57t198.5 -168l-182 -125q-49 78 -137.5 122t-190.5 44q-240 0 -414 -169t-208 -421q-8 -51 -8 -100q0 -97 31 -182q46 -128 159.5 -206t277.5 -78q240 0 406 195l149 -125q-27 -31 -68.5 -65.5t-115.5 -81.5 t-179.5 -77t-221.5 -30q-166 0 -300.5 65.5t-212 173t-112.5 240.5q-22 83 -22 168q0 51 8 103z" />
<glyph unicode="D" horiz-adv-x="1517" d="M154 0l204 1450h506q125 0 229.5 -25.5t174 -70.5t124 -104.5t80.5 -125.5q26 -67 44 -138q15 -61 16 -117q0 -9 -1 -19q-3 -66 -7 -125q-20 -141 -91 -270t-182.5 -231.5t-273.5 -163t-350 -60.5h-473zM377 184h248q170 0 314 59.5t247.5 184.5t128.5 297q2 41 5 88 q1 9 1 18q-1 39 -11 81q-12 52 -30 102.5t-58 96.5t-91.5 80t-131 54.5t-176.5 20.5h-295z" />
<glyph unicode="E" horiz-adv-x="1251" d="M186 0l205 1450h936l-27 -184h-739l-61 -432h688l-25 -185h-688l-65 -465h776l-27 -184h-973z" />
<glyph unicode="F" horiz-adv-x="1175" d="M186 0l205 1450h912l-27 -184h-715l-63 -455h665l-26 -184h-666l-88 -627h-197z" />
<glyph unicode="G" horiz-adv-x="1593" d="M199 725q45 326 288.5 544t573.5 218q358 0 514 -189l-160 -149q-137 154 -381 154q-242 0 -418 -167t-208 -411q-7 -50 -7 -96q0 -184 110 -316q138 -166 378 -166q221 0 366 76l58 404h-322l27 184h518l-100 -715q-111 -61 -270.5 -97t-299.5 -36q-178 0 -318 61.5 t-222 166t-116 241.5q-20 82 -20 170q0 60 9 123z" />
<glyph unicode="H" horiz-adv-x="1517" d="M186 0l205 1450h197l-86 -602h751l86 602h197l-205 -1450h-196l94 664h-752l-94 -664h-197z" />
<glyph unicode="I" horiz-adv-x="569" d="M186 0l205 1450h197l-205 -1450h-197z" />
<glyph unicode="J" horiz-adv-x="987" d="M57 281l199 43q6 -82 51 -129.5t125 -47.5q70 0 121 28t81 78t46.5 102t26.5 122l137 973h196l-147 -1036q-14 -104 -54 -186.5t-91.5 -130.5t-115 -79.5t-117.5 -43t-109 -11.5q-156 0 -249.5 81t-99.5 237z" />
<glyph unicode="K" horiz-adv-x="1327" d="M186 0l205 1450h197l-90 -627h16l731 627h275l-795 -670l637 -780h-287l-573 725h-17l-102 -725h-197z" />
<glyph unicode="L" horiz-adv-x="1062" d="M186 0l205 1450h197l-178 -1266h665l-26 -184h-863z" />
<glyph unicode="M" horiz-adv-x="1855" d="M172 0l205 1450h293l305 -1098h8l612 1098h293l-205 -1450h-196l168 1192h-4l-658 -1192h-131l-321 1192h-4l-168 -1192h-197z" />
<glyph unicode="N" horiz-adv-x="1630" d="M186 0l205 1450h258l631 -1192h4l168 1192h197l-205 -1450h-250l-639 1192h-4l-168 -1192h-197z" />
<glyph unicode="O" horiz-adv-x="1703" d="M199 725q45 326 288.5 544t573.5 218q217 0 376.5 -100.5t230.5 -274.5q50 -124 50 -267q0 -58 -8 -120q-47 -326 -290.5 -544t-573.5 -218q-217 0 -376 101q-158 100 -230 274q-50 121 -50 262q0 61 9 125zM406 725q-7 -51 -6 -98q0 -181 101 -313q128 -167 371.5 -167 t418.5 167t209 411q7 51 7 99q0 180 -101 312q-128 167 -370.5 167t-419 -167t-210.5 -411z" />
<glyph unicode="P" horiz-adv-x="1214" d="M186 0l205 1450h510q106 0 186 -24.5t124 -65.5t72 -94.5t29 -109.5v-22q0 -45 -3 -90q-10 -76 -42 -141t-89.5 -127.5t-158.5 -99.5t-233 -37h-313l-90 -639h-197zM498 811h258q63 0 115.5 9t102.5 33t83 73q33 48 43 118q3 24 3 45q-1 41 -13 74q-20 49 -63.5 73 t-92.5 33t-113 9h-258z" />
<glyph unicode="Q" horiz-adv-x="1703" d="M201 741q29 209 151.5 380t308 268.5t394.5 97.5q201 0 357.5 -94.5t231.5 -260.5q56 -122 56 -263q0 -52 -8 -107q-27 -190 -137.5 -352t-276.5 -234v-4h430l-25 -172h-835q-154 0 -284 55.5t-218 152.5t-128 236q-25 89 -25 185q0 55 8 112zM412 758q-8 -52 -8 -100 q0 -178 101 -308q128 -166 361 -166t407.5 164t209.5 406q7 46 7 90q0 173 -106 300q-131 159 -362 159q-225 0 -401.5 -159t-208.5 -386z" />
<glyph unicode="R" horiz-adv-x="1251" d="M186 0l205 1450h510q106 0 186 -24.5t124 -65.5t72 -94.5t29 -109.5v-22q0 -45 -3 -90q-20 -143 -134 -253.5t-278 -128.5l320 -662h-246l-279 639h-219l-90 -639h-197zM498 811h258q63 0 115.5 9t102.5 33t83 73q33 48 43 118q3 24 3 45q-1 41 -13 74q-20 49 -63.5 73 t-92.5 33t-113 9h-258z" />
<glyph unicode="S" d="M90 164l182 139q39 -76 116 -116t169 -40q109 0 208 66t116 176q2 13 2 26q0 51 -27 88q-33 46 -92 71.5t-132 48t-144.5 54.5t-129.5 78q-56 46 -84 129q-17 52 -18 117q0 38 6 80q10 68 48 136.5t103.5 130t169 100.5t228.5 39q283 0 395 -166l-180 -145 q-31 57 -94.5 92t-147.5 35q-145 0 -223 -69t-90 -153q-2 -17 -2 -33q1 -52 25 -91q32 -50 90.5 -77.5t132.5 -50t145.5 -51t129.5 -68.5q56 -40 86 -116q19 -49 20 -111q0 -34 -6 -71q-29 -205 -190 -327t-378 -122q-145 0 -261 50.5t-173 150.5z" />
<glyph unicode="T" horiz-adv-x="1175" d="M201 1266l26 184h1131l-27 -184h-467l-178 -1266h-197l179 1266h-467z" />
<glyph unicode="U" horiz-adv-x="1441" d="M233 530l132 920h196l-125 -889q-5 -47 -5 -96v-17q1 -58 22.5 -111.5t54.5 -95.5t94.5 -68t138.5 -26q98 0 177 39t128.5 101.5t79 132t39.5 141.5l125 889h197l-131 -920q-35 -250 -217.5 -408.5t-423 -158.5t-378.5 159q-111 128 -111 313q0 46 7 95z" />
<glyph unicode="V" horiz-adv-x="1290" d="M193 1450h227l260 -1180h4l608 1180h215l-776 -1450h-184z" />
<glyph unicode="W" horiz-adv-x="1970" d="M207 1450h205l155 -1159h4l506 1159h226l178 -1159h4l483 1159h205l-627 -1450h-207l-186 1184h-4l-516 -1184h-207z" />
<glyph unicode="X" horiz-adv-x="1327" d="M-4 0l633 762l-389 688h252l296 -557l453 557h246l-582 -686l426 -764h-258l-328 629l-505 -629h-244z" />
<glyph unicode="Y" horiz-adv-x="1253" d="M184 1450h252l305 -637l498 637h240l-668 -832l-86 -618h-197l86 618z" />
<glyph unicode="Z" horiz-adv-x="1214" d="M66 0l26 184l977 1082h-801l27 184h1046l-26 -184l-973 -1082h834l-27 -184h-1083z" />
<glyph unicode="[" horiz-adv-x="569" d="M102 -319l256 1818h357l-19 -135h-184l-219 -1548h184l-18 -135h-357z" />
<glyph unicode="\" horiz-adv-x="796" d="M209 1487l149 53l433 -1577l-150 -53z" />
<glyph unicode="]" horiz-adv-x="569" d="M20 -319l19 135h184l219 1548h-184l18 135h357l-256 -1818h-357z" />
<glyph unicode="^" horiz-adv-x="1363" d="M244 565l561 885h164l311 -885h-170l-248 723l-448 -723h-170z" />
<glyph unicode="_" horiz-adv-x="1024" d="M-37 -256l14 102h1024l-14 -102h-1024z" />
<glyph unicode="`" horiz-adv-x="491" d="M111 1450h262l170 -295h-170z" />
<glyph unicode="a" horiz-adv-x="1062" d="M129 266q14 90 64.5 156.5t130 105.5t176 56.5t211.5 17.5h135l6 41q2 15 2 30q0 63 -42 113q-52 62 -163 62q-61 0 -116.5 -17.5t-84 -34t-75.5 -48.5q-11 -7 -15 -11l-96 115q86 70 193.5 106.5t212.5 36.5q203 0 292 -93q72 -75 72 -179q0 -25 -4 -51l-70 -496 q-14 -109 -16 -176h-164q4 74 15 147h-5q-137 -172 -364 -172q-141 0 -227 78q-71 64 -71 168q0 22 3 45zM315 281q-2 -14 -2 -26q0 -61 41 -93q49 -39 148 -39q141 0 221 84t96 199l8 61h-98q-387 0 -414 -186z" />
<glyph unicode="b" horiz-adv-x="1251" d="M139 0l217 1548h185l-101 -717h4q59 76 157.5 120t203.5 44q221 0 337 -144q92 -114 91 -278q0 -42 -6 -88q-31 -219 -186.5 -364.5t-378.5 -145.5q-100 0 -186.5 44t-127.5 120h-4l-20 -139h-185zM392 486q-5 -34 -4 -65q0 -105 56 -179q74 -94 219.5 -94.5t246 94 t122.5 244.5q5 34 4 64q0 106 -57 179q-74 94 -220.5 94t-245.5 -93.5t-121 -243.5z" />
<glyph unicode="c" horiz-adv-x="987" d="M160 481q31 225 192.5 368.5t386.5 143.5h3q230 0 350 -153l-158 -127q-87 108 -224 108h-3q-143 0 -236.5 -99t-114.5 -245q-4 -30 -4 -57q0 -102 58 -178q74 -96 213 -95q143 0 251 109l113 -131q-158 -150 -391 -150q-223 -1 -345 141q-97 113 -97 278q0 42 6 87z" />
<glyph unicode="d" horiz-adv-x="1251" d="M160 485q31 221 187.5 365.5t377.5 144.5q104 0 190 -44t125 -120h4l101 717h184l-217 -1548h-184l20 139h-4q-63 -76 -162.5 -120t-199.5 -44q-221 -1 -337 145q-92 115 -92 276q0 43 7 89zM358 486q-5 -34 -6 -65q0 -105 58 -179q74 -94 219 -94.5t245 94.5 q100 94 122 244q5 34 5 64q0 106 -57 179q-74 94 -220 94t-245 -93.5t-121 -243.5z" />
<glyph unicode="e" d="M150 485q31 219 193.5 364.5t379.5 145.5q100 0 177 -29.5t123 -78.5t74.5 -114.5t32.5 -139.5q1 -21 1 -42q0 -54 -7 -108l-8 -65h-778q-3 -21 -3 -41q0 -96 72 -162q87 -80 218 -80q147 0 286 146l125 -107q-180 -199 -458 -199q-225 1 -342 145q-92 114 -92 276 q0 43 6 89zM358 565h582q3 24 3 46q0 95 -49 159q-60 78 -196 78q-129 0 -227.5 -89.5t-112.5 -193.5z" />
<glyph unicode="f" horiz-adv-x="681" d="M117 811l22 160h209l31 217q27 199 117 292t268 93q78 0 135 -14l-43 -164q-43 18 -102 18q-94 0 -133 -53t-56 -166l-30 -223h219l-23 -160h-221l-115 -811h-184l115 811h-209z" />
<glyph unicode="g" horiz-adv-x="1251" d="M61 -317l148 155q124 -157 321 -157h2q98 0 174 28.5t120 78.5t70 106.5t34 121.5l20 144h-6q-61 -84 -158.5 -128t-201.5 -44q-213 0 -334 142q-96 113 -96 271q0 41 6 84q31 219 187.5 364.5t377.5 145.5q100 0 187 -44t128 -120h4l21 140h184l-135 -963 q-33 -221 -198.5 -360.5t-403.5 -139.5q-287 0 -451 175zM356 485q-4 -31 -4 -60q0 -106 58 -176q73 -89 220.5 -89t246 89t118.5 236q5 36 5 68q0 104 -56 176q-74 94 -220 94t-245.5 -94t-122.5 -244z" />
<glyph unicode="h" d="M139 0l217 1548h185l-103 -727h4q47 78 140.5 126t203.5 48q154 0 240 -93q67 -72 67 -199q0 -37 -6 -78l-88 -625h-184l80 573q5 33 5 61q0 82 -40 128q-53 60 -151 61q-121 0 -207 -80.5t-109 -242.5l-69 -500h-185z" />
<glyph unicode="i" horiz-adv-x="491" d="M154 0l137 971h184l-137 -971h-184zM296 1319q7 55 53 95t101.5 40t89.5 -40q28 -33 27 -76q0 -9 -1 -19q-7 -55 -53 -95t-101.5 -40t-89.5 40q-28 33 -27 76q0 9 1 19z" />
<glyph unicode="j" horiz-adv-x="491" d="M-143 -473l43 170q43 -16 73 -16q74 0 111 46t51 142l156 1102h184l-158 -1110q-6 -45 -12 -77t-29.5 -89t-57.5 -93t-98.5 -65t-148.5 -29q-68 0 -114 19zM296 1319q7 55 53 95t101.5 40t89.5 -40q27 -33 27 -76q0 -9 -1 -19q-7 -55 -53 -95t-101.5 -40t-89.5 40 q-27 33 -27 76q0 9 1 19z" />
<glyph unicode="k" horiz-adv-x="1062" d="M139 0l217 1548h185l-140 -999l476 420h256l-515 -441l418 -528h-262l-379 504l-71 -504h-185z" />
<glyph unicode="l" horiz-adv-x="491" d="M154 0l217 1548h184l-217 -1548h-184z" />
<glyph unicode="m" horiz-adv-x="1744" d="M139 0l137 971h173l-23 -152h4q27 55 123 115.5t213 60.5q211 0 278 -180q57 86 149.5 133t182.5 47q318 0 318 -320q0 -51 -8 -110l-80 -565h-185l76 541q6 55 6 103q0 18 -1 35q-3 62 -46 103t-129 41q-127 0 -197.5 -77.5t-91.5 -215.5l-73 -530h-185l72 508 q9 85 9 151v13q-1 70 -43 110.5t-128 40.5q-106 0 -190 -82t-105 -237l-71 -504h-185z" />
<glyph unicode="n" d="M139 0l137 971h185l-23 -150h4q47 78 140.5 126t203.5 48q154 0 240 -93q67 -72 67 -199q0 -37 -6 -78l-88 -625h-184l80 573q5 33 5 61q0 82 -40 128q-53 60 -151 61q-121 0 -207 -80.5t-109 -242.5l-69 -500h-185z" />
<glyph unicode="o" horiz-adv-x="1216" d="M160 485q30 213 201 361.5t387 148.5q217 -1 346 -149q105 -120 104 -283q0 -38 -5 -78q-30 -213 -201 -361.5t-387 -148.5q-216 1 -345 149q-105 121 -105 284q0 37 5 77zM358 486q-5 -34 -5 -65q1 -105 57 -179q74 -94 219 -94.5t245 94.5q100 94 122 244q5 34 5 64 q0 106 -57 179q-74 94 -220 94t-245 -93.5t-121 -243.5z" />
<glyph unicode="p" horiz-adv-x="1251" d="M57 -578l219 1549h185l-21 -140h4q63 76 162 120t199 44q223 0 337 -145q91 -115 91 -277q0 -42 -6 -88q-31 -221 -187.5 -365.5t-377.5 -144.5q-104 0 -190.5 44t-123.5 120h-4l-102 -717h-185zM392 486q-4 -34 -4 -65q0 -106 56 -179q74 -95 219.5 -95t246 94.5 t122.5 244.5q4 33 4 64q0 106 -57 179q-74 94 -220.5 94t-245.5 -94t-121 -243z" />
<glyph unicode="q" horiz-adv-x="1251" d="M160 485q31 219 187.5 364.5t377.5 145.5q100 0 187 -44t128 -120h4l21 140h184l-202 -1438h-185l86 606h-4q-61 -76 -158.5 -120t-203.5 -44q-221 0 -337 145q-92 114 -92 275q0 43 7 90zM358 486q-5 -34 -5 -65q0 -106 57 -179q73 -95 218.5 -95t246 94.5t121.5 244.5 q5 33 5 64q0 106 -57 179q-74 94 -220 94t-245.5 -94t-120.5 -243z" />
<glyph unicode="r" horiz-adv-x="757" d="M139 0l137 971h185l-23 -150h4q47 76 136.5 125t179.5 49q45 0 80 -12l-35 -199q-51 14 -88 15q-279 0 -324 -312l-67 -487h-185z" />
<glyph unicode="s" horiz-adv-x="909" d="M78 147l155 115q47 -53 97.5 -84t122.5 -31q78 0 142 32t73 91q2 23 -3.5 42.5t-21.5 33.5t-28.5 23.5t-41 18.5t-40 13.5t-44 11.5t-34.5 7q-68 16 -111 33.5t-84 48.5q-42 30 -58 78q-10 29 -9 65q0 24 4 51q20 143 140 221t269 78q104 0 188 -38.5t121 -120.5 l-157 -109q-63 96 -187 96q-68 0 -119 -28.5t-57 -79.5q-4 -25 2 -44.5t22.5 -33.5t33 -24.5t43 -18.5t43 -12t45 -10.5t39.5 -8.5q131 -33 195 -94q50 -47 50 -134q0 -25 -4 -54q-14 -104 -83.5 -175t-160 -101t-192.5 -30q-125 0 -209 39t-141 133z" />
<glyph unicode="t" horiz-adv-x="757" d="M113 811l22 160h213l37 272h184l-37 -272h265l-23 -160h-264l-64 -440q-4 -57 -8 -107q-1 -6 0 -12q0 -41 24 -71q28 -34 93 -34q84 0 135 29l-22 -168q-63 -33 -172 -33q-59 0 -103.5 11.5t-73 27t-45 44t-23.5 52t-8 63.5v19q0 28 2 46q3 24 9 67l72 506h-213z" />
<glyph unicode="u" d="M188 346l88 625h185l-82 -574q-4 -32 -4 -60q0 -83 40 -129q54 -60 150 -61q123 0 208 81t108 243l71 500h185l-138 -971h-184l21 150h-5q-47 -78 -140 -126.5t-204 -48.5q-153 -1 -239 93q-67 72 -66 198q0 37 6 80z" />
<glyph unicode="v" horiz-adv-x="1024" d="M160 971h213l186 -744l383 744h197l-518 -971h-203z" />
<glyph unicode="w" horiz-adv-x="1554" d="M160 971h207l116 -725h4l334 725h195l143 -725h4l312 725h194l-450 -971h-187l-153 725h-5l-333 -725h-199z" />
<glyph unicode="x" horiz-adv-x="1062" d="M12 0l467 518l-280 453h237l187 -344l280 344h223l-395 -453l320 -518h-238l-229 408l-344 -408h-228z" />
<glyph unicode="y" horiz-adv-x="1024" d="M-20 -465l47 168q49 -22 101 -22h5q80 0 124 37.5t87 121.5l82 154l-266 977h213l182 -758h4l381 758h199l-627 -1180q-39 -72 -68.5 -116t-73.5 -86t-100.5 -61.5t-130.5 -19.5q-96 0 -159 27z" />
<glyph unicode="z" horiz-adv-x="948" d="M72 0l22 166l643 645h-532l22 160h758l-24 -164l-646 -647h584l-22 -160h-805z" />
<glyph unicode="{" horiz-adv-x="681" d="M154 508l22 160q70 0 128 64.5t77 174.5l45 324q18 123 94 195.5t160 72.5h154l-21 -147h-92q-55 0 -87 -51.5t-42 -126.5l-45 -310q-6 -68 -33 -121t-61.5 -82.5t-63.5 -46t-51 -22.5l-2 -6q23 -2 46.5 -15.5t52 -45t36.5 -83t-2 -131.5l-43 -307q-10 -74 7.5 -125 t72.5 -51h92l-20 -147h-154q-86 0 -139.5 79.5t-30.5 233.5l37 274q12 111 -28 175.5t-109 64.5z" />
<glyph unicode="|" horiz-adv-x="454" d="M141 -37l224 1585h159l-223 -1585h-160z" />
<glyph unicode="}" horiz-adv-x="681" d="M14 -319l21 147h92q55 0 87 51t42 127l45 309q6 68 32.5 121t61.5 83t63.5 46.5t51.5 22.5l2 6q-23 2 -46.5 15.5t-52 45t-36.5 82.5t2 131l43 308q10 74 -7.5 125t-72.5 51h-92l20 147h154q86 0 139 -80t31 -233l-37 -275q-16 -109 25 -174t112 -65l-22 -160 q-72 0 -131.5 -65.5t-73.5 -174.5l-47 -323q-16 -123 -92 -195.5t-160 -72.5h-154z" />
<glyph unicode="~" horiz-adv-x="1363" d="M281 594q63 88 133.5 134t163.5 46q88 0 221 -74q4 -2 27.5 -15t29.5 -16t25.5 -13.5t29 -13.5t25.5 -8t28.5 -7t26.5 -2q107 -1 203 149l63 -127q-131 -180 -286 -180q-82 0 -228 74q-53 27 -74.5 37t-61.5 23t-70 13q-98 0 -193 -147z" />
<glyph unicode="&#xa1;" horiz-adv-x="569" d="M127 -455l145 1033h197l-145 -1033h-197zM272.5 872.5q8.5 55.5 53.5 95.5t100 40t90 -40t27 -95.5t-53.5 -95.5t-100.5 -40t-90 40t-26.5 95.5z" />
<glyph unicode="&#xa2;" d="M215 485q31 207 168 344.5t346 165.5l21 135h110l-20 -135q100 -4 185 -45t136 -110l-151 -121q-33 49 -85.5 82t-107.5 35l-98 -701q131 4 233 107l103 -119q-133 -131 -359 -148l-18 -135h-111l19 135q-199 20 -299.5 163t-71.5 347zM401.5 489.5 q-18.5 -131.5 36.5 -231.5t170 -123l99 701q-125 -18 -206 -116.5t-99.5 -230z" />
<glyph unicode="&#xa3;" d="M147 0l25 172h209l70 500h-197l20 147h197l29 205q27 190 164 320.5t350 130.5t327 -127l-143 -144q-88 98 -188 99q-119 0 -208 -80t-112 -248l-22 -156h331l-20 -147h-332l-69 -500h503l-24 -172h-910z" />
<glyph unicode="&#xa4;" d="M88 317l115 101q-82 137 -57.5 309t143.5 309l-86 101l133 114l86 -98q158 100 323 100q170 0 295 -100l115 98l100 -114l-114 -101q82 -137 57.5 -309t-143.5 -309l86 -101l-133 -116l-86 100q-150 -100 -324 -100q-168 0 -295 100l-115 -100zM304.5 727 q-21.5 -152 70.5 -259.5t244.5 -107.5t274.5 107.5t143.5 259.5t-71 259.5t-244 107.5t-274 -107.5t-144 -259.5z" />
<glyph unicode="&#xa5;" d="M186 381l19 135h350l16 109l-26 57h-316l19 135h233l-286 633h204l275 -647l471 647h209l-471 -633h237l-18 -135h-316l-43 -57l-16 -109h350l-18 -135h-350l-54 -381h-172l54 381h-351z" />
<glyph unicode="&#xa6;" horiz-adv-x="454" d="M141 -37l88 623h160l-88 -623h-160zM279 926l86 622h159l-86 -622h-159z" />
<glyph unicode="&#xa7;" d="M121 -47l190 84q14 -82 76 -121t156 -39q86 0 152.5 45t78.5 133q6 43 -22.5 80t-77.5 65.5t-109.5 57.5t-120 61.5t-107.5 70.5t-73.5 92.5t-17.5 117.5q31 211 243 309q-150 92 -129 242q14 106 88 184t172.5 115t202.5 37q121 0 217 -51.5t129 -153.5l-184 -94 q-33 123 -190 127q-86 0 -149.5 -41t-76.5 -119q-6 -49 21.5 -89t77 -68.5t110 -57.5t119.5 -61.5t107.5 -72.5t73 -99.5t14.5 -135.5q-12 -88 -66.5 -156.5t-140.5 -111.5q121 -90 98 -248q-16 -113 -91 -194.5t-176.5 -118.5t-211.5 -37q-143 0 -245.5 61.5t-137.5 186.5z M438 657q-6 -41 4.5 -72.5t37 -55t47 -37t61.5 -31.5q14 -8 22 -12l148 -76q55 31 97 80t50 100q4 35 -5 64.5t-34.5 53t-46 38t-55.5 32.5l-152 78q-160 -59 -174 -162z" />
<glyph unicode="&#xa8;" horiz-adv-x="491" d="M98 1346q8 49 51.5 82.5t92.5 33.5t83.5 -33.5t26.5 -82.5q-6 -55 -48 -92t-96 -37t-85 36.5t-25 92.5zM516 1346q8 49 51 82.5t92.5 33.5t84 -33.5t26.5 -82.5q-6 -55 -48 -92t-96.5 -37t-85 36.5t-24.5 92.5z" />
<glyph unicode="&#xa9;" horiz-adv-x="1638" d="M159.5 725q28.5 207 155.5 382t316.5 277.5t396.5 102.5t367.5 -102.5t238.5 -277.5t49.5 -382t-155.5 -382t-317.5 -277.5t-396.5 -102.5t-367.5 102.5t-238.5 277.5t-48.5 382zM295 725q-25 -170 38.5 -314.5t197 -228.5t303.5 -84q258 0 467.5 183.5t246.5 443.5 q23 170 -40.5 314.5t-195.5 228.5t-302 84q-260 0 -469 -183.5t-246 -443.5zM473 731q31 215 166 341t348 126q156 0 248 -81t96 -232h-157q-20 166 -205 166q-143 0 -228.5 -83t-107.5 -233q-18 -139 48.5 -231t201.5 -92q186 0 247 174h158q-53 -147 -166.5 -234.5 t-259.5 -87.5q-211 0 -314.5 128t-74.5 339z" />
<glyph unicode="&#xaa;" horiz-adv-x="690" d="M215 1034q6 49 29.5 86t61.5 59.5t76 36t91 19.5t89 8t83 2h25l4 21q6 41 -28 69.5t-97 28.5q-109 0 -193 -68l-59 93q111 86 264 86q86 0 141.5 -17.5t78 -45.5t30.5 -64.5t-2 -75.5l-55 -402h-136l13 91l-4 2q-63 -104 -219 -105q-90 0 -147.5 46t-45.5 130zM352 1042 q-12 -74 111 -73q84 0 132 37.5t56 101.5l6 39h-4q-49 0 -76.5 -1t-74.5 -6t-74 -15.5t-49.5 -31t-26.5 -51.5z" />
<glyph unicode="&#xab;" horiz-adv-x="1024" d="M166 498l360 442l115 -84l-291 -358l193 -359l-140 -84zM571 498l361 442l115 -84l-291 -358l192 -359l-139 -84z" />
<glyph unicode="&#xac;" horiz-adv-x="1363" d="M233 700l23 160h1094l-80 -571h-160l57 411h-934z" />
<glyph unicode="&#xad;" horiz-adv-x="647" d="M129 410l25 172h503l-24 -172h-504z" />
<glyph unicode="&#xae;" horiz-adv-x="1638" d="M159.5 725q28.5 207 155.5 382t316.5 277.5t396.5 102.5t367.5 -102.5t238.5 -277.5t49.5 -382t-155.5 -382t-317.5 -277.5t-396.5 -102.5t-367.5 102.5t-238.5 277.5t-48.5 382zM295 725q-25 -170 38.5 -314.5t197 -228.5t303.5 -84q258 0 467.5 183.5t246.5 443.5 q23 170 -40.5 314.5t-195.5 228.5t-302 84q-260 0 -469 -183.5t-246 -443.5zM567 295l123 870h336q154 0 221.5 -67.5t48.5 -194.5q-14 -109 -79.5 -168t-161.5 -71l174 -369h-168l-166 356h-117l-51 -356h-160zM797 786h116q45 0 76 3.5t66 14.5t56.5 37.5t25.5 67.5 q6 33 -3.5 57.5t-26.5 37t-46 18.5t-53.5 7t-59.5 1h-117z" />
<glyph unicode="&#xaf;" horiz-adv-x="491" d="M123 1229l20 135h590l-20 -135h-590z" />
<glyph unicode="&#xb0;" horiz-adv-x="819" d="M269.5 1170q17.5 126 120 215.5t228 89.5t202.5 -90.5t59.5 -216.5t-120 -215t-228 -89t-202.5 90t-59.5 216zM403.5 1169.5q-10.5 -71.5 32.5 -121t114 -49.5t127 50.5t66.5 120t-32.5 119.5t-114 50t-127 -49t-66.5 -120.5z" />
<glyph unicode="&#xb1;" horiz-adv-x="1363" d="M150 104l22 160h1094l-23 -160h-1093zM225 645l23 160h467l47 334h160l-48 -334h467l-22 -160h-467l-43 -307h-160l43 307h-467z" />
<glyph unicode="&#xb2;" horiz-adv-x="739" d="M137 592l21 156l413 327q102 84 113 150q8 53 -25.5 83.5t-91.5 30.5q-59 0 -101 -32.5t-54 -87.5l-172 12q29 117 122 180.5t224 63.5q135 0 211.5 -63.5t58.5 -182.5q-10 -76 -55 -134.5t-125 -119.5l-324 -248h436l-18 -135h-633z" />
<glyph unicode="&#xb3;" horiz-adv-x="739" d="M160 782l174 41q18 -109 139 -108q66 0 117 36.5t59 94.5q18 135 -190 131h-35l18 135h37q41 0 70 4t59.5 15.5t49 36t22.5 61.5q8 49 -24.5 79.5t-92.5 30.5q-106 0 -153 -92l-166 41q43 92 131 139.5t198 47.5q129 0 207 -60.5t62 -169.5q-8 -72 -59.5 -126t-127.5 -70 v-5q84 -10 124 -68t28 -142q-16 -119 -117.5 -186.5t-234.5 -67.5q-123 0 -202 50t-93 152z" />
<glyph unicode="&#xb4;" horiz-adv-x="491" d="M272 1155l256 295h263l-349 -295h-170z" />
<glyph unicode="&#xb6;" horiz-adv-x="1228" d="M250 1030q27 199 167 309.5t359 110.5h510l-242 -1708h-159l221 1573h-229l-222 -1573h-159l129 909q-186 0 -292 108.5t-83 270.5z" />
<glyph unicode="&#xb7;" horiz-adv-x="569" d="M236.5 620.5q7.5 55.5 53.5 95.5t101 40t89 -40t27 -95.5t-53 -95.5t-101.5 -40t-89.5 40t-26.5 95.5z" />
<glyph unicode="&#xb8;" horiz-adv-x="491" d="M-49 -420l51 82q72 -31 156 -31q47 0 88 19.5t49 66.5q4 37 -11.5 57.5t-46 23.5t-61.5 0t-65 -13l-37 37l149 178h101l-109 -125h59q78 2 128.5 -37t39.5 -110q-14 -100 -97 -147.5t-185 -47.5q-119 0 -209 47z" />
<glyph unicode="&#xb9;" horiz-adv-x="739" d="M233 1274l291 201h146l-123 -883h-148l103 735l-195 -147z" />
<glyph unicode="&#xba;" horiz-adv-x="790" d="M223.5 1165.5q20.5 139.5 123 224.5t256 85t233 -85t59 -224.5t-122.5 -223.5t-256 -84t-233.5 84t-59 223.5zM370.5 1165q-12.5 -86 30.5 -135t132.5 -49t145.5 49t68.5 135t-30.5 136.5t-132 50.5t-145.5 -50.5t-69 -136.5z" />
<glyph unicode="&#xbb;" horiz-adv-x="1024" d="M119 139l289 359l-191 358l139 84l236 -442l-359 -443zM524 139l289 359l-190 358l139 84l235 -442l-358 -443z" />
<glyph unicode="&#xbc;" horiz-adv-x="1708" d="M246 1274l291 201h145l-123 -883h-147l102 735l-195 -147zM311 0l1112 1516l115 -66l-1112 -1516zM1004 193l16 118l457 572h161l-79 -555h127l-19 -135h-127l-27 -193h-135l27 193h-401zM1169 328h242l55 383h-4z" />
<glyph unicode="&#xbd;" horiz-adv-x="1708" d="M242 1274l290 201h146l-123 -883h-147l102 735l-195 -147zM287 0l1112 1516l114 -66l-1112 -1516zM1012 0l22 156l412 327q104 84 113 150q8 53 -26 84t-91 31t-100.5 -33t-55.5 -88l-170 12q27 117 121 180.5t225 63.5q133 0 210 -63.5t61 -182.5q-10 -76 -56.5 -134.5 t-126.5 -119.5l-323 -248h436l-18 -135h-633z" />
<glyph unicode="&#xbe;" horiz-adv-x="1708" d="M158 782l174 41q18 -109 139 -108q66 0 117 36.5t59 94.5q18 135 -190 131h-35l18 135h37q41 0 69.5 4t59.5 15.5t49.5 36t22.5 61.5q8 49 -24.5 79.5t-92.5 30.5q-106 0 -153 -92l-166 41q43 92 131 139.5t198 47.5q129 0 207 -60.5t62 -169.5q-8 -72 -59.5 -126 t-127.5 -70v-5q84 -10 124 -68t28 -142q-16 -119 -117.5 -186.5t-234.5 -67.5q-123 0 -202 50t-93 152zM393 0l1112 1516l115 -66l-1112 -1516zM1044 193l17 118l457 572h161l-80 -555h127l-18 -135h-127l-27 -193h-135l27 193h-402zM1223 328h241l56 383h-4z" />
<glyph unicode="&#xbf;" horiz-adv-x="1024" d="M49 -113q20 137 121 246l141 127l23 19q74 61 97.5 98t35.5 123l12 90h197l-17 -125q-6 -45 -17 -79t-20.5 -54.5t-39 -51t-43 -43t-64.5 -55.5q-8 -6 -49 -39.5t-52.5 -45t-41 -42t-41.5 -50t-25.5 -49.5t-17.5 -58q-12 -92 41 -154.5t145 -62.5q98 0 171 63t100 166 l204 -21q-49 -176 -185 -278.5t-318 -102.5q-178 0 -279.5 101.5t-77.5 277.5zM485.5 872.5q8.5 55.5 53.5 95.5t100 40t90 -40t27 -95.5t-53.5 -95.5t-100.5 -40t-90 40t-26.5 95.5z" />
<glyph unicode="&#xc0;" horiz-adv-x="1441" d="M2 0l844 1450h178l416 -1450h-230l-94 358h-690l-195 -358h-229zM518 530h549l-176 666h-4zM639 1827h262l170 -295h-170z" />
<glyph unicode="&#xc1;" horiz-adv-x="1441" d="M2 0l844 1450h178l416 -1450h-230l-94 358h-690l-195 -358h-229zM518 530h549l-176 666h-4zM801 1532l256 295h262l-348 -295h-170z" />
<glyph unicode="&#xc2;" horiz-adv-x="1441" d="M2 0l844 1450h178l416 -1450h-230l-94 358h-690l-195 -358h-229zM518 530h549l-176 666h-4zM598 1532l272 295h217l187 -295h-187l-122 197l-181 -197h-186z" />
<glyph unicode="&#xc3;" horiz-adv-x="1441" d="M2 0l844 1450h178l416 -1450h-230l-94 358h-690l-195 -358h-229zM518 530h549l-176 666h-4zM596 1556q29 88 90 151q61 62 148 62q55 0 163 -47q10 -4 27 -12q16 -8 26 -12q9 -4 24 -7t30 -3q74 0 113 90h98q-27 -90 -83 -152q-56 -61 -138 -61q-59 0 -162 43 q-90 39 -129 39q-68 -1 -109 -91h-98z" />
<glyph unicode="&#xc4;" horiz-adv-x="1441" d="M2 0l844 1450h178l416 -1450h-230l-94 358h-690l-195 -358h-229zM518 530h549l-176 666h-4zM627 1722q8 49 51 83t92 34t84 -34t27 -83q-6 -55 -48 -92t-97 -37q-54 0 -85 37t-24 92zM1044 1722q8 49 52 83q43 34 92 34t84 -34t26 -83q-6 -55 -48 -92t-96 -37t-85 37 t-25 92z" />
<glyph unicode="&#xc5;" horiz-adv-x="1441" d="M2 0l844 1450h178l416 -1450h-230l-94 358h-690l-195 -358h-229zM518 530h549l-176 666h-4zM748 1690q12 84 82 143q71 59 155 59q88 0 141 -58t41 -142q-10 -86 -81 -145q-71 -58 -156 -58q-84 0 -138 58q-54 59 -44 143zM834 1690q-6 -47 26 -81q33 -34 81 -34t90 34 t48 81q8 49 -23 83q-32 34 -82 33q-50 0 -91 -33q-41 -34 -49 -83z" />
<glyph unicode="&#xc6;" horiz-adv-x="1972" d="M-16 0l1142 1450h934l-26 -184h-604l-62 -432h567l-24 -185h-568l-65 -465h629l-27 -184h-825l49 352h-623l-256 -352h-241zM614 537h516l103 729h-39z" />
<glyph unicode="&#xc7;" horiz-adv-x="1441" d="M197 713q47 340 288 557q242 217 576 217q150 0 278 -57q129 -57 199 -168l-182 -125q-49 78 -137 121q-88 44 -191 45q-240 0 -414 -169t-208 -421q-23 -154 23 -282t160 -206t277 -78q240 0 406 195l149 -125q-27 -31 -68 -65q-42 -35 -116 -82t-179 -77t-222 -30 q-166 0 -300 66t-212 173q-78 108 -113 240q-35 133 -14 271zM467 -420l51 82q72 -31 156 -31q47 0 88 20q41 19 49 66q4 37 -11 58q-15 20 -46 23t-62 0t-65 -13l-37 37l149 178h101l-109 -125h60q78 2 128 -37t39 -110q-14 -100 -97 -148q-83 -47 -185 -47q-119 0 -209 47 z" />
<glyph unicode="&#xc8;" horiz-adv-x="1251" d="M186 0l205 1450h936l-27 -184h-739l-61 -432h688l-25 -185h-688l-65 -465h776l-27 -184h-973zM545 1827h262l170 -295h-170z" />
<glyph unicode="&#xc9;" horiz-adv-x="1251" d="M186 0l205 1450h936l-27 -184h-739l-61 -432h688l-25 -185h-688l-65 -465h776l-27 -184h-973zM707 1532l256 295h262l-348 -295h-170z" />
<glyph unicode="&#xca;" horiz-adv-x="1251" d="M186 0l205 1450h936l-27 -184h-739l-61 -432h688l-25 -185h-688l-65 -465h776l-27 -184h-973zM504 1532l272 295h217l187 -295h-187l-123 197l-180 -197h-186z" />
<glyph unicode="&#xcb;" horiz-adv-x="1251" d="M186 0l205 1450h936l-27 -184h-739l-61 -432h688l-25 -185h-688l-65 -465h776l-27 -184h-973zM532 1722q8 49 52 83q43 34 92 34t84 -34t26 -83q-6 -55 -48 -92t-96 -37t-85 37t-25 92zM950 1722q8 49 51 83q44 34 93 34t84 -34t26 -83q-6 -55 -48 -92t-96 -37t-85 37 t-25 92z" />
<glyph unicode="&#xcc;" horiz-adv-x="569" d="M186 0l205 1450h197l-205 -1450h-197zM203 1827h262l170 -295h-170z" />
<glyph unicode="&#xcd;" horiz-adv-x="569" d="M186 0l205 1450h197l-205 -1450h-197zM365 1532l256 295h262l-348 -295h-170z" />
<glyph unicode="&#xce;" horiz-adv-x="569" d="M162 1532l272 295h217l187 -295h-187l-123 197l-180 -197h-186zM186 0l205 1450h197l-205 -1450h-197z" />
<glyph unicode="&#xcf;" horiz-adv-x="569" d="M186 0l205 1450h197l-205 -1450h-197zM190 1722q8 49 52 83q43 34 92 34t84 -34t26 -83q-6 -55 -48 -92t-96 -37t-85 37t-25 92zM608 1722q8 49 51 83q44 34 93 34t84 -34t26 -83q-6 -55 -48 -92t-96 -37t-85 37t-25 92z" />
<glyph unicode="&#xd0;" horiz-adv-x="1517" d="M102 688l19 135h147l90 627h506q125 0 229.5 -25.5t174 -70.5t124 -104.5t81 -126t44 -137.5t14.5 -136.5t-7 -124.5q-20 -141 -91 -270t-182.5 -231.5t-273.5 -163t-350 -60.5h-473l96 688h-148zM377 184h248q170 0 314 59.5t247.5 184.5t128.5 297q2 41 5 88t-9.5 99.5 t-30.5 102.5t-58 96t-91.5 80t-131 54.5t-176.5 20.5h-295l-63 -443h479l-18 -135h-480z" />
<glyph unicode="&#xd1;" horiz-adv-x="1630" d="M186 0l205 1450h258l631 -1192h4l168 1192h197l-205 -1450h-250l-639 1192h-4l-168 -1192h-197zM690 1556q29 88 90 151q61 62 148 62q55 0 164 -47q10 -4 26 -12t26 -12q9 -4 24 -7t30 -3q74 0 113 90h98q-27 -90 -83 -152q-56 -61 -138 -61q-59 0 -162 43 q-90 39 -129 39q-68 -1 -109 -91h-98z" />
<glyph unicode="&#xd2;" horiz-adv-x="1703" d="M199 725q45 326 288 544q244 218 574 218q217 0 377 -101q160 -100 230 -274q71 -174 42 -387q-47 -326 -291 -544q-243 -218 -573 -218q-217 0 -376 100t-230 275q-72 174 -41 387zM407 725q-34 -244 94 -411q127 -167 371 -167t419 167t209 411t-94 411t-371 167 t-419 -167t-209 -411zM770 1827h262l170 -295h-170z" />
<glyph unicode="&#xd3;" horiz-adv-x="1703" d="M199 725q45 326 288 544q244 218 574 218q217 0 377 -101q160 -100 230 -274q71 -174 42 -387q-47 -326 -291 -544q-243 -218 -573 -218q-217 0 -376 100t-230 275q-72 174 -41 387zM407 725q-34 -244 94 -411q127 -167 371 -167t419 167t209 411t-94 411t-371 167 t-419 -167t-209 -411zM932 1532l256 295h262l-348 -295h-170z" />
<glyph unicode="&#xd4;" horiz-adv-x="1703" d="M199 725q45 326 288 544q244 218 574 218q217 0 377 -101q160 -100 230 -274q71 -174 42 -387q-47 -326 -291 -544q-243 -218 -573 -218q-217 0 -376 100t-230 275q-72 174 -41 387zM407 725q-34 -244 94 -411q127 -167 371 -167t419 167t209 411t-94 411t-371 167 t-419 -167t-209 -411zM729 1532l272 295h218l186 -295h-186l-123 197l-181 -197h-186z" />
<glyph unicode="&#xd5;" horiz-adv-x="1703" d="M199 725q45 326 288 544q244 218 574 218q217 0 377 -101q160 -100 230 -274q71 -174 42 -387q-47 -326 -291 -544q-243 -218 -573 -218q-217 0 -376 100t-230 275q-72 174 -41 387zM407 725q-34 -244 94 -411q127 -167 371 -167t419 167t209 411t-94 411t-371 167 t-419 -167t-209 -411zM727 1556q29 88 90 151q61 62 148 62q55 0 163 -47q10 -4 27 -12q16 -8 26 -12q9 -4 24 -7t30 -3q74 0 113 90h98q-27 -90 -83 -152q-56 -61 -138 -61q-59 0 -162 43q-90 39 -129 39q-68 -1 -109 -91h-98z" />
<glyph unicode="&#xd6;" horiz-adv-x="1703" d="M199 725q45 326 288 544q244 218 574 218q217 0 377 -101q160 -100 230 -274q71 -174 42 -387q-47 -326 -291 -544q-243 -218 -573 -218q-217 0 -376 100t-230 275q-72 174 -41 387zM407 725q-34 -244 94 -411q127 -167 371 -167t419 167t209 411t-94 411t-371 167 t-419 -167t-209 -411zM758 1722q8 49 51 83t92 34t84 -34t27 -83q-6 -55 -48 -92t-97 -37q-54 0 -85 37t-24 92zM1176 1722q8 49 51 83t92 34t84 -34t27 -83q-6 -55 -49 -92q-42 -37 -96 -37t-85 37t-24 92z" />
<glyph unicode="&#xd7;" horiz-adv-x="1363" d="M166 188l491 433l-374 434l129 112l372 -434l498 434l94 -112l-493 -434l372 -435l-131 -112l-370 434l-494 -434z" />
<glyph unicode="&#xd8;" horiz-adv-x="1703" d="M115 16l200 191q-160 213 -116 518q45 326 288.5 544t573.5 218q270 0 448 -156l197 185l76 -78l-197 -185q168 -211 125 -528q-47 -326 -290.5 -544t-573.5 -218q-279 0 -455 162l-198 -186zM408 725q-31 -213 65 -371l885 834q-129 115 -324 115q-242 0 -418 -167 t-208 -411zM541 268q131 -121 331 -121q244 0 419 167t210 411q30 223 -74 381z" />
<glyph unicode="&#xd9;" horiz-adv-x="1441" d="M233 530l132 920h196l-125 -889q-6 -55 -5 -112t23 -112q22 -54 54 -96q33 -42 94 -68t139 -26q98 0 178 39q79 39 128 102q49 62 78 132q30 70 40 141l125 889h197l-131 -920q-35 -250 -217 -408q-182 -159 -423 -159t-379 159t-104 408zM639 1827h262l170 -295h-170z " />
<glyph unicode="&#xda;" horiz-adv-x="1441" d="M233 530l132 920h196l-125 -889q-6 -55 -5 -112t23 -112q22 -54 54 -96q33 -42 94 -68t139 -26q98 0 178 39q79 39 128 102q49 62 78 132q30 70 40 141l125 889h197l-131 -920q-35 -250 -217 -408q-182 -159 -423 -159t-379 159t-104 408zM801 1532l256 295h262 l-348 -295h-170z" />
<glyph unicode="&#xdb;" horiz-adv-x="1441" d="M233 530l132 920h196l-125 -889q-6 -55 -5 -112t23 -112q22 -54 54 -96q33 -42 94 -68t139 -26q98 0 178 39q79 39 128 102q49 62 78 132q30 70 40 141l125 889h197l-131 -920q-35 -250 -217 -408q-182 -159 -423 -159t-379 159t-104 408zM598 1532l272 295h217l187 -295 h-187l-122 197l-181 -197h-186z" />
<glyph unicode="&#xdc;" horiz-adv-x="1441" d="M233 530l132 920h196l-125 -889q-6 -55 -5 -112t23 -112q22 -54 54 -96q33 -42 94 -68t139 -26q98 0 178 39q79 39 128 102q49 62 78 132q30 70 40 141l125 889h197l-131 -920q-35 -250 -217 -408q-182 -159 -423 -159t-379 159t-104 408zM627 1722q8 49 51 83t92 34 t84 -34t27 -83q-6 -55 -48 -92t-97 -37q-54 0 -85 37t-24 92zM1044 1722q8 49 52 83q43 34 92 34t84 -34t26 -83q-6 -55 -48 -92t-96 -37t-85 37t-25 92z" />
<glyph unicode="&#xdd;" horiz-adv-x="1253" d="M184 1450h252l305 -637l498 637h240l-668 -832l-86 -618h-197l86 618zM707 1532l256 295h262l-348 -295h-170z" />
<glyph unicode="&#xde;" horiz-adv-x="1214" d="M186 0l205 1450h197l-43 -297h313q106 0 187 -24.5t124 -65.5t71 -94.5t29 -109.5t-3 -111q-10 -76 -41 -141.5t-89.5 -128t-158.5 -99.5t-234 -37h-313l-47 -342h-197zM455 514h258q66 0 118 9t102 33t82 73t42 118.5t-8.5 118.5t-62.5 73t-93 33t-115 9h-258z" />
<glyph unicode="&#xdf;" horiz-adv-x="1251" d="M139 0l148 1042q12 94 33.5 167t61.5 143.5t96.5 117t143.5 75t199 28.5q178 0 282.5 -98.5t80.5 -272.5q-16 -123 -88 -205t-183 -112l-2 -4q63 -10 118.5 -40t100 -80t64.5 -131t6 -179q-31 -217 -187.5 -346.5t-375.5 -129.5q-74 0 -141 19l22 166q51 -12 107 -13 q154 0 257 85t124 235q23 156 -65.5 236.5t-246.5 80.5h-28l24 172h33q104 0 176 60.5t86 163.5q16 115 -44 168t-155 53q-266 0 -313 -336l-149 -1065h-185z" />
<glyph unicode="&#xe0;" horiz-adv-x="1062" d="M129 266q14 90 65 157q50 67 130 105q80 39 176 57q96 17 211 17h135l6 41q12 82 -40 143t-163 62q-61 0 -117 -18q-55 -17 -83 -33q-29 -16 -76 -49q-11 -7 -15 -11l-96 115q86 70 194 106q108 37 212 37q203 0 291 -93q89 -93 69 -230l-70 -496q-14 -109 -16 -176h-164 q4 74 15 147h-5q-137 -172 -364 -172q-141 0 -227 78t-68 213zM315 281q-10 -80 39 -119t148 -39q141 0 221 84t96 199l8 61h-98q-387 0 -414 -186zM397 1450h262l170 -295h-170z" />
<glyph unicode="&#xe1;" horiz-adv-x="1062" d="M129 266q14 90 65 157q50 67 130 105q80 39 176 57q96 17 211 17h135l6 41q12 82 -40 143t-163 62q-61 0 -117 -18q-55 -17 -83 -33q-29 -16 -76 -49q-11 -7 -15 -11l-96 115q86 70 194 106q108 37 212 37q203 0 291 -93q89 -93 69 -230l-70 -496q-14 -109 -16 -176h-164 q4 74 15 147h-5q-137 -172 -364 -172q-141 0 -227 78t-68 213zM315 281q-10 -80 39 -119t148 -39q141 0 221 84t96 199l8 61h-98q-387 0 -414 -186zM559 1155l256 295h262l-348 -295h-170z" />
<glyph unicode="&#xe2;" horiz-adv-x="1062" d="M129 266q14 90 65 157q50 67 130 105q80 39 176 57q96 17 211 17h135l6 41q12 82 -40 143t-163 62q-61 0 -117 -18q-55 -17 -83 -33q-29 -16 -76 -49q-11 -7 -15 -11l-96 115q86 70 194 106q108 37 212 37q203 0 291 -93q89 -93 69 -230l-70 -496q-14 -109 -16 -176h-164 q4 74 15 147h-5q-137 -172 -364 -172q-141 0 -227 78t-68 213zM315 281q-10 -80 39 -119t148 -39q141 0 221 84t96 199l8 61h-98q-387 0 -414 -186zM356 1155l273 295h217l186 -295h-186l-123 197l-180 -197h-187z" />
<glyph unicode="&#xe3;" horiz-adv-x="1062" d="M129 266q14 90 65 157q50 67 130 105q80 39 176 57q96 17 211 17h135l6 41q12 82 -40 143t-163 62q-61 0 -117 -18q-55 -17 -83 -33q-29 -16 -76 -49q-11 -7 -15 -11l-96 115q86 70 194 106q108 37 212 37q203 0 291 -93q89 -93 69 -230l-70 -496q-14 -109 -16 -176h-164 q4 74 15 147h-5q-137 -172 -364 -172q-141 0 -227 78t-68 213zM315 281q-10 -80 39 -119t148 -39q141 0 221 84t96 199l8 61h-98q-387 0 -414 -186zM354 1180q29 88 90 150t148 63q55 0 164 -47q10 -4 26 -13q16 -8 26 -12q9 -4 25 -7q15 -3 29 -3q74 0 113 90h98 q-27 -90 -83 -152q-56 -61 -138 -61q-59 0 -162 43q-90 39 -129 39q-67 0 -108 -90h-99z" />
<glyph unicode="&#xe4;" horiz-adv-x="1062" d="M129 266q14 90 65 157q50 67 130 105q80 39 176 57q96 17 211 17h135l6 41q12 82 -40 143t-163 62q-61 0 -117 -18q-55 -17 -83 -33q-29 -16 -76 -49q-11 -7 -15 -11l-96 115q86 70 194 106q108 37 212 37q203 0 291 -93q89 -93 69 -230l-70 -496q-14 -109 -16 -176h-164 q4 74 15 147h-5q-137 -172 -364 -172q-141 0 -227 78t-68 213zM315 281q-10 -80 39 -119t148 -39q141 0 221 84t96 199l8 61h-98q-387 0 -414 -186zM385 1346q8 49 51 82q43 34 92 34t84 -34t27 -82q-6 -55 -48 -93q-42 -37 -96 -36q-54 0 -85 36q-31 37 -25 93zM803 1346 q8 49 51 82q43 34 92 34t84 -34t27 -82q-6 -55 -48 -93q-42 -37 -97 -36q-54 0 -85 36q-31 37 -24 93z" />
<glyph unicode="&#xe5;" horiz-adv-x="1062" d="M129 266q14 90 65 157q50 67 130 105q80 39 176 57q96 17 211 17h135l6 41q12 82 -40 143t-163 62q-61 0 -117 -18q-55 -17 -83 -33q-29 -16 -76 -49q-11 -7 -15 -11l-96 115q86 70 194 106q108 37 212 37q203 0 291 -93q89 -93 69 -230l-70 -496q-14 -109 -16 -176h-164 q4 74 15 147h-5q-137 -172 -364 -172q-141 0 -227 78t-68 213zM315 281q-10 -80 39 -119t148 -39q141 0 221 84t96 199l8 61h-98q-387 0 -414 -186zM510 1333q12 84 83 144q71 59 155 59q88 0 141 -58t41 -143q-10 -86 -81 -144t-157 -58q-84 0 -138 58t-44 142zM596 1333 q-6 -47 27 -81t80 -33q48 0 91 33q42 34 48 81q8 49 -24 83t-82 34t-91 -34t-49 -83z" />
<glyph unicode="&#xe6;" horiz-adv-x="1744" d="M119 276q12 82 55 141.5t107.5 90.5t134 44t147.5 13h287l4 31q14 109 -39 180.5t-170 71.5q-80 0 -145.5 -26.5t-143.5 -84.5l-98 117q84 68 192.5 104.5t213.5 36.5q111 0 197.5 -37.5t129.5 -117.5q160 156 361 155q90 0 159.5 -24.5t110.5 -65.5t69.5 -93t37 -106.5 t12.5 -107.5t-4 -94l-13 -86h-723q-18 -123 49.5 -209t200.5 -86q168 0 275 153l133 -112q-102 -102 -203.5 -151.5t-230.5 -49.5q-260 0 -351 199q-174 -199 -425 -199q-182 0 -265.5 93.5t-64.5 219.5zM315 276q-10 -70 43.5 -117.5t137.5 -47.5q119 0 215 76.5t114 201.5 l4 29h-290q-106 0 -159.5 -35t-64.5 -107zM1022 565h526q14 123 -37 197t-184 74q-125 0 -207 -77t-98 -194z" />
<glyph unicode="&#xe7;" horiz-adv-x="987" d="M160 481q31 225 192 369q162 143 387 143q232 1 353 -153l-158 -127q-88 109 -227 108q-143 0 -237 -99q-93 -99 -114 -245q-20 -139 54 -234t213 -96q143 0 251 109l113 -131q-158 -150 -391 -150q-223 0 -345 142q-122 141 -91 364zM260 -420l51 82q72 -31 156 -31 q47 0 88 20q41 19 49 66q4 37 -11 58q-15 20 -46 23t-62 0t-65 -13l-37 37l149 178h101l-109 -125h60q78 2 128 -37t40 -110q-14 -100 -98 -148q-83 -47 -185 -47q-119 0 -209 47z" />
<glyph unicode="&#xe8;" d="M150 485q31 219 193 365q163 145 380 145q100 0 177 -29q77 -30 123 -79t75 -115t31 -139q3 -74 -5 -150l-8 -65h-778q-18 -123 69 -203t218 -80q147 0 286 146l125 -107q-180 -199 -458 -199q-225 0 -342 145q-117 144 -86 365zM358 565h582q14 127 -46 205t-196 78 q-129 0 -227 -89q-99 -90 -113 -194zM434 1450h262l170 -295h-170z" />
<glyph unicode="&#xe9;" d="M150 485q31 219 193 365q163 145 380 145q100 0 177 -29q77 -30 123 -79t75 -115t31 -139q3 -74 -5 -150l-8 -65h-778q-18 -123 69 -203t218 -80q147 0 286 146l125 -107q-180 -199 -458 -199q-225 0 -342 145q-117 144 -86 365zM358 565h582q14 127 -46 205t-196 78 q-129 0 -227 -89q-99 -90 -113 -194zM596 1155l256 295h262l-348 -295h-170z" />
<glyph unicode="&#xea;" d="M150 485q31 219 193 365q163 145 380 145q100 0 177 -29q77 -30 123 -79t75 -115t31 -139q3 -74 -5 -150l-8 -65h-778q-18 -123 69 -203t218 -80q147 0 286 146l125 -107q-180 -199 -458 -199q-225 0 -342 145q-117 144 -86 365zM358 565h582q14 127 -46 205t-196 78 q-129 0 -227 -89q-99 -90 -113 -194zM393 1155l273 295h217l186 -295h-186l-123 197l-180 -197h-187z" />
<glyph unicode="&#xeb;" d="M150 485q31 219 193 365q163 145 380 145q100 0 177 -29q77 -30 123 -79t75 -115t31 -139q3 -74 -5 -150l-8 -65h-778q-18 -123 69 -203t218 -80q147 0 286 146l125 -107q-180 -199 -458 -199q-225 0 -342 145q-117 144 -86 365zM358 565h582q14 127 -46 205t-196 78 q-129 0 -227 -89q-99 -90 -113 -194zM422 1346q8 49 51 82q43 34 92 34t84 -34t27 -82q-6 -55 -48 -93q-42 -37 -97 -36q-54 0 -85 36q-31 37 -24 93zM840 1346q8 49 51 82q43 34 92 34t84 -34t27 -82q-6 -55 -48 -93q-42 -37 -97 -36q-54 0 -85 36q-31 37 -24 93z" />
<glyph unicode="&#xec;" horiz-adv-x="491" d="M111 1450h262l170 -295h-170zM154 0l137 971h184l-137 -971h-184z" />
<glyph unicode="&#xed;" horiz-adv-x="491" d="M154 0l137 971h184l-137 -971h-184zM272 1155l256 295h263l-349 -295h-170z" />
<glyph unicode="&#xee;" horiz-adv-x="491" d="M70 1155l272 295h217l186 -295h-186l-123 197l-180 -197h-186zM154 0l137 971h184l-137 -971h-184z" />
<glyph unicode="&#xef;" horiz-adv-x="491" d="M98 1346q8 49 52 82q43 34 92 34t84 -34t26 -82q-6 -55 -48 -93q-42 -37 -96 -36q-54 0 -85 36q-31 37 -25 93zM154 0l137 971h184l-137 -971h-184zM516 1346q8 49 51 82q43 34 92 34t84 -34t27 -82q-6 -55 -48 -93q-42 -37 -96 -36q-54 0 -85 36q-31 37 -25 93z" />
<glyph unicode="&#xf0;" horiz-adv-x="1216" d="M160.5 485q29.5 213 200.5 361.5t387 148.5q168 0 241 -102l6 4q-76 176 -243 369l-234 -107l-84 94l232 109l-154 145l176 95l160 -160l235 106l95 -90l-246 -112q154 -193 227.5 -383.5t42.5 -411.5q-37 -262 -196.5 -419t-401.5 -157q-215 0 -344 148.5t-99.5 361.5z M357.5 485.5q-21.5 -149.5 52 -244t219 -94.5t246 94.5t122 244t-52.5 243.5t-220 94t-245.5 -94t-121 -243.5z" />
<glyph unicode="&#xf1;" d="M139 0l137 971h185l-23 -150h4q47 78 141 126q93 48 203 48q154 0 240 -93t61 -277l-88 -625h-184l80 573q18 129 -35 190q-53 60 -151 60q-121 0 -207 -81t-109 -242l-69 -500h-185zM391 1180q29 88 90 150t148 63q55 0 164 -47q10 -4 26 -13q16 -8 26 -12q9 -4 24 -7 t30 -3q74 0 113 90h98q-27 -90 -83 -152q-56 -61 -138 -61q-59 0 -162 43q-90 39 -129 39q-68 0 -109 -90h-98z" />
<glyph unicode="&#xf2;" horiz-adv-x="1216" d="M161 485q30 213 200 362q171 148 388 148q216 0 345 -148t99 -362q-30 -213 -201 -361t-387 -149q-216 0 -345 149q-129 148 -99 361zM357 485q-22 -150 53 -243q74 -94 219 -95q145 0 245 95q100 94 122 243q22 150 -52 244t-220 94t-246 -94q-99 -94 -121 -244z M473 1450h262l170 -295h-170z" />
<glyph unicode="&#xf3;" horiz-adv-x="1216" d="M161 485q30 213 200 362q171 148 388 148q216 0 345 -148t99 -362q-30 -213 -201 -361t-387 -149q-216 0 -345 149q-129 148 -99 361zM357 485q-22 -150 53 -243q74 -94 219 -95q145 0 245 95q100 94 122 243q22 150 -52 244t-220 94t-246 -94q-99 -94 -121 -244z M635 1155l256 295h262l-348 -295h-170z" />
<glyph unicode="&#xf4;" horiz-adv-x="1216" d="M161 485q30 213 200 362q171 148 388 148q216 0 345 -148t99 -362q-30 -213 -201 -361t-387 -149q-216 0 -345 149q-129 148 -99 361zM357 485q-22 -150 53 -243q74 -94 219 -95q145 0 245 95q100 94 122 243q22 150 -52 244t-220 94t-246 -94q-99 -94 -121 -244z M432 1155l273 295h217l186 -295h-186l-123 197l-181 -197h-186z" />
<glyph unicode="&#xf5;" horiz-adv-x="1216" d="M161 485q30 213 200 362q171 148 388 148q216 0 345 -148t99 -362q-30 -213 -201 -361t-387 -149q-216 0 -345 149q-129 148 -99 361zM357 485q-22 -150 53 -243q74 -94 219 -95q145 0 245 95q100 94 122 243q22 150 -52 244t-220 94t-246 -94q-99 -94 -121 -244z M430 1180q29 88 90 150t148 63q55 0 163 -47q10 -4 27 -13q16 -8 26 -12q9 -4 24 -7t30 -3q74 0 113 90h98q-27 -90 -83 -152q-56 -61 -138 -61q-59 0 -162 43q-90 39 -129 39q-68 0 -109 -90h-98z" />
<glyph unicode="&#xf6;" horiz-adv-x="1216" d="M161 485q30 213 200 362q171 148 388 148q216 0 345 -148t99 -362q-30 -213 -201 -361t-387 -149q-216 0 -345 149q-129 148 -99 361zM357 485q-22 -150 53 -243q74 -94 219 -95q145 0 245 95q100 94 122 243q22 150 -52 244t-220 94t-246 -94q-99 -94 -121 -244z M461 1346q8 49 51 82q43 34 92 34t84 -34t27 -82q-6 -55 -48 -93q-42 -37 -97 -36q-54 0 -85 36q-31 37 -24 93zM879 1346q8 49 51 82q43 34 92 34t84 -34t27 -82q-6 -55 -49 -93q-42 -37 -96 -36q-54 0 -85 36q-31 37 -24 93z" />
<glyph unicode="&#xf7;" horiz-adv-x="1363" d="M211 539l22 159h1094l-22 -159h-1094zM586 274.5q8 55.5 53 95.5t100.5 40t90 -40t26.5 -95.5t-53 -95.5t-100.5 -40t-90 40t-26.5 95.5zM682 962.5q8 55.5 53 95.5t100.5 40t90.5 -40t26.5 -95.5t-53.5 -95.5t-100.5 -40t-90 40t-26.5 95.5z" />
<glyph unicode="&#xf8;" horiz-adv-x="1216" d="M86 8l156 139q-109 139 -82 338q31 213 201.5 361.5t386.5 148.5q195 0 315 -118l176 153l64 -74l-177 -155q92 -137 66 -316q-29 -213 -200 -361.5t-388 -148.5q-170 0 -293 101l-159 -142zM356 485q-16 -125 33 -209l535 476q-76 72 -201 71q-145 0 -244.5 -94 t-122.5 -244zM455 203q66 -55 174 -56q145 0 245.5 94.5t120.5 243.5q17 107 -18 183z" />
<glyph unicode="&#xf9;" d="M188 346l88 625h185l-82 -574q-18 -129 36 -189t150 -61q123 0 208 81t108 243l71 500h185l-138 -971h-184l21 150h-5q-47 -78 -140 -126t-204 -49q-152 0 -238 94q-87 93 -61 277zM434 1450h262l170 -295h-170z" />
<glyph unicode="&#xfa;" d="M188 346l88 625h185l-82 -574q-18 -129 36 -189t150 -61q123 0 208 81t108 243l71 500h185l-138 -971h-184l21 150h-5q-47 -78 -140 -126t-204 -49q-152 0 -238 94q-87 93 -61 277zM596 1155l256 295h262l-348 -295h-170z" />
<glyph unicode="&#xfb;" d="M188 346l88 625h185l-82 -574q-18 -129 36 -189t150 -61q123 0 208 81t108 243l71 500h185l-138 -971h-184l21 150h-5q-47 -78 -140 -126t-204 -49q-152 0 -238 94q-87 93 -61 277zM393 1155l273 295h217l186 -295h-186l-123 197l-180 -197h-187z" />
<glyph unicode="&#xfc;" d="M188 346l88 625h185l-82 -574q-18 -129 36 -189t150 -61q123 0 208 81t108 243l71 500h185l-138 -971h-184l21 150h-5q-47 -78 -140 -126t-204 -49q-152 0 -238 94q-87 93 -61 277zM422 1346q8 49 51 82q43 34 92 34t84 -34t27 -82q-6 -55 -48 -93q-42 -37 -97 -36 q-54 0 -85 36q-31 37 -24 93zM840 1346q8 49 51 82q43 34 92 34t84 -34t27 -82q-6 -55 -48 -93q-42 -37 -97 -36q-54 0 -85 36q-31 37 -24 93z" />
<glyph unicode="&#xfd;" horiz-adv-x="1024" d="M-20 -465l47 168q51 -23 106 -22q80 0 124 37q44 38 87 122l82 154l-266 977h213l182 -758h4l381 758h199l-627 -1180q-39 -72 -69 -116t-73 -86q-44 -42 -101 -61q-56 -19 -130 -20q-96 0 -159 27zM539 1155l256 295h262l-348 -295h-170z" />
<glyph unicode="&#xfe;" horiz-adv-x="1251" d="M74 -467l282 2015h185l-101 -717h4q59 76 157.5 120t203.5 44q221 0 336.5 -144t85.5 -366q-31 -219 -186.5 -364.5t-378.5 -145.5q-100 0 -186.5 44t-127.5 120h-4l-86 -606h-184zM392.5 485.5q-21.5 -149.5 52 -244t219 -94.5t246 94.5t122 244t-52.5 243.5t-220.5 94 t-245.5 -94t-120.5 -243.5z" />
<glyph unicode="&#xff;" horiz-adv-x="1024" d="M-20 -465l47 168q51 -23 106 -22q80 0 124 37q44 38 87 122l82 154l-266 977h213l182 -758h4l381 758h199l-627 -1180q-39 -72 -69 -116t-73 -86q-44 -42 -101 -61q-56 -19 -130 -20q-96 0 -159 27zM365 1346q8 49 51 82q43 34 92 34t84 -34t26 -82q-6 -55 -48 -93 q-42 -37 -96 -36q-54 0 -85 36q-31 37 -24 93zM782 1346q8 49 52 82q43 34 92 34t84 -34t26 -82q-6 -55 -48 -93q-42 -37 -96 -36q-54 0 -85 36q-31 37 -25 93z" />
<glyph unicode="&#x152;" horiz-adv-x="2009" d="M221 725q45 332 298 528.5t642 196.5h910l-27 -184h-602l-62 -432h566l-25 -185h-565l-66 -465h627l-27 -184h-934q-393 0 -586.5 200.5t-148.5 524.5zM430 725q-35 -240 105.5 -390.5t433.5 -150.5h125l151 1082h-125q-289 0 -473 -156t-217 -385z" />
<glyph unicode="&#x153;" horiz-adv-x="1896" d="M147 485q33 221 194 365.5t382 144.5q250 0 369 -186q168 186 407 186q207 0 313.5 -135t75.5 -352l-12 -90h-735q-16 -119 45 -201t207 -82q166 0 272 141l137 -100q-168 -201 -436 -201q-125 0 -225.5 47.5t-145.5 141.5q-31 -35 -58.5 -60.5t-79.5 -58.5t-125 -51.5 t-163 -18.5q-229 0 -340.5 143.5t-81.5 366.5zM344 485q-20 -150 44.5 -250t203.5 -100q90 0 159.5 30t112.5 81t67 110t34 129q14 92 -5.5 169t-84 129.5t-168.5 52.5q-150 0 -245 -98.5t-118 -252.5zM1161 565h539q12 113 -45.5 198t-179.5 85q-121 0 -210.5 -91.5 t-103.5 -191.5z" />
<glyph unicode="&#x178;" horiz-adv-x="1253" d="M184 1450h252l305 -637l498 637h240l-668 -832l-86 -618h-197l86 618zM532 1722q8 49 52 83q43 34 92 34t84 -34t26 -83q-6 -55 -48 -92t-96 -37t-85 37t-25 92zM950 1722q8 49 51 83q44 34 93 34t84 -34t26 -83q-6 -55 -48 -92t-96 -37t-85 37t-25 92z" />
<glyph unicode="&#x2c6;" horiz-adv-x="491" d="M70 1155l272 295h217l186 -295h-186l-123 197l-180 -197h-186z" />
<glyph unicode="&#x2dc;" horiz-adv-x="491" d="M68 1180q29 88 90 150.5t147 62.5q55 0 164 -47q10 -4 26.5 -12.5t25.5 -12.5t24.5 -7t29.5 -3q74 0 113 90h98q-27 -90 -83 -151.5t-138 -61.5q-59 0 -162 43q-90 39 -129 39q-67 0 -108 -90h-98z" />
<glyph unicode="&#x2000;" horiz-adv-x="946" />
<glyph unicode="&#x2001;" horiz-adv-x="1892" />
<glyph unicode="&#x2002;" horiz-adv-x="946" />
<glyph unicode="&#x2003;" horiz-adv-x="1892" />
<glyph unicode="&#x2004;" horiz-adv-x="630" />
<glyph unicode="&#x2005;" horiz-adv-x="473" />
<glyph unicode="&#x2006;" horiz-adv-x="315" />
<glyph unicode="&#x2007;" horiz-adv-x="315" />
<glyph unicode="&#x2008;" horiz-adv-x="236" />
<glyph unicode="&#x2009;" horiz-adv-x="378" />
<glyph unicode="&#x200a;" horiz-adv-x="105" />
<glyph unicode="&#x2010;" horiz-adv-x="647" d="M129 410l25 172h503l-24 -172h-504z" />
<glyph unicode="&#x2011;" horiz-adv-x="647" d="M129 410l25 172h503l-24 -172h-504z" />
<glyph unicode="&#x2012;" horiz-adv-x="647" d="M129 410l25 172h503l-24 -172h-504z" />
<glyph unicode="&#x2013;" horiz-adv-x="1024" d="M59 418l23 160h1024l-23 -160h-1024z" />
<glyph unicode="&#x2014;" horiz-adv-x="2048" d="M59 418l23 160h2048l-23 -160h-2048z" />
<glyph unicode="&#x2018;" horiz-adv-x="569" d="M248 946l244 504h167l-213 -504h-198z" />
<glyph unicode="&#x2019;" horiz-adv-x="569" d="M248 946l213 504h198l-243 -504h-168z" />
<glyph unicode="&#x201a;" horiz-adv-x="569" d="M76 -270l213 503h198l-243 -503h-168z" />
<glyph unicode="&#x201c;" horiz-adv-x="1062" d="M313 946l244 504h168l-213 -504h-199zM676 946l244 504h167l-213 -504h-198z" />
<glyph unicode="&#x201d;" horiz-adv-x="1062" d="M313 946l213 504h199l-244 -504h-168zM676 946l213 504h198l-243 -504h-168z" />
<glyph unicode="&#x201e;" horiz-adv-x="1062" d="M141 -270l213 503h199l-244 -503h-168zM504 -270l213 503h198l-243 -503h-168z" />
<glyph unicode="&#x2022;" horiz-adv-x="1024" d="M250.5 724.5q21.5 149.5 142.5 256t271.5 106.5t241.5 -105t69.5 -257t-142 -257.5t-271 -105.5t-242 106.5t-70 256z" />
<glyph unicode="&#x2026;" horiz-adv-x="2048" d="M224 123q7 55 53.5 95t101.5 40t89 -40t26.5 -95t-53.5 -95t-101 -40t-89 40t-27 95zM906 123q7 55 53.5 95t101.5 40t89 -40t26.5 -95t-53.5 -95t-101 -40t-89 40t-27 95zM1588 123q7 55 53.5 95t101.5 40t89 -40t26.5 -95t-53.5 -95t-101 -40t-89 40t-27 95z" />
<glyph unicode="&#x202f;" horiz-adv-x="378" />
<glyph unicode="&#x2039;" horiz-adv-x="645" d="M180 498l361 442l114 -84l-290 -358l192 -359l-139 -84z" />
<glyph unicode="&#x203a;" horiz-adv-x="645" d="M131 139l289 359l-191 358l140 84l235 -442l-358 -443z" />
<glyph unicode="&#x205f;" horiz-adv-x="473" />
<glyph unicode="&#x2122;" horiz-adv-x="2048" d="M254 1315l20 135h668l-20 -135h-254l-99 -709h-159l98 709h-254zM985 606l119 844h244l135 -647h6l319 647h244l-119 -844h-159l98 705h-4l-344 -705h-129l-148 705h-4l-98 -705h-160z" />
<glyph unicode="&#xe000;" horiz-adv-x="972" d="M0 0v973h973v-973h-973z" />
<glyph unicode="&#xfb01;" d="M117 811l22 160h209l31 217q27 199 117 292t268 93q78 0 135 -14l-43 -164q-43 18 -102 18q-94 0 -133 -53t-56 -166l-30 -223h219l-23 -160h-221l-115 -811h-184l115 811h-209zM799 0l137 971h184l-137 -971h-184zM943 1317q7 55 53 95t101.5 40t89.5 -40t26.5 -95 t-53.5 -95t-101 -40t-89 40t-27 95z" />
<glyph unicode="&#xfb02;" d="M117 811l22 160h209l31 217q27 199 117 292t268 93q78 0 135 -14l-43 -164q-43 18 -102 18q-94 0 -133 -53t-56 -166l-30 -223h219l-23 -160h-221l-115 -811h-184l115 811h-209zM801 0l217 1548h184l-217 -1548h-184z" />
</font>
</defs>
</svg>
