<?xml version="1.0" standalone="no"?>
<!DOCTYPE svg PUBLIC "-//W3C//DTD SVG 1.1//EN" "http://www.w3.org/Graphics/SVG/1.1/DTD/svg11.dtd" >
<svg xmlns="http://www.w3.org/2000/svg">
<metadata></metadata>
<defs>
<font id="AvenirHeavyOblique" horiz-adv-x="606" >
<font-face units-per-em="2048" ascent="1638" descent="-410" />
<missing-glyph horiz-adv-x="500" />
<glyph horiz-adv-x="0" />
<glyph horiz-adv-x="2048" />
<glyph unicode=" " />
<glyph unicode="!" d="M160 143q8 66 63.5 113t122.5 47q66 0 109 -45t32 -111q-8 -66 -63 -112.5t-123 -46.5q-66 0 -108.5 44.5t-32.5 110.5zM244 455l141 995h246l-142 -995h-245z" />
<glyph unicode="&#x22;" horiz-adv-x="1062" d="M373 909l78 541h208l-77 -541h-209zM735 909l78 541h209l-78 -541h-209z" />
<glyph unicode="#" horiz-adv-x="1212" d="M156 428l24 172h207l72 250h-185l25 172h207l123 428h180l-123 -428h211l123 428h178l-123 -428h185l-25 -172h-209l-70 -250h185l-25 -172h-205l-123 -428h-178l121 428h-213l-121 -428h-178l121 428h-184zM567 600h211l70 250h-211z" />
<glyph unicode="$" horiz-adv-x="1212" d="M86 158l213 190q37 -66 109.5 -104.5t158.5 -46.5l62 432l-11 2q-74 23 -127 43t-108 54t-86 76t-46 105.5t-5 141.5q25 174 171 288.5t331 133.5l18 137h111l-19 -135h19q109 0 212 -37t168 -105l-196 -190q-88 111 -234 110l-57 -409l8 -2q102 -29 164 -53.5 t131.5 -70.5t95 -119t11.5 -173q-27 -195 -175.5 -311.5t-357.5 -137.5l-20 -147h-111l21 145q-299 -4 -451 183zM504 1029.5q4 -17.5 3 -30t8 -24.5t12 -19.5t16.5 -17.5t19.5 -15t22.5 -12.5t24.5 -11.5t26 -12.5t28 -12.5l53 375q-80 -12 -140.5 -62t-70.5 -124 q-6 -16 -2 -33.5zM678 197q96 18 162.5 71.5t79.5 139.5q4 35 -6.5 63.5t-23.5 44.5t-47 34.5t-50.5 25t-57.5 20.5z" />
<glyph unicode="%" horiz-adv-x="1857" d="M215.5 1093.5q22.5 157.5 149.5 269.5t284.5 112t253.5 -112t73.5 -269.5t-149.5 -269t-284.5 -111.5t-253.5 111.5t-73.5 269zM411.5 1094.5q-10.5 -76.5 36 -131t123 -54.5t138 53.5t72 130t-36 131t-123 54.5t-138 -53.5t-72 -130zM422 12l1063 1504l160 -78 l-1063 -1504zM1084.5 356.5q21.5 157.5 148.5 269t285.5 111.5t254 -111.5t74 -269t-148.5 -269.5t-286 -112t-254 112t-73.5 269.5zM1281 357.5q-11 -76.5 35 -131t123 -54.5t138 53.5t72.5 130t-34.5 131t-123 54.5t-138.5 -53.5t-72.5 -130z" />
<glyph unicode="&#x26;" horiz-adv-x="1517" d="M154 389q18 139 121.5 246.5t248.5 161.5q-49 63 -72.5 102t-40 101.5t-5.5 129.5q23 170 155.5 263.5t309 93.5t280.5 -88t80 -256q-16 -123 -111.5 -217.5t-228.5 -157.5l196 -252l197 246h289l-350 -420l266 -342h-318l-131 166q-102 -104 -210.5 -153.5t-245.5 -49.5 q-131 0 -233.5 47t-159 146.5t-37.5 232.5zM426 403q-14 -94 45 -156.5t154 -62.5q51 0 106 23.5t91 49.5t87 71l-250 323q-51 -27 -80.5 -46t-67.5 -51t-58.5 -68.5t-26.5 -82.5zM649 1120q-12 -82 107 -211q43 20 73.5 40t67.5 47.5t59.5 62.5t28.5 71q8 57 -33.5 96.5 t-107.5 39.5q-72 0 -129.5 -41t-65.5 -105z" />
<glyph unicode="'" d="M326 909l77 541h209l-77 -541h-209z" />
<glyph unicode="(" d="M180 590q35 244 146.5 478t281.5 431l160 -106l-4 -9q-147 -172 -245.5 -378.5t-129.5 -415.5q-29 -209 11 -417t141 -380l-189 -112q-115 197 -160 430t-12 479z" />
<glyph unicode=")" d="M4 -213l4 8q147 172 245.5 379t127.5 416q31 209 -9 415.5t-141 378.5l189 115q115 -197 160 -430t10 -479q-33 -244 -144.5 -478t-281.5 -431z" />
<glyph unicode="*" horiz-adv-x="948" d="M211 1092l76 163l266 -96l41 291h172l-41 -291l289 90l28 -164l-290 -90l143 -239l-156 -103l-143 242l-205 -236l-123 105l209 231z" />
<glyph unicode="+" horiz-adv-x="1363" d="M199 516l30 209h451l63 451h209l-63 -451h450l-30 -209h-451l-63 -450h-209l63 450h-450z" />
<glyph unicode="," d="M41 -258l219 541h250l-250 -541h-219z" />
<glyph unicode="-" horiz-adv-x="645" d="M125 399l31 209h506l-31 -209h-506z" />
<glyph unicode="." d="M160 143q8 66 63.5 113t122.5 47q66 0 109 -45t32 -111q-8 -66 -63 -112.5t-123 -46.5q-66 0 -108.5 44.5t-32.5 110.5z" />
<glyph unicode="/" horiz-adv-x="796" d="M-25 -37l865 1589l159 -65l-862 -1585z" />
<glyph unicode="0" horiz-adv-x="1212" d="M168 519q0 95 16 206q18 141 56.5 257t82.5 191.5t99 134t105.5 89t107.5 49t97 24t81 5.5q31 0 60.5 -3.5t68.5 -12.5t74 -25.5t70.5 -46t64.5 -67.5t51.5 -95.5t34.5 -128t11 -165.5t-15 -206q-20 -141 -57 -257t-81 -191.5t-100.5 -134t-106.5 -89t-107.5 -49 t-97.5 -24t-81 -5.5q-31 0 -60.5 3.5t-68.5 12.5t-72.5 25.5t-70.5 46t-64.5 67.5t-51.5 95.5t-35 128t-11 165.5zM417 601.5q-3 -60.5 4 -135.5t28.5 -129t68.5 -91t118 -37t128 37t94 91t64.5 129t41 135.5t22.5 123.5t12 123.5t-3 135.5t-27.5 129t-69.5 91t-117.5 37 t-128 -37t-94.5 -91t-64.5 -129t-42 -135.5t-22.5 -123.5t-12 -123.5z" />
<glyph unicode="1" horiz-adv-x="1212" d="M285 1085l491 365h223l-204 -1450h-246l164 1167l-307 -252z" />
<glyph unicode="2" horiz-adv-x="1212" d="M121 0l37 260l639 545q53 45 81.5 72.5t62.5 77t40 96.5q12 86 -42 138t-142 52q-90 0 -158 -53t-92 -144l-256 21q45 197 191.5 303.5t346.5 106.5q207 0 324 -105.5t88 -306.5q-18 -127 -89 -226.5t-194 -199.5l-507 -416h671l-30 -221h-971z" />
<glyph unicode="3" horiz-adv-x="1212" d="M139 315l271 70q23 -188 208 -188q102 0 182.5 64.5t94.5 162.5q10 68 -11.5 114t-68.5 68.5t-97 30.5t-114 8h-59l30 221h64q63 0 107.5 6.5t91.5 26t75.5 60t36.5 104.5q12 84 -39 137t-141 53q-74 0 -138.5 -43t-101.5 -116l-249 69q68 156 204 234t303 78 q199 0 318 -101.5t94 -286.5q-16 -119 -96 -209t-199 -118v-4q131 -18 191.5 -115.5t42.5 -237.5q-29 -199 -187.5 -313.5t-363.5 -114.5q-188 0 -308 83t-141 257z" />
<glyph unicode="4" horiz-adv-x="1212" d="M111 295l34 244l713 911h279l-133 -934h210l-30 -221h-211l-41 -295h-246l41 295h-616zM391 516h367l84 586h-4z" />
<glyph unicode="5" horiz-adv-x="1212" d="M133 307l268 70q14 -80 67.5 -124t145.5 -44q111 0 192 70.5t95 177.5q20 143 -65.5 211.5t-233.5 68.5q-164 0 -313 -69l125 782h825l-33 -221h-583l-45 -289q59 18 157 18q215 0 331 -132t85 -349q-33 -229 -200 -365.5t-396 -136.5q-174 0 -284.5 84t-137.5 248z" />
<glyph unicode="6" horiz-adv-x="1212" d="M156 469q14 106 62 198.5t128 198.5l455 584h299l-424 -537l2 -4q47 25 139 25q188 0 294 -135t77 -328q-31 -223 -195 -359.5t-391 -136.5q-229 0 -353 133.5t-93 360.5zM414.5 473.5q-15.5 -108.5 51 -186.5t176.5 -78t198 78t103 186.5t-51.5 186t-176 77.5 t-197.5 -77.5t-103.5 -186z" />
<glyph unicode="7" horiz-adv-x="1212" d="M203 0l762 1217h-709l35 233h985l-33 -225l-751 -1225h-289z" />
<glyph unicode="8" horiz-adv-x="1212" d="M174 412q18 129 111.5 229t201.5 123l2 4q-102 31 -146 119t-28 207q25 176 166.5 278.5t333 102.5t303 -102.5t86.5 -278.5q-16 -119 -84.5 -207t-179.5 -119l-2 -4q106 -23 169.5 -123t45.5 -229q-29 -207 -183.5 -322t-366.5 -115t-335 115t-94 322zM424 442 q-14 -102 45 -167.5t165.5 -65.5t184.5 65.5t92 167.5q14 98 -47 163t-163.5 65t-182.5 -64.5t-94 -163.5zM557 1069q-12 -88 35 -145.5t135 -57.5q84 0 150.5 58.5t76.5 144.5q12 82 -37 139.5t-133 57.5q-92 0 -153.5 -56.5t-73.5 -140.5z" />
<glyph unicode="9" horiz-adv-x="1212" d="M227 979q31 223 196 359.5t390 136.5q231 0 355 -133.5t92 -360.5q-14 -106 -61.5 -198.5t-129.5 -198.5l-453 -584h-299l424 537l-4 4q-47 -25 -139 -25q-188 0 -292.5 135t-78.5 328zM474 976.5q-15 -108.5 51.5 -186t175 -77.5t197.5 77.5t104.5 186t-52 186.5 t-176 78t-197 -78t-103.5 -186.5z" />
<glyph unicode=":" d="M160 143q8 66 63.5 113t122.5 47q66 0 109 -45t32 -111q-8 -66 -63 -112.5t-123 -46.5q-66 0 -108.5 44.5t-32.5 110.5zM256 838q10 66 64.5 112.5t121.5 46.5q68 0 110 -45t34 -110q-10 -66 -64.5 -113t-122.5 -47q-66 0 -108.5 45t-34.5 111z" />
<glyph unicode=";" d="M41 -258l219 541h250l-250 -541h-219zM256 838q10 66 64.5 112.5t121.5 46.5q68 0 110 -45t34 -110q-10 -66 -64.5 -113t-122.5 -47q-66 0 -108.5 45t-34.5 111z" />
<glyph unicode="&#x3c;" horiz-adv-x="1363" d="M242 547l20 147l1100 461l-31 -225l-735 -309l647 -310l-31 -225z" />
<glyph unicode="=" horiz-adv-x="1363" d="M174 332l29 209h1110l-29 -209h-1110zM225 700l29 209h1110l-29 -209h-1110z" />
<glyph unicode="&#x3e;" horiz-adv-x="1363" d="M176 86l31 225l737 310l-649 309l31 225l972 -461l-20 -147z" />
<glyph unicode="?" horiz-adv-x="1062" d="M250 1073q49 193 193.5 303.5t340.5 110.5q188 0 296 -105.5t81 -294.5q-8 -59 -29.5 -108t-61.5 -95t-69.5 -74t-91.5 -79q-16 -12 -24 -20q-55 -45 -73.5 -63.5t-38 -54.5t-25.5 -87l-13 -78h-246l17 113q12 86 38.5 128t106.5 111l180 160q57 51 70 133q10 80 -35 130 t-125 50q-84 0 -148.5 -57t-84.5 -143zM410 143q8 66 63 113t123 47q66 0 109 -45t32 -111q-8 -66 -63.5 -112.5t-122.5 -46.5q-66 0 -108.5 44.5t-32.5 110.5z" />
<glyph unicode="@" horiz-adv-x="1638" d="M168 723q29 213 159 389t323.5 275.5t406.5 99.5q137 0 259 -45t214 -128t136 -213t22 -288q-18 -123 -67.5 -218t-108 -146.5t-130 -84t-123 -42t-96.5 -9.5q-80 0 -115.5 33t-31.5 78h-4q-121 -111 -277 -111q-133 0 -200.5 96.5t-47.5 247.5q27 188 159 324.5 t317 136.5q164 0 204 -117h4l29 93h193l-133 -404q-31 -88 -35 -117q-4 -39 5 -57t40 -18q72 0 135 77.5t84 227.5q35 240 -94 370t-371 130q-252 0 -432 -163t-215 -417q-39 -264 108.5 -420t411.5 -156q230 0 406 125h225q-129 -150 -306.5 -229.5t-367.5 -79.5 q-162 0 -299 56.5t-231.5 155.5t-137.5 241.5t-18 306.5zM700 686q-27 -188 144 -188q106 0 162.5 73.5t70.5 173.5q12 84 -19.5 136.5t-105.5 52.5q-100 0 -168.5 -71.5t-83.5 -176.5z" />
<glyph unicode="A" horiz-adv-x="1478" d="M0 0l836 1450h223l420 -1450h-295l-88 332h-629l-178 -332h-289zM586 553h450l-141 590z" />
<glyph unicode="B" horiz-adv-x="1327" d="M162 0l205 1450h565q84 0 157.5 -20.5t132.5 -62.5q60 -43 88 -115q18 -48 18 -105q0 -29 -5 -62q-16 -119 -95 -200.5t-200 -116.5l-2 -4q135 -16 210 -114q59 -76 58 -177q0 -28 -4 -59q-14 -113 -72.5 -197t-145.5 -129t-183 -66.5t-205 -21.5h-522zM451 221h237 q317 0 348 213q2 19 2 37q0 82 -54 121q-66 47 -226 47h-248zM541 860h235q125 0 199 49t86 133q2 15 2 29q1 71 -51 111q-62 46 -207 47h-213z" />
<glyph unicode="C" horiz-adv-x="1402" d="M184 719q49 346 293 557t582 211q309 -1 475 -230l-221 -147q-115 143 -285 143q-221 0 -380 -148.5t-191 -369.5q-7 -52 -8 -100q-1 -169 91 -287q116 -151 339 -151q188 0 352 176l190 -152q-223 -258 -577 -258q-336 0 -522 209q-148 167 -148 416q0 63 10 131z" />
<glyph unicode="D" horiz-adv-x="1554" d="M162 0l205 1450h571q145 0 269 -45t216.5 -132t132.5 -229q25 -89 26 -192q0 -61 -9 -127q-20 -143 -84 -265t-153 -205t-197.5 -141.5t-219 -86t-217.5 -27.5h-540zM453 233h192q125 0 232.5 28t197.5 85t149.5 153.5t78.5 225.5q7 53 7 101q0 177 -102 271 q-130 120 -383 120h-235z" />
<glyph unicode="E" horiz-adv-x="1251" d="M162 0l205 1450h960l-35 -233h-702l-49 -357h665l-32 -233h-666l-55 -394h739l-33 -233h-997z" />
<glyph unicode="F" horiz-adv-x="1175" d="M162 0l205 1450h936l-35 -233h-678l-53 -381h639l-33 -234h-639l-84 -602h-258z" />
<glyph unicode="G" horiz-adv-x="1593" d="M184 719q49 346 293 557t582 211q367 0 547 -182l-220 -193q-59 68 -153 104.5t-205 36.5q-221 0 -380 -148.5t-191 -369.5q-7 -52 -7 -100q0 -169 90 -287q117 -151 339 -151q207 0 352 75l47 342h-297l33 234h555l-105 -742q-287 -143 -620 -143q-336 0 -522 209 q-148 167 -148 416q0 63 10 131z" />
<glyph unicode="H" horiz-adv-x="1517" d="M162 0l205 1450h258l-82 -578h678l82 578h258l-205 -1450h-258l90 639h-678l-90 -639h-258z" />
<glyph unicode="I" horiz-adv-x="569" d="M156 0l204 1450h258l-204 -1450h-258z" />
<glyph unicode="J" horiz-adv-x="1024" d="M51 297l250 57q2 -72 43 -114.5t107 -42.5q106 0 158.5 70.5t72.5 209.5l137 973h258l-147 -1049q-27 -184 -159 -311t-341 -127q-360 0 -379 334z" />
<glyph unicode="K" horiz-adv-x="1402" d="M162 0l205 1450h258l-88 -614h12l688 614h348l-772 -670l612 -780h-362l-528 713h-15l-100 -713h-258z" />
<glyph unicode="L" horiz-adv-x="1062" d="M162 0l205 1450h258l-172 -1217h616l-33 -233h-874z" />
<glyph unicode="M" horiz-adv-x="1896" d="M168 0l205 1450h393l244 -1016l534 1016h389l-204 -1450h-246l170 1204h-4l-611 -1204h-180l-270 1204h-4l-170 -1204h-246z" />
<glyph unicode="N" horiz-adv-x="1630" d="M162 0l205 1450h342l551 -1077l2 -4h-5l7 4l151 1077h258l-205 -1450h-327l-561 1112h-5l-155 -1112h-258z" />
<glyph unicode="O" horiz-adv-x="1705" d="M184 719q49 346 293 557t582 211h19q328 0 510 -204q147 -166 146 -416q0 -67 -10 -140q-47 -338 -291.5 -548t-588.5 -216q-336 0 -522 209q-148 167 -148 416q0 63 10 131zM457 735q-7 -52 -8 -100q-1 -169 91 -287q116 -151 339 -151q225 0 383.5 151.5t191.5 386.5 q7 48 7 93q0 160 -93 276q-119 148 -340 149q-221 0 -379.5 -148.5t-191.5 -369.5z" />
<glyph unicode="P" horiz-adv-x="1251" d="M162 0l205 1450h487q111 0 199 -21.5t158.5 -67.5t102.5 -130q21 -55 21 -124q0 -37 -6 -77q-16 -106 -58 -184t-100.5 -125t-140.5 -75t-162 -37t-180 -9h-184l-84 -600h-258zM535 821h155q47 0 79 2t76 7.5t74.5 19.5t62.5 35.5t50.5 57.5t24.5 83q3 18 3 35 q0 30 -10 54q-14 38 -40.5 59.5t-67.5 34t-79 16.5t-87 4h-184z" />
<glyph unicode="Q" horiz-adv-x="1744" d="M190 756q29 209 157 376.5t315.5 261t392.5 93.5q154 0 286 -55.5t222 -150.5t132 -233q27 -88 27 -184q0 -53 -8 -108q-16 -109 -56 -200t-96.5 -156.5t-111.5 -109.5t-117 -77l-2 -4h416l-29 -209h-844q-168 0 -306 52t-230 148.5t-132 239.5q-25 89 -25 190 q0 61 9 126zM459 750q-6 -46 -6 -89q0 -164 94 -281q119 -147 330 -147q215 0 374.5 146.5t190.5 370.5q6 45 6 87q0 160 -94 273q-119 143 -338 143q-211 0 -369 -143t-188 -360z" />
<glyph unicode="R" horiz-adv-x="1290" d="M162 0l205 1450h503q88 0 162 -11.5t140.5 -41t109.5 -75.5q42 -46 62 -120q12 -46 13 -99q0 -33 -5 -69q-23 -160 -126.5 -265t-264.5 -128l294 -641h-311l-250 614h-188l-86 -614h-258zM537 836h200q53 0 90 3t85.5 14t80 31.5t56 59.5t32.5 92q3 19 3 36q0 28 -8 50 q-13 37 -37.5 56.5t-64.5 32t-76 15.5t-83 3h-223z" />
<glyph unicode="S" horiz-adv-x="1175" d="M86 160l221 188q37 -72 107.5 -111.5t156.5 -39.5q100 0 185.5 52t97.5 146q2 15 2 29q0 46 -24 80q-32 46 -89 71t-127.5 47.5t-139 52.5t-124.5 73q-56 44 -82 120q-17 50 -17 112q0 33 5 69q20 143 113.5 244.5t218.5 147.5t264 46q258 0 395 -150l-217 -198 q-33 57 -96.5 85.5t-140.5 28.5q-98 0 -174 -46t-91 -140q-2 -12 -2 -22q0 -45 27 -77q33 -40 90 -64.5t127 -47t139.5 -53.5t124 -74t80.5 -121q17 -50 17 -110q0 -34 -5 -72q-20 -150 -109 -257.5t-214 -156.5t-273 -49q-309 0 -446 197z" />
<glyph unicode="T" horiz-adv-x="1175" d="M184 1217l35 233h1147l-35 -233h-444l-170 -1217h-258l170 1217h-445z" />
<glyph unicode="U" horiz-adv-x="1478" d="M231 532l129 918h258l-129 -909q-4 -26 -3 -52q0 -31 4 -61q10 -56 38.5 -107t90 -81.5t149.5 -30.5t158.5 30.5t113.5 82t68 106.5t33 113l129 909h258l-129 -918q-37 -258 -224.5 -413.5t-440.5 -155.5q-253 -1 -396 155q-114 124 -114 314q0 48 7 100z" />
<glyph unicode="V" horiz-adv-x="1366" d="M199 1450h297l239 -1096l563 1096h279l-791 -1450h-223z" />
<glyph unicode="W" horiz-adv-x="2009" d="M205 1450h282l125 -1044h4l474 1044h253l173 -1044h4l432 1044h262l-627 -1450h-246l-180 1104h-4l-491 -1104h-238z" />
<glyph unicode="X" horiz-adv-x="1402" d="M0 0l623 758l-385 692h325l266 -537l414 537h313l-573 -692l420 -758h-328l-297 612l-467 -612h-311z" />
<glyph unicode="Y" horiz-adv-x="1290" d="M176 1450h324l274 -578l443 578h307l-662 -829l-88 -621h-258l88 621z" />
<glyph unicode="Z" horiz-adv-x="1251" d="M72 0l32 233l912 984h-762l35 233h1083l-35 -233l-917 -984h792l-32 -233h-1108z" />
<glyph unicode="[" horiz-adv-x="569" d="M90 -319l256 1818h393l-22 -160h-185l-210 -1499h184l-23 -159h-393z" />
<glyph unicode="\" horiz-adv-x="796" d="M215 1487l180 65l414 -1589l-178 -61z" />
<glyph unicode="]" horiz-adv-x="569" d="M-4 -319l22 159h185l104 750l107 749h-185l23 160h393l-256 -1818h-393z" />
<glyph unicode="^" horiz-adv-x="1363" d="M240 702l563 748h168l350 -748h-242l-231 490l-367 -490h-241z" />
<glyph unicode="_" horiz-adv-x="1024" d="M-37 -256l14 102h1024l-14 -102h-1024z" />
<glyph unicode="`" horiz-adv-x="532" d="M86 1450h279l159 -295h-192z" />
<glyph unicode="a" horiz-adv-x="1099" d="M113 270q10 78 46 136.5t93 94.5t116.5 59.5t138.5 34.5t138.5 14t132.5 3h62l4 27q2 16 2 30q0 67 -46 106q-56 48 -157 48q-152 0 -276 -102l-111 129q178 158 440 158q68 0 123 -11.5t94 -28t67 -45t45 -54t26.5 -63.5t12.5 -64q2 -15 2 -35q0 -14 -1 -30 q-2 -40 -4 -59.5t-6 -52.5l-80 -565h-221l18 135h-6q-123 -160 -338 -160q-144 0 -240 78q-78 64 -79 169q0 23 4 48zM360 289q-1 -9 -1 -18q0 -50 40 -78q47 -33 115 -33q123 0 194 59.5t85 165.5l8 55h-51q-369 0 -390 -151z" />
<glyph unicode="b" horiz-adv-x="1290" d="M139 0l217 1548h246l-96 -690h6q141 150 354 150q210 0 322 -148q89 -116 88 -278q0 -43 -6 -90q-33 -223 -184.5 -370t-374.5 -147q-106 0 -189.5 43t-124.5 129h-4l-20 -147h-234zM446 492q-4 -25 -4 -49q0 -90 54 -159q68 -87 197.5 -87t220.5 87q92 88 109 208 q3 25 3 47q0 91 -52 160q-66 87 -197.5 87t-222 -87t-108.5 -207z" />
<glyph unicode="c" horiz-adv-x="987" d="M158 492q32 228 206.5 372t401.5 144q100 0 189.5 -37t146.5 -113l-195 -170q-80 98 -172 98q-131 0 -222 -87t-109 -207q-4 -25 -3 -49q-1 -90 53 -159q68 -87 197 -87q121 0 205 92l139 -176q-78 -68 -186.5 -103t-187.5 -35q-225 1 -359 145q-109 117 -109 288 q-1 41 5 84z" />
<glyph unicode="d" horiz-adv-x="1290" d="M160 492q31 221 184.5 368.5t362.5 147.5q213 0 313 -150h6l96 690h246l-217 -1548h-233l20 147h-4q-63 -86 -158.5 -129t-204.5 -43q-221 1 -333 147q-86 113 -86 272q0 47 8 98zM404 492q-4 -25 -4 -49q0 -90 54 -159q68 -87 198 -87t222 87q91 88 108 208q3 25 3 47 q-1 91 -53 160q-66 87 -197 87t-222 -87t-109 -207z" />
<glyph unicode="e" horiz-adv-x="1175" d="M158 492q32 228 206.5 372t401.5 144q210 0 316 -142q79 -105 79 -270q0 -58 -10 -123l-8 -67h-750v-12q-1 -98 61 -158q66 -64 171 -64q156 0 282 133l158 -133q-188 -197 -444 -197q-225 1 -359 145q-109 117 -109 288q-1 41 5 84zM418 590h504q3 21 3 41 q-1 80 -47 130q-58 62 -173 62q-106 0 -181 -62t-106 -171z" />
<glyph unicode="f" horiz-adv-x="720" d="M133 774l29 209h203l20 139q16 111 42 186.5t73 139t124.5 94.5t190.5 31q84 0 154 -14l-45 -209q-59 14 -101 14q-94 0 -134 -53.5t-52 -149.5l-27 -178h228l-29 -209h-227l-109 -774h-246l109 774h-203z" />
<glyph unicode="g" horiz-adv-x="1290" d="M61 -330l177 201q135 -141 317 -141q170 0 253 86t105 243l11 72h-4q-61 -70 -153.5 -106.5t-188.5 -36.5q-217 0 -333 146q-92 114 -92 271q0 42 7 87q31 223 183.5 369.5t373.5 146.5q109 0 191.5 -43t121.5 -129h4l21 147h233l-125 -895q-39 -274 -197.5 -427 t-439.5 -153q-303 0 -465 162zM406 494q-3 -22 -3 -43q0 -91 57 -159q70 -83 193 -83q135 0 226.5 82t107.5 207q4 27 4 52q0 94 -53 156q-68 80 -201 80q-129 0 -221 -80.5t-110 -211.5z" />
<glyph unicode="h" horiz-adv-x="1175" d="M139 0l217 1548h246l-98 -702h4q41 68 123 115t188 47q96 0 164 -33t98.5 -86t44.5 -123q6 -33 6 -67q0 -38 -8 -78l-88 -621h-245l69 498q4 35 6 60.5t2 62t-8 63.5t-23.5 51.5t-45 37.5t-70.5 13q-115 0 -180.5 -70.5t-79.5 -178.5l-76 -537h-246z" />
<glyph unicode="i" horiz-adv-x="532" d="M143 0l138 983h245l-137 -983h-246zM293 1316q8 60 59 104t117 44q69 0 109 -42q32 -34 33 -83q0 -11 -2 -23q-9 -64 -61 -105.5t-120 -41.5q-66 0 -104 44q-32 36 -32 83q0 10 1 20z" />
<glyph unicode="j" horiz-adv-x="532" d="M-141 -473l47 213q43 -10 76 -10q37 0 63.5 14t40.5 31.5t25.5 51.5t14.5 54.5t9 57.5l146 1044h245l-145 -1042q-14 -100 -36.5 -172t-65.5 -134.5t-116 -94.5t-175 -32q-78 0 -129 19zM293 1316q8 60 59 104t117 44q70 0 109 -42q33 -34 33 -83q0 -11 -2 -23 q-9 -63 -61 -105t-120 -42q-66 0 -104 44q-32 36 -32 83q0 10 1 20z" />
<glyph unicode="k" horiz-adv-x="1099" d="M139 0l217 1548h246l-137 -973l436 408h316l-484 -446l373 -537h-326l-321 502h-4l-70 -502h-246z" />
<glyph unicode="l" horiz-adv-x="532" d="M143 0l217 1548h246l-217 -1548h-246z" />
<glyph unicode="m" horiz-adv-x="1781" d="M129 0l137 983h234l-21 -154h4q47 78 129 128.5t197 50.5q231 0 283 -183q129 182 348 183q96 0 161.5 -33t96.5 -91t42 -134q4 -31 4 -64q0 -48 -9 -100l-82 -586h-246l78 557q5 35 5 65q0 164 -155 164q-106 0 -168.5 -73.5t-76.5 -180.5l-76 -532h-246l82 586 q4 30 4 55q0 145 -141 145h-2q-115 0 -180.5 -70.5t-79.5 -178.5l-76 -537h-246z" />
<glyph unicode="n" horiz-adv-x="1175" d="M139 0l137 983h234l-21 -158h5q109 182 325 183q96 0 164 -33t98.5 -86t44.5 -123q6 -33 6 -67q0 -38 -8 -78l-88 -621h-245l69 498q4 35 6 60.5t2 62t-8 63.5t-23.5 51.5t-45 37.5t-70.5 13q-115 0 -180.5 -70.5t-79.5 -178.5l-76 -537h-246z" />
<glyph unicode="o" horiz-adv-x="1249" d="M158 492q32 228 206.5 372t401.5 144q226 0 360 -144q108 -117 108 -288q0 -40 -6 -84q-32 -228 -206 -372.5t-400 -144.5q-227 1 -361 145q-108 117 -108 288q-1 41 5 84zM404 492q-4 -25 -3 -49q-1 -90 53 -159q68 -87 198 -87t222 87q91 88 108 208q3 25 3 47 q-1 91 -53 160q-66 87 -197 87t-222 -87t-109 -207z" />
<glyph unicode="p" horiz-adv-x="1290" d="M74 -467l202 1450h234l-21 -147h5q66 86 161 129t201 43q223 0 334 -146q86 -116 86 -278q0 -44 -6 -92q-31 -221 -185.5 -369t-363.5 -148q-213 0 -311 150h-7l-84 -592h-245zM446 492q-4 -25 -4 -49q0 -90 54 -159q67 -87 197 -87t221.5 87t108.5 208q3 24 3 47 q0 91 -52 160q-67 87 -198 87t-222 -87t-108 -207z" />
<glyph unicode="q" horiz-adv-x="1290" d="M160 492q31 223 183.5 369.5t373.5 146.5q109 0 191.5 -43t121.5 -129h4l21 147h233l-203 -1450h-245l84 592h-6q-143 -150 -357 -150q-207 0 -319 147q-89 116 -89 278q0 44 7 92zM404 492q-3 -25 -3 -49q0 -90 53 -159q68 -87 198 -87t221.5 87t108.5 208q3 24 3 47 q0 91 -53 160q-66 87 -197 87t-222 -87t-109 -207z" />
<glyph unicode="r" horiz-adv-x="796" d="M139 0l137 983h246l-20 -156h4q51 84 135 132.5t180 48.5q39 0 86 -15l-33 -237q-72 18 -116 18q-66 0 -119 -21.5t-84 -50t-53.5 -66.5t-30.5 -63.5t-12 -46.5l-74 -526h-246z" />
<glyph unicode="s" horiz-adv-x="909" d="M70 127l184 154q47 -59 96 -90t121 -31q61 0 116.5 29.5t63.5 82.5q1 6 1 11q0 33 -22 56q-24 26 -69 40t-100 24.5t-109.5 29t-97.5 45.5q-42 28 -64 82q-15 37 -15 84q0 22 3 46q16 104 85 178t160 107t195 33q106 0 195.5 -37t134.5 -113l-184 -147q-59 100 -178 100 q-57 0 -104.5 -26.5t-55.5 -77.5q-1 -5 0 -9q0 -28 22 -48q26 -22 71.5 -35t100 -24t108.5 -30.5t96 -49.5t64 -86q15 -38 15 -87q0 -23 -4 -47q-12 -84 -58 -147.5t-114 -98.5t-142.5 -52.5t-154.5 -17.5q-248 0 -360 152z" />
<glyph unicode="t" horiz-adv-x="796" d="M133 774l29 209h203l41 285h245l-41 -285h271l-29 -209h-270l-60 -430q-4 -26 -4 -48q0 -45 16 -72q24 -40 103 -40q90 0 137 31l-29 -207q-74 -33 -200 -33q-185 0 -241 82q-39 57 -39 165q0 46 7 102l64 450h-203z" />
<glyph unicode="u" horiz-adv-x="1175" d="M188 217q-6 33 -5 67q0 38 7 78l86 621h246l-69 -498q-4 -35 -6.5 -60.5t-2.5 -62t8.5 -63.5t24 -51.5t45 -37.5t70.5 -13q115 0 180.5 70.5t81.5 178.5l74 537h246l-138 -983h-233l22 158h-4q-109 -182 -327 -183q-94 0 -162 33t-100 86t-44 123z" />
<glyph unicode="v" horiz-adv-x="1062" d="M143 983h269l166 -688h4l360 688h252l-524 -983h-262z" />
<glyph unicode="w" horiz-adv-x="1630" d="M143 983h267l116 -688h4l295 688h267l116 -688h4l301 688h248l-471 -983h-243l-140 672h-4l-301 -672h-254z" />
<glyph unicode="x" horiz-adv-x="1099" d="M-2 0l469 528l-277 455h299l156 -295l254 295h281l-400 -455l322 -528h-299l-207 352l-307 -352h-291z" />
<glyph unicode="y" horiz-adv-x="1062" d="M-37 -467l62 221q61 -24 116 -24h4q86 0 129 31.5t86 113.5l64 117l-281 991h271l180 -682h4l340 682h256l-631 -1194q-80 -147 -170 -214t-246 -67q-96 0 -184 25z" />
<glyph unicode="z" horiz-adv-x="987" d="M70 0l32 227l605 555v4h-502l26 197h799l-31 -223l-612 -563h557l-26 -197h-848z" />
<glyph unicode="{" horiz-adv-x="569" d="M70 500l26 180q25 0 55.5 6t65.5 20.5t60.5 45t29.5 71.5l58 406q12 86 69.5 150.5t119.5 92t112 27.5h186l-25 -172h-112q-78 0 -109 -41t-39 -102l-53 -385q-8 -55 -35.5 -97.5t-64.5 -64t-68 -31.5t-61 -14l-2 -4q33 -4 58.5 -11.5t59 -28t48 -66.5t4.5 -113l-52 -373 q-2 -31 -2 -63.5t28 -56t81 -23.5h113l-25 -172h-186q-35 0 -76 17t-79 48t-58.5 85t-10.5 120l54 391q8 45 -9.5 79t-48 49t-58 22.5t-54.5 7.5z" />
<glyph unicode="|" horiz-adv-x="454" d="M117 -37l223 1585h209l-223 -1585h-209z" />
<glyph unicode="}" horiz-adv-x="569" d="M-117 -319l25 172h112q78 0 109 40.5t39 102.5l53 385q8 55 36 97t64.5 63.5t67.5 32t62 14.5l2 4q-35 4 -60.5 11t-58.5 27.5t-47.5 66.5t-3.5 114l51 373q2 31 2 63.5t-27.5 56t-81.5 23.5h-112l24 172h187q35 0 75.5 -17.5t78.5 -48t58.5 -85t10.5 -119.5l-55 -391 q-6 -45 11 -79t47 -49.5t58.5 -22.5t55.5 -7l-15 -90l-12 -90q-25 0 -55.5 -6.5t-65.5 -20.5t-60.5 -45t-31.5 -72l-55 -405q-12 -86 -70.5 -150.5t-120 -92t-110.5 -27.5h-187z" />
<glyph unicode="~" horiz-adv-x="1363" d="M293 612q117 176 274 176q92 0 230 -65q10 -4 50 -23.5t56.5 -26.5t43 -15.5t46.5 -8.5q29 0 55.5 10.5t57.5 38t43 39.5t45 51l49 -172q-47 -55 -78.5 -85.5t-87 -60.5t-114.5 -30q-84 0 -199 68q-117 72 -225 72q-104 0 -197 -140z" />
<glyph unicode="&#xa0;" />
<glyph unicode="&#xa1;" d="M117 -455l139 998h246l-140 -998h-245zM258 848q10 66 64.5 113t121.5 47q66 0 109 -45t33 -111q-8 -66 -62.5 -113t-122.5 -47t-109.5 45t-33.5 111z" />
<glyph unicode="&#xa2;" horiz-adv-x="1212" d="M229 494q29 213 170.5 349t356.5 165l20 137h111l-21 -137q236 -8 328 -142l-180 -159q-70 86 -176 92l-86 -615q115 0 211 95l127 -162q-141 -133 -369 -142l-21 -147h-110l20 147q-205 18 -308 163t-73 356zM463 492q-16 -111 30 -196t148 -112l86 613 q-113 -23 -180.5 -106t-83.5 -199z" />
<glyph unicode="&#xa3;" horiz-adv-x="1212" d="M135 0l27 197h209l63 448h-209l25 172h209l28 205q12 80 50 156.5t103 144.5t165 110t221 42q246 0 373 -132l-191 -178q-82 88 -204 88q-109 0 -184 -74.5t-89 -177.5l-26 -184h331l-24 -172h-332l-64 -448h519l-27 -197h-973z" />
<glyph unicode="&#xa4;" horiz-adv-x="1212" d="M119 317l114 101q-82 135 -57 309q25 170 143 309l-86 101l140 120l88 -98q150 98 321.5 98t296.5 -98l113 98l106 -120l-114 -101q82 -137 57 -309q-25 -170 -143 -309l86 -101l-142 -122l-86 100q-150 -100 -323 -100q-170 0 -295 100l-115 -100zM409.5 727 q-20.5 -141 49 -226t206 -85t229.5 85t113.5 226t-49 225t-207 84t-229.5 -84t-112.5 -225z" />
<glyph unicode="&#xa5;" horiz-adv-x="1212" d="M186 362l23 160h348l14 99l-30 69h-310l23 160h221l-246 600h277l231 -602l391 602h265l-418 -600h221l-22 -160h-310l-47 -69l-14 -99h348l-23 -160h-348l-51 -362h-246l52 362h-349z" />
<glyph unicode="&#xa6;" horiz-adv-x="454" d="M117 -37l88 623h209l-88 -623h-209zM254 926l86 622h209l-86 -622h-209z" />
<glyph unicode="&#xa7;" horiz-adv-x="1214" d="M102 -43l234 106q10 -74 70.5 -111.5t142.5 -37.5q76 0 137.5 31.5t69.5 101.5q6 45 -22.5 82t-79 62.5t-113 52t-123 58.5t-109.5 71t-73.5 100.5t-14.5 138.5q27 197 240 303q-123 86 -103 234q14 109 89 187.5t172.5 114.5t203.5 36q133 0 240.5 -50.5t146.5 -156.5 l-231 -121q-14 59 -62.5 95t-113.5 36q-70 0 -123 -34.5t-64 -100.5q-6 -45 23 -83t79 -64.5t112.5 -53t123 -60.5t108.5 -75t73.5 -103.5t13.5 -142.5q-10 -84 -69.5 -154.5t-141.5 -107.5q113 -92 92 -243q-16 -117 -99 -202t-189.5 -123t-219.5 -38q-342 0 -420 252z M463 664q-4 -29 4 -54.5t18.5 -40t39 -33t40.5 -25t47 -22.5l185 -92q41 20 74.5 61.5t39.5 82.5q4 25 -1 46t-11 35.5t-27.5 32t-28.5 22.5t-37 23.5t-36 20.5l-170 86q-61 -27 -96 -57.5t-41 -85.5z" />
<glyph unicode="&#xa8;" horiz-adv-x="532" d="M80 1302.5q8 59.5 59 103.5t119 44t108 -42t30.5 -105.5t-61.5 -105.5t-120 -42q-66 0 -104.5 44t-30.5 103.5zM502 1302.5q8 59.5 59 103.5t119 44t107.5 -42t30.5 -105.5t-61 -105.5t-120 -42q-66 0 -104.5 44t-30.5 103.5z" />
<glyph unicode="&#xa9;" horiz-adv-x="1638" d="M159.5 725q28.5 207 155.5 382t316.5 277.5t396.5 102.5t367.5 -102.5t238.5 -277.5t49.5 -382t-155.5 -382t-317.5 -277.5t-396.5 -102.5t-367.5 102.5t-238.5 277.5t-48.5 382zM356.5 725q-34.5 -248 104.5 -419t376.5 -171t426 171t223.5 419t-105.5 419t-378 171 t-425 -171t-222 -419zM535 731q27 195 149.5 312.5t314.5 117.5q143 0 233.5 -76.5t92.5 -220.5h-192q-6 125 -142 125q-113 0 -178 -68.5t-82 -185.5q-16 -119 31 -194.5t151 -75.5q156 0 185 143h192q-43 -150 -156.5 -232.5t-252.5 -82.5q-188 0 -280.5 124t-65.5 314z " />
<glyph unicode="&#xaa;" horiz-adv-x="714" d="M205 1051q8 55 42 95t74.5 60.5t103 31.5t109 14t105.5 3h35l2 17q6 33 -31 50t-100 17q-92 0 -180 -65l-72 108q117 92 295 93q145 0 202.5 -59.5t38.5 -186.5l-47 -346h-159l10 80h-4q-35 -47 -96.5 -70t-126.5 -23q-33 0 -66 8.5t-68.5 26t-55 55t-11.5 91.5z M379 1057q-4 -29 23.5 -46.5t68.5 -17.5q158 0 176 127l2 13h-57q-203 0 -213 -76z" />
<glyph unicode="&#xab;" horiz-adv-x="1062" d="M133 508l375 459l139 -105l-285 -354l187 -358l-170 -105zM590 508l375 459l139 -105l-285 -354l187 -358l-170 -105z" />
<glyph unicode="&#xac;" horiz-adv-x="1363" d="M225 700l29 209h1110l-84 -608h-209l55 399h-901z" />
<glyph unicode="&#xad;" horiz-adv-x="645" d="M125 399l31 209h506l-31 -209h-506z" />
<glyph unicode="&#xae;" horiz-adv-x="1638" d="M159.5 725q28.5 207 155.5 382t316.5 277.5t396.5 102.5t367.5 -102.5t238.5 -277.5t49.5 -382t-155.5 -382t-317.5 -277.5t-396.5 -102.5t-367.5 102.5t-238.5 277.5t-48.5 382zM356.5 725q-34.5 -248 104.5 -419t376.5 -171t426 171t223.5 419t-105.5 419t-378 171 t-425 -171t-222 -419zM573 334l113 799h256q76 0 133.5 -10.5t107.5 -35t72.5 -72.5t14.5 -118q-14 -100 -79 -167.5t-136 -78.5l159 -317h-215l-139 307h-47l-43 -307h-197zM834 801h96q25 0 42 2t40.5 9t39 26.5t19.5 48.5t-6 47t-31.5 26.5t-38 10.5t-41.5 2h-96z" />
<glyph unicode="&#xaf;" horiz-adv-x="532" d="M111 1219l22 159h655l-22 -159h-655z" />
<glyph unicode="&#xb0;" horiz-adv-x="819" d="M242.5 1147q19.5 135 129 231.5t245 96.5t218.5 -96.5t63.5 -231.5t-129.5 -231.5t-245 -96.5t-218 96.5t-63.5 231.5zM402.5 1147q-9.5 -70 32.5 -119t111.5 -49t126 49t66 119t-32.5 119t-112 49t-126 -49t-65.5 -119z" />
<glyph unicode="&#xb1;" horiz-adv-x="1363" d="M135 66l31 208h1110l-31 -208h-1110zM221 674l31 209h453l40 293h209l-41 -293h449l-16 -105l-15 -104h-448l-41 -293h-209l41 293h-453z" />
<glyph unicode="&#xb2;" horiz-adv-x="788" d="M147 592l27 194l412 312q4 2 8 6q86 68 92 106q6 41 -23.5 60.5t-78.5 19.5q-55 0 -94 -31.5t-50 -78.5l-194 12q29 141 128 212t244 71q141 0 218 -68t59 -195q-18 -133 -150 -223l-317 -221l-2 -4h405l-22 -172h-662z" />
<glyph unicode="&#xb3;" horiz-adv-x="788" d="M170 821l217 45q6 -102 113 -102q131 0 145 98q4 27 -4 46.5t-21.5 28.5t-39 14t-45 6t-54.5 1h-47l25 172h65q143 0 156 93q4 33 -22.5 50t-75.5 17q-47 0 -85 -23.5t-55 -66.5l-204 41q88 233 368 234q133 0 217 -60.5t68 -173.5q-10 -74 -59.5 -125t-129.5 -65v-4 q80 -10 120 -68.5t30 -136.5q-18 -127 -124.5 -194.5t-252.5 -67.5q-285 0 -305 241z" />
<glyph unicode="&#xb4;" horiz-adv-x="532" d="M332 1155l246 295h278l-332 -295h-192z" />
<glyph unicode="&#xb6;" horiz-adv-x="1228" d="M213 1065q29 199 168 292t364 93h551l-241 -1708h-185l220 1561h-220l-219 -1561h-184l135 950q-199 0 -305.5 104.5t-83.5 268.5z" />
<glyph unicode="&#xb7;" d="M223 596q8 66 63.5 113t123.5 47t109.5 -45t31.5 -111q-8 -66 -63.5 -113t-122.5 -47q-66 0 -109 45t-33 111z" />
<glyph unicode="&#xb8;" horiz-adv-x="532" d="M47 -434l59 94q72 -41 162 -41q43 0 83 20.5t46 65.5q4 37 -25.5 55.5t-68.5 18.5q-33 0 -78 -15l-49 52l154 184h119l-103 -123q43 0 73 -2t63.5 -12t53 -27.5t29.5 -50.5t4 -78q-10 -70 -64 -117t-116.5 -64.5t-132.5 -17.5q-115 0 -209 58z" />
<glyph unicode="&#xb9;" horiz-adv-x="788" d="M254 1223l340 239h186l-121 -870h-208l90 649l-193 -154z" />
<glyph unicode="&#xba;" horiz-adv-x="813" d="M227 1171q20 133 129 218.5t254 85.5q147 0 235.5 -85t67.5 -219q-18 -131 -130 -216t-257 -85t-232 85t-67 216zM395 1171q-8 -59 32 -106t120 -47t133 48t61 105q8 59 -31.5 107.5t-119.5 48.5t-133.5 -48t-61.5 -108z" />
<glyph unicode="&#xbb;" horiz-adv-x="1062" d="M100 150l287 354l-188 358l170 105l247 -463l-376 -459zM557 150l287 354l-189 358l170 105l248 -463l-377 -459z" />
<glyph unicode="&#xbc;" horiz-adv-x="1820" d="M231 1223l340 239h187l-121 -870h-209l90 649l-192 -154zM379 12l1063 1504l160 -78l-1063 -1504zM1063 174l22 160l461 536h230l-74 -524h108l-24 -172h-109l-24 -174h-209l24 174h-405zM1296 346h197l39 275l-2 4z" />
<glyph unicode="&#xbd;" horiz-adv-x="1820" d="M238 1223l340 239h186l-121 -870h-209l90 649l-192 -154zM383 12l1063 1504l160 -78l-1063 -1504zM1096 0l26 195l412 311q2 2 8 6q86 68 90 106q6 41 -23.5 60.5t-78.5 19.5q-53 0 -93 -31.5t-51 -78.5l-194 12q29 141 128 212t247 71q139 0 216 -67.5t60 -194.5 q-20 -133 -151 -224l-318 -221v-4h406l-25 -172h-659z" />
<glyph unicode="&#xbe;" horiz-adv-x="1820" d="M162 821l217 45q6 -102 113 -102q131 0 145 98q4 27 -4 46.5t-21.5 28.5t-39 14t-45 6t-54.5 1h-47l25 172h65q143 0 156 93q4 33 -22.5 50t-76.5 17q-47 0 -84.5 -23.5t-54.5 -66.5l-205 41q88 233 369 234q133 0 217 -60.5t68 -173.5q-10 -74 -59.5 -125t-129.5 -65v-4 q80 -10 120 -68.5t30 -136.5q-18 -127 -125 -194.5t-252 -67.5q-285 0 -305 241zM434 12l1063 1504l160 -78l-1063 -1504zM1077 174l23 160l461 536h229l-74 -524h107l-25 -172h-106l-25 -174h-209l25 174h-406zM1264 322h245l52 364h-5l-292 -360v-4z" />
<glyph unicode="&#xbf;" horiz-adv-x="1062" d="M43 -92q8 59 28.5 108.5t60.5 95.5t69.5 73.5t91.5 78.5q16 12 26 21q53 45 73 63.5t38.5 54t26.5 86.5l10 78h246l-17 -112q-12 -86 -38.5 -128t-104.5 -112l-180 -160q-59 -51 -70 -133q-12 -80 33 -130t125 -50q84 0 148.5 57.5t84.5 143.5l260 -21 q-51 -193 -195.5 -303.5t-340.5 -110.5q-188 0 -295 105.5t-80 294.5zM465 848q10 66 64.5 113t121.5 47q66 0 109 -45t33 -111q-8 -66 -62.5 -113t-122.5 -47t-109.5 45t-33.5 111z" />
<glyph unicode="&#xc0;" horiz-adv-x="1478" d="M0 0l836 1450h223l420 -1450h-295l-88 332h-629l-178 -332h-289zM586 553h450l-141 590zM614 1843h279l160 -295h-193z" />
<glyph unicode="&#xc1;" horiz-adv-x="1478" d="M0 0l836 1450h223l420 -1450h-295l-88 332h-629l-178 -332h-289zM586 553h450l-141 590zM860 1548l246 295h278l-331 -295h-193z" />
<glyph unicode="&#xc2;" horiz-adv-x="1478" d="M0 0l836 1450h223l420 -1450h-295l-88 332h-629l-178 -332h-289zM584 1548l278 295h277l190 -295h-233l-115 185l-168 -185h-229zM586 553h450l-141 590z" />
<glyph unicode="&#xc3;" horiz-adv-x="1478" d="M0 0l836 1450h223l420 -1450h-295l-88 332h-629l-178 -332h-289zM582 1556q82 260 266 261q59 0 158 -38q98 -38 124 -38q68 0 107 86h135q-80 -260 -264 -260q-61 0 -160 39q-98 39 -125 39q-65 -1 -106 -89h-135zM586 553h450l-141 590z" />
<glyph unicode="&#xc4;" horiz-adv-x="1478" d="M0 0l836 1450h223l420 -1450h-295l-88 332h-629l-178 -332h-289zM586 553h450l-141 590zM608 1696q8 59 60 103q51 44 118 44q68 0 108 -42t31 -105t-62 -106q-52 -42 -120 -42q-66 0 -104 44q-39 45 -31 104zM1030 1696q8 59 60 103q51 44 118 44q68 0 108 -42t31 -105 t-62 -106q-52 -42 -120 -42q-66 0 -104 44q-39 45 -31 104z" />
<glyph unicode="&#xc5;" horiz-adv-x="1478" d="M0 0l836 1450h223l420 -1450h-295l-88 332h-629l-178 -332h-289zM586 553h450l-141 590zM766 1712q12 90 82 151q70 60 162 60t145 -59q53 -60 41 -150t-83 -149t-162 -60q-91 0 -144 60q-53 59 -41 147zM864 1714q-6 -47 24 -79t78 -31q48 0 87 31q39 32 45 79t-24 79 t-77 32t-87 -32t-46 -79z" />
<glyph unicode="&#xc6;" horiz-adv-x="2048" d="M-12 0l1132 1450h1016l-35 -233h-590l-49 -357h553l-33 -233h-552l-56 -394h615l-33 -233h-873l54 381h-549l-287 -381h-313zM754 602h413l86 615h-30z" />
<glyph unicode="&#xc7;" horiz-adv-x="1402" d="M184 719q49 346 293 557t582 211q309 -1 475 -230l-221 -147q-115 143 -285 143q-221 0 -380 -148t-191 -370q-33 -236 84 -387q117 -152 338 -151q188 0 352 176l190 -152q-223 -258 -577 -258q-336 0 -521 209t-139 547zM483 -434l60 94q72 -41 162 -41q43 0 82 21 q40 20 47 65q4 37 -26 55t-69 19q-33 0 -77 -15l-50 52l154 184h119l-103 -123q43 0 73 -2t64 -12t53 -28q19 -17 29 -50t5 -78q-10 -70 -65 -117q-54 -47 -117 -64q-62 -17 -132 -18q-115 0 -209 58z" />
<glyph unicode="&#xc8;" horiz-adv-x="1251" d="M162 0l205 1450h960l-35 -233h-702l-49 -357h665l-32 -233h-666l-55 -394h739l-33 -233h-997zM502 1843h278l160 -295h-192z" />
<glyph unicode="&#xc9;" horiz-adv-x="1251" d="M162 0l205 1450h960l-35 -233h-702l-49 -357h665l-32 -233h-666l-55 -394h739l-33 -233h-997zM748 1548l245 295h279l-332 -295h-192z" />
<glyph unicode="&#xca;" horiz-adv-x="1251" d="M162 0l205 1450h960l-35 -233h-702l-49 -357h665l-32 -233h-666l-55 -394h739l-33 -233h-997zM471 1548l279 295h276l191 -295h-234l-115 185l-168 -185h-229z" />
<glyph unicode="&#xcb;" horiz-adv-x="1251" d="M162 0l205 1450h960l-35 -233h-702l-49 -357h665l-32 -233h-666l-55 -394h739l-33 -233h-997zM496 1696q8 59 59 103t119 44t107 -42q40 -42 31 -105t-61 -106q-52 -42 -120 -42q-66 0 -105 44q-38 45 -30 104zM918 1696q8 59 59 103t119 44t107 -42q40 -42 31 -105 t-62 -106q-52 -42 -119 -42q-66 0 -105 44q-38 45 -30 104z" />
<glyph unicode="&#xcc;" horiz-adv-x="569" d="M156 0l204 1450h258l-204 -1450h-258zM160 1843h278l160 -295h-192z" />
<glyph unicode="&#xcd;" horiz-adv-x="569" d="M156 0l204 1450h258l-204 -1450h-258zM406 1548l245 295h279l-332 -295h-192z" />
<glyph unicode="&#xce;" horiz-adv-x="569" d="M129 1548l279 295h276l190 -295h-233l-115 185l-168 -185h-229zM156 0l204 1450h258l-204 -1450h-258z" />
<glyph unicode="&#xcf;" horiz-adv-x="569" d="M154 1696q8 59 59 103t119 44t107 -42q40 -42 31 -105t-61 -106q-52 -42 -120 -42q-66 0 -105 44q-38 45 -30 104zM156 0l204 1450h258l-204 -1450h-258zM575 1696q8 59 60 103q51 44 119 44t107 -42q40 -42 31 -105t-62 -106q-52 -42 -119 -42q-66 0 -105 44 q-39 45 -31 104z" />
<glyph unicode="&#xd0;" horiz-adv-x="1554" d="M121 664l22 172h136l88 614h571q145 0 269 -45t216.5 -132t133 -228.5t16.5 -319.5q-20 -143 -84 -265t-153 -205t-197.5 -141.5t-219 -86t-217.5 -27.5h-540l94 664h-135zM453 233h192q125 0 232.5 28t197.5 85t149.5 153.5t78.5 225.5q35 252 -95.5 372t-382.5 120 h-235l-53 -381h442l-23 -172h-442z" />
<glyph unicode="&#xd1;" horiz-adv-x="1630" d="M162 0l205 1450h342l551 -1077l2 -4h-5l7 4l151 1077h258l-205 -1450h-327l-561 1112h-5l-155 -1112h-258zM657 1556q82 260 267 261q59 0 157 -38t125 -38q68 0 107 86h135q-80 -260 -264 -260q-61 0 -160 39q-98 39 -125 39q-65 -1 -106 -89h-136z" />
<glyph unicode="&#xd2;" horiz-adv-x="1705" d="M184 719q49 346 293 557t582 211q342 6 528 -204t137 -556q-47 -338 -291 -548q-245 -210 -589 -216q-336 0 -521 209q-186 209 -139 547zM457 735q-33 -236 84 -387q117 -152 338 -151q225 0 384 151q159 152 191 387q33 221 -86 370q-119 148 -340 148t-380 -148 q-158 -149 -191 -370zM729 1843h279l159 -295h-192z" />
<glyph unicode="&#xd3;" horiz-adv-x="1705" d="M184 719q49 346 293 557t582 211q342 6 528 -204t137 -556q-47 -338 -291 -548q-245 -210 -589 -216q-336 0 -521 209q-186 209 -139 547zM457 735q-33 -236 84 -387q117 -152 338 -151q225 0 384 151q159 152 191 387q33 221 -86 370q-119 148 -340 148t-380 -148 q-158 -149 -191 -370zM975 1548l246 295h278l-332 -295h-192z" />
<glyph unicode="&#xd4;" horiz-adv-x="1705" d="M184 719q49 346 293 557t582 211q342 6 528 -204t137 -556q-47 -338 -291 -548q-245 -210 -589 -216q-336 0 -521 209q-186 209 -139 547zM457 735q-33 -236 84 -387q117 -152 338 -151q225 0 384 151q159 152 191 387q33 221 -86 370q-119 148 -340 148t-380 -148 q-158 -149 -191 -370zM698 1548l279 295h276l191 -295h-234l-114 185l-168 -185h-230z" />
<glyph unicode="&#xd5;" horiz-adv-x="1705" d="M184 719q49 346 293 557t582 211q342 6 528 -204t137 -556q-47 -338 -291 -548q-245 -210 -589 -216q-336 0 -521 209q-186 209 -139 547zM457 735q-33 -236 84 -387q117 -152 338 -151q225 0 384 151q159 152 191 387q33 221 -86 370q-119 148 -340 148t-380 -148 q-158 -149 -191 -370zM696 1556q82 260 267 261q59 0 157 -38t125 -38q68 0 107 86h135q-80 -260 -264 -260q-61 0 -160 39q-98 39 -125 39q-66 -1 -107 -89h-135z" />
<glyph unicode="&#xd6;" horiz-adv-x="1705" d="M184 719q49 346 293 557t582 211q342 6 528 -204t137 -556q-47 -338 -291 -548q-245 -210 -589 -216q-336 0 -521 209q-186 209 -139 547zM457 735q-33 -236 84 -387q117 -152 338 -151q225 0 384 151q159 152 191 387q33 221 -86 370q-119 148 -340 148t-380 -148 q-158 -149 -191 -370zM723 1696q8 59 59 103t119 44t108 -42t30 -105q-9 -63 -61 -106q-52 -42 -120 -42q-66 0 -104 44q-39 45 -31 104zM1145 1696q8 59 59 103t119 44t108 -42t30 -105q-9 -63 -61 -106q-52 -42 -120 -42q-66 0 -104 44q-39 45 -31 104z" />
<glyph unicode="&#xd7;" horiz-adv-x="1363" d="M193 242l430 372l-324 381l168 146l324 -375l423 373l123 -144l-422 -370l326 -381l-174 -152l-322 371l-423 -371z" />
<glyph unicode="&#xd8;" horiz-adv-x="1705" d="M92 14l205 193q-156 207 -113 512q49 346 293 557t582 211q268 6 452 -133l205 192l88 -88l-202 -192q170 -209 122 -539q-47 -338 -291.5 -548t-588.5 -216q-283 0 -461 152l-201 -189zM457 735q-27 -189 49 -332l803 758q-115 92 -281 92q-221 0 -380 -148.5 t-191 -369.5zM584 303q117 -106 295 -106q225 0 383.5 151.5t191.5 386.5q29 199 -63 332z" />
<glyph unicode="&#xd9;" horiz-adv-x="1478" d="M231 532l129 918h258l-129 -909q-8 -57 1 -113q9 -55 38 -106t90 -82t150 -31q88 0 159 31t113 82q43 51 68 106t33 113l129 909h258l-129 -918q-37 -258 -224 -413q-187 -156 -441 -156q-253 0 -396 156t-107 413zM614 1843h279l160 -295h-193z" />
<glyph unicode="&#xda;" horiz-adv-x="1478" d="M231 532l129 918h258l-129 -909q-8 -57 1 -113q9 -55 38 -106t90 -82t150 -31q88 0 159 31t113 82q43 51 68 106t33 113l129 909h258l-129 -918q-37 -258 -224 -413q-187 -156 -441 -156q-253 0 -396 156t-107 413zM860 1548l246 295h278l-331 -295h-193z" />
<glyph unicode="&#xdb;" horiz-adv-x="1478" d="M231 532l129 918h258l-129 -909q-8 -57 1 -113q9 -55 38 -106t90 -82t150 -31q88 0 159 31t113 82q43 51 68 106t33 113l129 909h258l-129 -918q-37 -258 -224 -413q-187 -156 -441 -156q-253 0 -396 156t-107 413zM584 1548l278 295h277l190 -295h-233l-115 185 l-168 -185h-229z" />
<glyph unicode="&#xdc;" horiz-adv-x="1478" d="M231 532l129 918h258l-129 -909q-8 -57 1 -113q9 -55 38 -106t90 -82t150 -31q88 0 159 31t113 82q43 51 68 106t33 113l129 909h258l-129 -918q-37 -258 -224 -413q-187 -156 -441 -156q-253 0 -396 156t-107 413zM608 1696q8 59 60 103q51 44 118 44q68 0 108 -42 t31 -105t-62 -106q-52 -42 -120 -42q-66 0 -104 44q-39 45 -31 104zM1030 1696q8 59 60 103q51 44 118 44q68 0 108 -42t31 -105t-62 -106q-52 -42 -120 -42q-66 0 -104 44q-39 45 -31 104z" />
<glyph unicode="&#xdd;" horiz-adv-x="1290" d="M176 1450h324l274 -578l443 578h307l-662 -829l-88 -621h-258l88 621zM766 1548l246 295h278l-332 -295h-192z" />
<glyph unicode="&#xde;" horiz-adv-x="1251" d="M162 0l205 1450h258l-41 -281h229q113 0 201 -21.5t158.5 -67.5t101.5 -130t14 -200q-14 -106 -57 -184.5t-100.5 -125.5t-139.5 -74.5t-161.5 -37t-180.5 -9.5h-184l-45 -319h-258zM496 541h155q45 0 77 2t77 7t75.5 19.5t61.5 36t50.5 57t25.5 82.5q8 51 -6.5 89 t-41 59.5t-67.5 34t-80 16.5t-86 4h-184z" />
<glyph unicode="&#xdf;" horiz-adv-x="1251" d="M115 0l147 1047q39 274 177.5 400t387.5 126q188 0 302 -99.5t90 -279.5q-16 -113 -84 -197t-179 -127l-2 -4q156 -20 224.5 -136t46.5 -284q-31 -209 -183.5 -340t-365.5 -131q-92 0 -168 23l29 207q43 -20 110 -21q129 0 222.5 77t111.5 206q20 141 -54.5 217 t-215.5 76h-29l29 209h16q94 0 161.5 52t80.5 140q10 84 -42.5 137.5t-138.5 53.5q-119 0 -188.5 -67.5t-83.5 -180.5l-156 -1104h-245z" />
<glyph unicode="&#xe0;" horiz-adv-x="1099" d="M113 270q10 78 46 137q36 58 93 94t117 59q59 24 138 35t138 14t133 3h62l4 27q12 88 -43 136t-158 48q-152 0 -276 -102l-111 129q178 158 440 158q68 0 123 -12q55 -11 94 -27t67 -45t45 -55t27 -63q9 -38 12 -64t1 -65q-2 -40 -4 -60q-2 -19 -6 -52l-80 -565h-221 l18 135h-6q-123 -160 -338 -160q-145 0 -241 78q-95 78 -74 217zM360 289q-8 -63 39 -96t115 -33q123 0 194 59q71 60 85 166l8 55h-51q-369 0 -390 -151zM371 1450h278l160 -295h-193z" />
<glyph unicode="&#xe1;" horiz-adv-x="1099" d="M113 270q10 78 46 137q36 58 93 94t117 59q59 24 138 35t138 14t133 3h62l4 27q12 88 -43 136t-158 48q-152 0 -276 -102l-111 129q178 158 440 158q68 0 123 -12q55 -11 94 -27t67 -45t45 -55t27 -63q9 -38 12 -64t1 -65q-2 -40 -4 -60q-2 -19 -6 -52l-80 -565h-221 l18 135h-6q-123 -160 -338 -160q-145 0 -241 78q-95 78 -74 217zM360 289q-8 -63 39 -96t115 -33q123 0 194 59q71 60 85 166l8 55h-51q-369 0 -390 -151zM616 1155l246 295h279l-332 -295h-193z" />
<glyph unicode="&#xe2;" horiz-adv-x="1099" d="M113 270q10 78 46 137q36 58 93 94t117 59q59 24 138 35t138 14t133 3h62l4 27q12 88 -43 136t-158 48q-152 0 -276 -102l-111 129q178 158 440 158q68 0 123 -12q55 -11 94 -27t67 -45t45 -55t27 -63q9 -38 12 -64t1 -65q-2 -40 -4 -60q-2 -19 -6 -52l-80 -565h-221 l18 135h-6q-123 -160 -338 -160q-145 0 -241 78q-95 78 -74 217zM340 1155l278 295h277l190 -295h-233l-115 184l-168 -184h-229zM360 289q-8 -63 39 -96t115 -33q123 0 194 59q71 60 85 166l8 55h-51q-369 0 -390 -151z" />
<glyph unicode="&#xe3;" horiz-adv-x="1099" d="M113 270q10 78 46 137q36 58 93 94t117 59q59 24 138 35t138 14t133 3h62l4 27q12 88 -43 136t-158 48q-152 0 -276 -102l-111 129q178 158 440 158q68 0 123 -12q55 -11 94 -27t67 -45t45 -55t27 -63q9 -38 12 -64t1 -65q-2 -40 -4 -60q-2 -19 -6 -52l-80 -565h-221 l18 135h-6q-123 -160 -338 -160q-145 0 -241 78q-95 78 -74 217zM338 1163q82 260 266 260q59 0 158 -38q98 -38 125 -37q68 0 106 86h135q-80 -260 -264 -260q-61 0 -159 38q-98 39 -125 39q-66 0 -107 -88h-135zM360 289q-8 -63 39 -96t115 -33q123 0 194 59q71 60 85 166 l8 55h-51q-369 0 -390 -151z" />
<glyph unicode="&#xe4;" horiz-adv-x="1099" d="M113 270q10 78 46 137q36 58 93 94t117 59q59 24 138 35t138 14t133 3h62l4 27q12 88 -43 136t-158 48q-152 0 -276 -102l-111 129q178 158 440 158q68 0 123 -12q55 -11 94 -27t67 -45t45 -55t27 -63q9 -38 12 -64t1 -65q-2 -40 -4 -60q-2 -19 -6 -52l-80 -565h-221 l18 135h-6q-123 -160 -338 -160q-145 0 -241 78q-95 78 -74 217zM360 289q-8 -63 39 -96t115 -33q123 0 194 59q71 60 85 166l8 55h-51q-369 0 -390 -151zM365 1303q8 59 59 103t119 44t107 -42q40 -42 31 -105t-61 -106q-52 -42 -120 -42q-66 0 -105 44q-38 45 -30 104z M786 1303q8 59 60 103q51 44 119 44t107 -42q40 -42 31 -105t-62 -106q-52 -42 -119 -42q-66 0 -105 44q-39 45 -31 104z" />
<glyph unicode="&#xe5;" horiz-adv-x="1099" d="M113 270q10 78 46 137q36 58 93 94t117 59q59 24 138 35t138 14t133 3h62l4 27q12 88 -43 136t-158 48q-152 0 -276 -102l-111 129q178 158 440 158q68 0 123 -12q55 -11 94 -27t67 -45t45 -55t27 -63q9 -38 12 -64t1 -65q-2 -40 -4 -60q-2 -19 -6 -52l-80 -565h-221 l18 135h-6q-123 -160 -338 -160q-145 0 -241 78q-95 78 -74 217zM360 289q-8 -63 39 -96t115 -33q123 0 194 59q71 60 85 166l8 55h-51q-369 0 -390 -151zM524 1339q12 90 82 151q70 60 162 60t145 -59q53 -60 41 -150t-83 -149t-161 -59q-91 0 -145 59q-53 59 -41 147z M623 1341q-6 -47 23 -78q30 -32 78 -32t87 32q39 31 45 78t-23 79q-30 32 -77 32t-87 -32t-46 -79z" />
<glyph unicode="&#xe6;" horiz-adv-x="1744" d="M113 272q23 170 152.5 244t365.5 74h200q16 111 -31.5 173t-154.5 62q-154 0 -276 -102l-113 129q178 158 440 158q92 4 175 -34t130 -112q154 145 338 144q156 0 254.5 -72t132 -188t13.5 -263l-8 -67h-717q-20 -113 47 -185.5t156 -72.5q154 0 280 133l154 -121 q-182 -197 -461 -197q-119 0 -208 49.5t-134 127.5q-135 -174 -420 -175q-90 0 -165 30t-120 98.5t-30 166.5zM360 289q-10 -63 40.5 -95t111.5 -32q119 0 200 69.5t93 161.5l4 25h-123q-307 0 -326 -129zM1040 590h476q10 106 -44.5 169.5t-160.5 63.5q-100 0 -174 -65.5 t-97 -167.5z" />
<glyph unicode="&#xe7;" horiz-adv-x="987" d="M159 492q32 227 206 371t401 145q100 0 189 -37q90 -37 147 -113l-195 -170q-80 98 -172 98q-131 0 -222 -87t-109 -207q-17 -121 51 -208t196 -87q121 0 205 92l139 -176q-78 -68 -186 -103q-109 -35 -188 -35q-225 0 -360 145q-134 144 -102 372zM244 -434l59 94 q72 -41 162 -41q43 0 83 21q40 20 46 65q4 37 -26 55t-68 19q-33 0 -78 -15l-49 52l153 184h119l-102 -123q43 0 72 -2q30 -2 64 -12t53 -28q19 -17 30 -50q10 -33 4 -78q-10 -70 -65 -117q-54 -47 -116 -64t-132 -18q-115 0 -209 58z" />
<glyph unicode="&#xe8;" horiz-adv-x="1175" d="M159 492q32 227 206 371t401 145q209 0 315 -142q106 -141 70 -393l-8 -67h-750q-4 -106 62 -170q66 -63 170 -64q156 0 282 133l158 -133q-188 -197 -444 -197q-225 0 -360 145q-134 144 -102 372zM408 1450h278l160 -295h-193zM418 590h504q14 109 -43 171t-174 62 q-106 0 -182 -62q-74 -62 -105 -171z" />
<glyph unicode="&#xe9;" horiz-adv-x="1175" d="M159 492q32 227 206 371t401 145q209 0 315 -142q106 -141 70 -393l-8 -67h-750q-4 -106 62 -170q66 -63 170 -64q156 0 282 133l158 -133q-188 -197 -444 -197q-225 0 -360 145q-134 144 -102 372zM418 590h504q14 109 -43 171t-174 62q-106 0 -182 -62 q-74 -62 -105 -171zM653 1155l246 295h279l-332 -295h-193z" />
<glyph unicode="&#xea;" horiz-adv-x="1175" d="M159 492q32 227 206 371t401 145q209 0 315 -142q106 -141 70 -393l-8 -67h-750q-4 -106 62 -170q66 -63 170 -64q156 0 282 133l158 -133q-188 -197 -444 -197q-225 0 -360 145q-134 144 -102 372zM377 1155l278 295h277l190 -295h-233l-115 184l-168 -184h-229z M418 590h504q14 109 -43 171t-174 62q-106 0 -182 -62q-74 -62 -105 -171z" />
<glyph unicode="&#xeb;" horiz-adv-x="1175" d="M159 492q32 227 206 371t401 145q209 0 315 -142q106 -141 70 -393l-8 -67h-750q-4 -106 62 -170q66 -63 170 -64q156 0 282 133l158 -133q-188 -197 -444 -197q-225 0 -360 145q-134 144 -102 372zM401 1303q8 59 60 103q51 44 119 44t107 -42q40 -42 31 -105t-62 -106 q-52 -42 -119 -42q-66 0 -105 44q-39 45 -31 104zM418 590h504q14 109 -43 171t-174 62q-106 0 -182 -62q-74 -62 -105 -171zM823 1303q8 59 60 103q51 44 118 44q68 0 108 -42t31 -105t-62 -106q-52 -42 -120 -42q-66 0 -104 44q-39 45 -31 104z" />
<glyph unicode="&#xec;" horiz-adv-x="532" d="M111 1450h278l160 -295h-193zM143 0l138 983h245l-137 -983h-246z" />
<glyph unicode="&#xed;" horiz-adv-x="532" d="M143 0l138 983h245l-137 -983h-246zM307 1155l246 295h278l-331 -295h-193z" />
<glyph unicode="&#xee;" horiz-adv-x="532" d="M55 1155l279 295h276l191 -295h-234l-114 184l-168 -184h-230zM143 0l138 983h245l-137 -983h-246z" />
<glyph unicode="&#xef;" horiz-adv-x="532" d="M80 1303q8 59 59 103t119 44t108 -42t30 -105q-9 -63 -61 -106q-52 -42 -120 -42q-66 0 -104 44q-39 45 -31 104zM143 0l138 983h245l-137 -983h-246zM502 1303q8 59 59 103t119 44t107 -42q40 -42 31 -105t-61 -106q-52 -42 -120 -42q-66 0 -105 44q-38 45 -30 104z" />
<glyph unicode="&#xf0;" horiz-adv-x="1249" d="M160 492q31 227 201.5 371.5t383.5 144.5q154 0 224 -78l4 4q-61 129 -215 311l-4 6l-232 -100l-106 117l233 102q-14 16 -39.5 41t-56.5 53.5t-43 38.5l221 119q51 -45 154 -154l241 105l115 -115l-256 -110q307 -397 254 -781q-37 -266 -198.5 -429t-419.5 -163 q-225 0 -359.5 144.5t-101.5 372.5zM404.5 491.5q-17.5 -120.5 50 -207.5t197.5 -87t221.5 87t108.5 207.5t-49.5 207.5t-197.5 87t-222 -87t-108.5 -207.5z" />
<glyph unicode="&#xf1;" horiz-adv-x="1175" d="M139 0l137 983h234l-21 -158h5q109 182 325 183q96 0 164 -33t98 -86q31 -53 44 -123t-1 -145l-88 -621h-245l69 498q4 35 6 60q2 26 2 63t-8 63q-8 27 -23 51q-15 25 -45 38t-71 13q-115 0 -180 -70q-66 -71 -80 -179l-76 -537h-246zM375 1163q82 260 266 260 q59 0 158 -38q98 -38 125 -37q68 0 106 86h135q-80 -260 -264 -260q-61 0 -160 38q-98 39 -125 39q-65 0 -106 -88h-135z" />
<glyph unicode="&#xf2;" horiz-adv-x="1249" d="M159 492q32 227 206 371t401 145q227 0 360 -145q133 -144 102 -371q-32 -227 -206 -372q-174 -144 -400 -145q-226 0 -361 145q-134 145 -102 372zM404 492q-17 -121 51 -208t197 -87q130 0 221 87t109 208q17 121 -49 207q-67 87 -198 87t-222 -87q-92 -86 -109 -207z M444 1450h279l160 -295h-193z" />
<glyph unicode="&#xf3;" horiz-adv-x="1249" d="M159 492q32 227 206 371t401 145q227 0 360 -145q133 -144 102 -371q-32 -227 -206 -372q-174 -144 -400 -145q-226 0 -361 145q-134 145 -102 372zM404 492q-17 -121 51 -208t197 -87q130 0 221 87t109 208q17 121 -49 207q-67 87 -198 87t-222 -87q-92 -86 -109 -207z M690 1155l246 295h278l-331 -295h-193z" />
<glyph unicode="&#xf4;" horiz-adv-x="1249" d="M159 492q32 227 206 371t401 145q227 0 360 -145q133 -144 102 -371q-32 -227 -206 -372q-174 -144 -400 -145q-226 0 -361 145q-134 145 -102 372zM404 492q-17 -121 51 -208t197 -87q130 0 221 87t109 208q17 121 -49 207q-67 87 -198 87t-222 -87q-92 -86 -109 -207z M414 1155l278 295h277l190 -295h-233l-115 184l-168 -184h-229z" />
<glyph unicode="&#xf5;" horiz-adv-x="1249" d="M159 492q32 227 206 371t401 145q227 0 360 -145q133 -144 102 -371q-32 -227 -206 -372q-174 -144 -400 -145q-226 0 -361 145q-134 145 -102 372zM404 492q-17 -121 51 -208t197 -87q130 0 221 87t109 208q17 121 -49 207q-67 87 -198 87t-222 -87q-92 -86 -109 -207z M412 1163q82 260 266 260q59 0 158 -38q98 -38 125 -37q68 0 106 86h135q-80 -260 -264 -260q-61 0 -160 38q-98 39 -125 39q-65 0 -106 -88h-135z" />
<glyph unicode="&#xf6;" horiz-adv-x="1249" d="M159 492q32 227 206 371t401 145q227 0 360 -145q133 -144 102 -371q-32 -227 -206 -372q-174 -144 -400 -145q-226 0 -361 145q-134 145 -102 372zM404 492q-17 -121 51 -208t197 -87q130 0 221 87t109 208q17 121 -49 207q-67 87 -198 87t-222 -87q-92 -86 -109 -207z M438 1303q8 59 60 103q51 44 118 44q68 0 108 -42t31 -105t-62 -106q-52 -42 -120 -42q-66 0 -104 44q-39 45 -31 104zM860 1303q8 59 60 103q51 44 118 44q68 0 108 -42t31 -105t-62 -106q-52 -42 -120 -42q-66 0 -104 44q-39 45 -31 104z" />
<glyph unicode="&#xf7;" horiz-adv-x="1363" d="M199 516l30 209h1110l-30 -209h-1110zM564 251.5q9 63.5 60.5 109t115 45.5t102.5 -45.5t29.5 -109t-61.5 -108.5t-114.5 -45t-101.5 45t-30 108.5zM667.5 989.5q8.5 63.5 60.5 108.5t114.5 45t101.5 -45t31 -108.5t-60.5 -108.5t-115 -45t-101.5 45t-30.5 108.5z" />
<glyph unicode="&#xf8;" horiz-adv-x="1249" d="M76 14l157 140q-102 137 -73 338q31 227 205 371.5t401 144.5q188 0 315 -103l166 148l76 -82l-164 -146q96 -139 70 -333q-33 -227 -207 -372t-401 -145q-186 0 -312 101l-164 -146zM406 492q-15 -92 22 -164l463 409q-63 49 -156 49q-131 0 -222 -87t-107 -207z M500 244q59 -47 151 -47q131 0 222.5 87t109.5 208q13 89 -20 159z" />
<glyph unicode="&#xf9;" horiz-adv-x="1175" d="M188 217q-12 70 2 145l86 621h246l-69 -498q-4 -35 -7 -60q-2 -26 -2 -63t9 -63q8 -27 23 -51q15 -25 45 -38t71 -13q115 0 180 70q66 71 82 179l74 537h246l-138 -983h-233l22 158h-4q-109 -182 -327 -183q-94 0 -162 33t-100 86t-44 123zM408 1450h278l160 -295h-193z " />
<glyph unicode="&#xfa;" horiz-adv-x="1175" d="M188 217q-12 70 2 145l86 621h246l-69 -498q-4 -35 -7 -60q-2 -26 -2 -63t9 -63q8 -27 23 -51q15 -25 45 -38t71 -13q115 0 180 70q66 71 82 179l74 537h246l-138 -983h-233l22 158h-4q-109 -182 -327 -183q-94 0 -162 33t-100 86t-44 123zM653 1155l246 295h279 l-332 -295h-193z" />
<glyph unicode="&#xfb;" horiz-adv-x="1175" d="M188 217q-12 70 2 145l86 621h246l-69 -498q-4 -35 -7 -60q-2 -26 -2 -63t9 -63q8 -27 23 -51q15 -25 45 -38t71 -13q115 0 180 70q66 71 82 179l74 537h246l-138 -983h-233l22 158h-4q-109 -182 -327 -183q-94 0 -162 33t-100 86t-44 123zM377 1155l278 295h277 l190 -295h-233l-115 184l-168 -184h-229z" />
<glyph unicode="&#xfc;" horiz-adv-x="1175" d="M188 217q-12 70 2 145l86 621h246l-69 -498q-4 -35 -7 -60q-2 -26 -2 -63t9 -63q8 -27 23 -51q15 -25 45 -38t71 -13q115 0 180 70q66 71 82 179l74 537h246l-138 -983h-233l22 158h-4q-109 -182 -327 -183q-94 0 -162 33t-100 86t-44 123zM401 1303q8 59 60 103 q51 44 119 44t107 -42q40 -42 31 -105t-62 -106q-52 -42 -119 -42q-66 0 -105 44q-39 45 -31 104zM823 1303q8 59 60 103q51 44 118 44q68 0 108 -42t31 -105t-62 -106q-52 -42 -120 -42q-66 0 -104 44q-39 45 -31 104z" />
<glyph unicode="&#xfd;" horiz-adv-x="1062" d="M-37 -467l62 221q63 -25 120 -24q86 0 129 31q43 32 86 114l64 117l-281 991h271l180 -682h4l340 682h256l-631 -1194q-80 -147 -170 -214t-246 -67q-96 0 -184 25zM598 1155l246 295h278l-331 -295h-193z" />
<glyph unicode="&#xfe;" horiz-adv-x="1290" d="M74 -467l282 2015h246l-96 -692h4q53 72 147.5 112t198.5 40q223 0 333.5 -146.5t80.5 -369.5q-31 -221 -185.5 -369t-363.5 -148q-213 0 -311 150h-7l-84 -592h-245zM445.5 491.5q-17.5 -120.5 50 -207.5t197.5 -87t221.5 87t108.5 207.5t-49.5 207.5t-197.5 87 t-222 -87t-108.5 -207.5z" />
<glyph unicode="&#xff;" horiz-adv-x="1062" d="M-37 -467l62 221q63 -25 120 -24q86 0 129 31q43 32 86 114l64 117l-281 991h271l180 -682h4l340 682h256l-631 -1194q-80 -147 -170 -214t-246 -67q-96 0 -184 25zM346 1303q8 59 60 103q51 44 118 44q68 0 108 -42t31 -105t-62 -106q-52 -42 -120 -42q-66 0 -104 44 q-39 45 -31 104zM768 1303q8 59 59 103t119 44t108 -42t30 -105q-9 -63 -61 -106q-52 -42 -120 -42q-66 0 -104 44q-39 45 -31 104z" />
<glyph unicode="&#x152;" horiz-adv-x="2048" d="M205 725q45 319 295 522t633 203h983l-35 -233h-590l-49 -357h553l-33 -233h-553l-55 -394h624l-32 -233h-1018q-254 0 -430 96.5t-249 259t-44 369.5zM487.5 725q-16.5 -113 10 -203t79 -142t125 -87t137 -47.5t128.5 -12.5h129l137 984h-129q-61 0 -130 -12.5 t-151 -47.5t-149.5 -87t-118.5 -142t-67.5 -203z" />
<glyph unicode="&#x153;" horiz-adv-x="1896" d="M142.5 491.5q31.5 227.5 205.5 372t402 144.5q233 0 354 -160q152 160 387 160q156 0 254 -72t132 -187.5t13 -263.5l-8 -67h-717q-20 -104 49.5 -175t155.5 -71q154 0 281 133l153 -121q-180 -209 -463 -209q-246 0 -342 158q-164 -158 -395 -158q-225 0 -359 144.5 t-102.5 372zM389.5 491.5q-18.5 -129.5 48 -218.5t197.5 -89q133 0 225 89t110.5 218.5t-49 218.5t-200.5 89q-131 0 -222 -89t-109.5 -218.5zM1180 590h479q14 106 -40 169.5t-155 63.5q-94 0 -180 -62t-104 -171z" />
<glyph unicode="&#x178;" horiz-adv-x="1290" d="M176 1450h324l274 -578l443 578h307l-662 -829l-88 -621h-258l88 621zM514 1696q8 59 59 103t119 44t108 -42t30 -105q-9 -63 -61 -106q-52 -42 -120 -42q-66 0 -104 44q-39 45 -31 104zM936 1696q8 59 59 103t119 44t108 -42t30 -105q-9 -63 -61 -106q-52 -42 -120 -42 q-66 0 -104 44q-39 45 -31 104z" />
<glyph unicode="&#x2c6;" horiz-adv-x="532" d="M55 1155l279 295h276l191 -295h-234l-114 184l-168 -184h-230z" />
<glyph unicode="&#x2dc;" horiz-adv-x="532" d="M53 1163q82 260 266 260q59 0 157.5 -37.5t125.5 -37.5q68 0 107 86h135q-80 -260 -264 -260q-61 0 -159.5 38.5t-125.5 38.5q-66 0 -107 -88h-135z" />
<glyph unicode="&#x2000;" horiz-adv-x="961" />
<glyph unicode="&#x2001;" horiz-adv-x="1923" />
<glyph unicode="&#x2002;" horiz-adv-x="961" />
<glyph unicode="&#x2003;" horiz-adv-x="1923" />
<glyph unicode="&#x2004;" horiz-adv-x="641" />
<glyph unicode="&#x2005;" horiz-adv-x="480" />
<glyph unicode="&#x2006;" horiz-adv-x="320" />
<glyph unicode="&#x2007;" horiz-adv-x="320" />
<glyph unicode="&#x2008;" horiz-adv-x="240" />
<glyph unicode="&#x2009;" horiz-adv-x="384" />
<glyph unicode="&#x200a;" horiz-adv-x="106" />
<glyph unicode="&#x2010;" horiz-adv-x="645" d="M125 399l31 209h506l-31 -209h-506z" />
<glyph unicode="&#x2011;" horiz-adv-x="645" d="M125 399l31 209h506l-31 -209h-506z" />
<glyph unicode="&#x2012;" horiz-adv-x="645" d="M125 399l31 209h506l-31 -209h-506z" />
<glyph unicode="&#x2013;" horiz-adv-x="1024" d="M57 406l27 196h1024l-27 -196h-1024z" />
<glyph unicode="&#x2014;" horiz-adv-x="2048" d="M57 406l27 196h2048l-27 -196h-2048z" />
<glyph unicode="&#x2018;" d="M233 909l252 541h220l-222 -541h-250z" />
<glyph unicode="&#x2019;" d="M233 909l222 541h250l-252 -541h-220z" />
<glyph unicode="&#x201a;" d="M70 -258l219 541h250l-250 -541h-219z" />
<glyph unicode="&#x201c;" horiz-adv-x="1062" d="M246 909l252 541h219l-221 -541h-250zM678 909l252 541h219l-221 -541h-250z" />
<glyph unicode="&#x201d;" horiz-adv-x="1062" d="M246 909l221 541h250l-252 -541h-219zM678 909l221 541h250l-252 -541h-219z" />
<glyph unicode="&#x201e;" horiz-adv-x="1062" d="M84 -258l219 541h250l-250 -541h-219zM512 -258l219 541h250l-250 -541h-219z" />
<glyph unicode="&#x2022;" horiz-adv-x="1024" d="M250.5 724.5q21.5 149.5 142.5 256t271.5 106.5t241.5 -105t69.5 -257t-142 -257.5t-271 -105.5t-242 106.5t-70 256z" />
<glyph unicode="&#x2026;" horiz-adv-x="2048" d="M199 143q8 66 63 113t123 47q66 0 109 -45t32 -111q-8 -66 -63 -112.5t-123 -46.5q-66 0 -108.5 44.5t-32.5 110.5zM881 143q8 66 63 113t123 47q66 0 109 -45t32 -111q-8 -66 -63 -112.5t-123 -46.5q-66 0 -108.5 44.5t-32.5 110.5zM1563 143q8 66 63 113t123 47 q66 0 109 -45t32 -111q-8 -66 -63 -112.5t-123 -46.5q-66 0 -108.5 44.5t-32.5 110.5z" />
<glyph unicode="&#x202f;" horiz-adv-x="384" />
<glyph unicode="&#x2039;" d="M133 508l375 459l139 -105l-285 -354l187 -358l-170 -105z" />
<glyph unicode="&#x203a;" d="M100 150l287 354l-188 358l170 105l247 -463l-376 -459z" />
<glyph unicode="&#x205f;" horiz-adv-x="480" />
<glyph unicode="&#x2122;" horiz-adv-x="2048" d="M260 1266l27 184h708l-26 -184h-250l-92 -660h-209l92 660h-250zM1069 606l119 844h291l123 -549l278 549h291l-119 -844h-209l76 549h-4l-283 -549h-143l-131 549h-4l-76 -549h-209z" />
<glyph unicode="&#xe000;" horiz-adv-x="983" d="M0 0v983h983v-983h-983z" />
<glyph unicode="&#xfb01;" horiz-adv-x="1214" d="M133 774l29 209h203l20 139q16 111 42 186.5t73 139t124.5 94.5t190.5 31q84 0 154 -14l-45 -209q-59 14 -101 14q-94 0 -134 -53.5t-52 -149.5l-27 -178h228l-29 -209h-227l-109 -774h-246l109 774h-203zM860 0l137 983h246l-137 -983h-246zM1012 1316.5 q8 59.5 59 103.5t117 44q70 0 109.5 -42t30.5 -105.5t-61.5 -105.5t-119.5 -42q-66 0 -104.5 44t-30.5 103.5z" />
<glyph unicode="&#xfb02;" horiz-adv-x="1214" d="M133 774l29 209h203l20 139q16 111 42 186.5t73 139t124.5 94.5t190.5 31q84 0 154 -14l-45 -209q-59 14 -101 14q-94 0 -134 -53.5t-52 -149.5l-27 -178h228l-29 -209h-227l-109 -774h-246l109 774h-203zM860 0l217 1548h246l-217 -1548h-246z" />
</font>
</defs>
</svg>
